<svg width="184" height="24" viewBox="0 0 184 24" fill="none" xmlns="http://www.w3.org/2000/svg">
    <path d="M80.8047 12.0435H84.7926L86.0667 9.64437H80.8047V7.86817H86.7362V5.45312H78.25V16.3596H86.8583V13.9446H80.8047V12.0435Z" fill="white"/>
    <path d="M91.6093 5.45312H89.0547V16.3596H96.37L97.6441 13.9446H91.6093V5.45312Z" fill="white"/>
    <path d="M101.189 5.45312H98.6348V16.3596H105.95L107.224 13.9446H101.189V5.45312Z" fill="white"/>
    <path d="M56.4145 9.8885L61.7712 16.3596H64.0503V5.45312H61.5265V11.9397L56.1698 5.45312H53.8906V16.3596H56.4145V9.8885Z" fill="white"/>
    <path d="M110.726 5.45312H108.172V16.3596H110.726V5.45312Z" fill="white"/>
    <path d="M116.999 9.61328H112.75V12.0424H116.149L116.999 9.61328Z" fill="white"/>
    <path d="M44.688 14.3753H49.4253L50.1728 16.3597H52.85L48.5502 5.45312H45.5659L41.25 16.3597H43.9424L44.688 14.3753ZM48.5158 11.9608H45.5929L47.0507 8.07068L48.5158 11.9608Z" fill="white"/>
    <path d="M73.835 15.6908C74.6708 15.2634 75.3689 14.6009 75.8465 13.7818C76.323 12.9014 76.5728 11.9125 76.5728 10.9073C76.5728 9.90198 76.323 8.91308 75.8465 8.03273C75.3688 7.21372 74.6707 6.55124 73.835 6.1237C72.9328 5.66674 71.9361 5.43707 70.9287 5.454H66.2207V16.3605H70.9287C71.9361 16.3774 72.9328 16.1478 73.835 15.6908ZM68.7754 7.86904H70.9287C71.328 7.85668 71.7258 7.92613 72.0983 8.07326C72.4708 8.2204 72.8105 8.44222 73.0973 8.72559C73.3841 9.00895 73.6121 9.34809 73.7678 9.72289C73.9235 10.0977 74.0037 10.5005 74.0037 10.9075C74.0037 11.3145 73.9235 11.7173 73.7678 12.0921C73.6121 12.4669 73.3841 12.806 73.0973 13.0894C72.8105 13.3728 72.4708 13.5946 72.0983 13.7417C71.7258 13.8889 71.328 13.9583 70.9287 13.9459H68.7754V7.86904Z" fill="white"/>
    <path d="M29.3857 8.84981L32.1336 16.3596H34.9173L37.6652 8.84981V16.3596H40.1739V5.45312H36.4724L33.5257 13.2852L30.5789 5.45312H26.877V16.3596H29.3857V8.84981Z" fill="white"/>
    <path d="M160.296 9.25294C160.296 8.54676 159.849 5.45312 156.456 5.45312H150.133V16.3597H152.687V7.86817H156.38C156.722 7.89608 157.041 8.0541 157.273 8.31076C157.506 8.56742 157.635 8.9039 157.635 9.25318C157.635 9.60247 157.506 9.93893 157.273 10.1956C157.041 10.4522 156.722 10.6103 156.38 10.6382H153.835L157.634 16.3597H160.647L157.97 12.8194C160.146 12.3354 160.296 10.0531 160.296 9.25294Z" fill="white"/>
    <path d="M131.648 12.044H135.636L136.91 9.64485H131.648V7.86864H137.579V5.45312H129.094V16.3601H137.702V13.9451H131.648V12.044Z" fill="white"/>
    <path d="M139.119 7.86864H142.563V16.3601H145.117V7.86864H148.545V5.45312H139.119V7.86864Z" fill="white"/>
    <path d="M165.865 5.45312L161.549 16.3597H164.241L164.984 14.3753H169.722L170.47 16.3597H173.147L168.847 5.45312H165.865ZM165.89 11.9608L167.349 8.07068L168.814 11.9608H165.89Z" fill="white"/>
    <path d="M125.328 10.1613C124.669 9.92968 123.993 9.74743 123.308 9.61602C122.799 9.53458 122.301 9.39332 121.824 9.19511C121.709 9.15054 121.609 9.07183 121.538 8.96913C121.467 8.86643 121.428 8.74445 121.426 8.61894C121.426 7.84541 122.332 7.88095 122.862 7.88095H126.814V5.45703H123.273C119.176 5.45703 118.627 7.46239 118.627 8.80226C118.627 11.171 121.045 11.713 122.198 11.9932C122.688 12.1078 124.669 12.3379 124.669 13.1853C124.669 13.9691 123.831 13.9625 123.352 13.9625H118.99V16.3621H123.26C127.448 16.3621 127.499 13.8709 127.499 13.1437C127.49 12.4774 127.276 11.8308 126.886 11.2955C126.496 10.7602 125.951 10.3634 125.328 10.1613Z" fill="white"/>
    <path d="M9.82002 17.776C13.1281 17.776 15.8099 14.9493 15.8099 11.4622C15.8099 7.97522 13.1281 5.14844 9.82002 5.14844C6.51189 5.14844 3.83008 7.97522 3.83008 11.4622C3.83008 14.9493 6.51189 17.776 9.82002 17.776Z" fill="#EC1C24"/>
    <path d="M17.4596 11.4525C17.4593 12.5733 17.2355 13.6815 16.8027 14.7053L19.6397 16.4328V6.47266L16.8027 8.20009C17.2354 9.22375 17.4592 10.3318 17.4596 11.4525Z" fill="white"/>
    <path d="M2.18006 11.4534C2.18036 10.3325 2.40416 9.22406 2.83696 8.2001L0 6.47266V16.4318L2.83696 14.7044C2.40444 13.6812 2.18065 12.5736 2.18006 11.4534Z" fill="white"/>
    <path d="M3.66037 16.1992L0.818359 17.9267L9.00064 22.906V19.4574C7.94445 19.3358 6.92397 18.9832 6.00442 18.4221C5.08487 17.8611 4.28651 17.104 3.66037 16.1992Z" fill="white"/>
    <path d="M9.0026 3.44865V0L0.820312 4.97936L3.66233 6.70919C4.28818 5.80389 5.08642 5.04628 6.00599 4.48482C6.92556 3.92337 7.9462 3.57046 9.0026 3.44865Z" fill="white"/>
    <path d="M15.9805 6.70919L18.8225 4.97936L10.6406 0V3.44865C11.6969 3.57053 12.7175 3.92348 13.637 4.48493C14.5565 5.04638 15.3547 5.80395 15.9805 6.70919Z" fill="white"/>
    <path d="M10.6406 19.4613V22.9099L18.8225 17.9306L15.9805 16.2031C15.3544 17.1079 14.5561 17.8649 13.6366 18.426C12.7172 18.987 11.6967 19.3396 10.6406 19.4613Z" fill="white"/>
</svg>
