<svg width="184" height="24" viewBox="0 0 184 24" fill="none" xmlns="http://www.w3.org/2000/svg">
    <path d="M12.6509 9.00391H6.98828V14.9966H12.6509V9.00391Z" fill="#68BC45"/>
    <path d="M9.81999 0L0 6.00036V18.0001L9.81999 24L19.6404 18.0001V6.00036L9.81999 0ZM15.5382 9.00392V18.0512H6.9891V14.9961L4.10224 18.0512V5.94882H15.5382L12.6513 9.00392H15.5382Z" fill="#68BC45"/>
    <path d="M159.753 8.18143H156.336V17.0305H153.79V8.18143H150.357V5.66406H159.753V8.18143Z" fill="white"/>
    <path d="M184.001 5.66406V17.0305H181.729L176.389 10.2865V17.0305H173.873V5.66406H176.145L181.485 12.4247V5.66406H184.001Z" fill="white"/>
    <path d="M137.845 12.059C138.214 12.5602 138.403 13.1848 138.379 13.821C138.388 14.4032 138.245 14.9768 137.967 15.4781C137.687 15.9696 137.282 16.3664 136.799 16.622C136.247 16.9098 135.637 17.0519 135.023 17.0363H128.807V5.66937H134.673C135.535 5.61931 136.381 5.92479 137.037 6.5223C137.326 6.80825 137.553 7.15726 137.703 7.54541C137.853 7.93356 137.922 8.35168 137.907 8.77111C137.918 9.30385 137.777 9.82765 137.502 10.2732C137.227 10.7055 136.821 11.0237 136.351 11.1744C136.933 11.2691 137.463 11.583 137.845 12.059V12.059ZM131.352 7.9289V10.1709H134.124C134.276 10.1821 134.428 10.1613 134.571 10.1098C134.715 10.0582 134.848 9.97699 134.963 9.87067C135.063 9.75738 135.141 9.62323 135.191 9.47657C135.241 9.32991 135.262 9.17389 135.252 9.01823C135.261 8.86999 135.239 8.72153 135.189 8.58288C135.139 8.44423 135.062 8.31862 134.963 8.21451C134.727 8.00964 134.427 7.90803 134.124 7.93038L131.352 7.9289ZM135.413 14.4643C135.521 14.3457 135.605 14.2042 135.658 14.049C135.712 13.8938 135.735 13.7283 135.725 13.5631C135.735 13.3991 135.713 13.2347 135.659 13.0807C135.605 12.9266 135.521 12.7866 135.413 12.6698C135.158 12.4476 134.834 12.3374 134.505 12.3617H131.352V14.7811H134.505C134.835 14.8051 135.161 14.6907 135.413 14.4624L135.413 14.4643Z" fill="white"/>
    <path d="M166.056 17.2377C162.764 17.0983 160.719 14.8388 160.719 11.3403C160.719 7.85353 162.764 5.60081 166.057 5.46093C166.057 5.46093 166.253 5.45312 166.472 5.45312C166.691 5.45312 166.838 5.46093 166.838 5.46093C170.134 5.60081 172.177 7.85353 172.177 11.3403C172.177 14.8373 170.131 17.0969 166.838 17.2377C166.838 17.2377 166.53 17.2441 166.447 17.2441C166.365 17.2441 166.056 17.2377 166.056 17.2377ZM166.448 8.00803C164.561 8.00803 163.479 9.23576 163.479 11.3754C163.479 13.4834 164.561 14.6921 166.448 14.6921C168.335 14.6921 169.417 13.4834 169.417 11.3754C169.417 9.23576 168.335 8.00803 166.448 8.00803Z" fill="white"/>
    <path d="M46.6356 14.5141V17.031H38.0547V5.66406H46.5138V8.18143H40.6008V10.0325H45.8465L44.5764 12.5329H40.6008V14.5141H46.6356Z" fill="white"/>
    <path d="M120.898 14.5141V17.031H112.316V5.66406H120.776V8.18143H114.863V10.0325H120.108L118.839 12.5329H114.863V14.5141H120.898Z" fill="white"/>
    <path d="M36.2735 8.18143H32.8558V17.031H30.3097V8.18143H26.877V5.66406H36.2735V8.18143Z" fill="white"/>
    <path d="M81.1513 5.66406V17.031H78.8793L73.5394 10.287V17.031H71.0234V5.66406H73.2954L78.6354 12.4247V5.66406H81.1513Z" fill="white"/>
    <path d="M68.8798 5.66406V17.031H66.3483V12.5329H61.488V17.031H58.9414V5.66406H61.488V10.0325H66.3483V5.66406H68.8798Z" fill="white"/>
    <path d="M85.8103 5.66406H83.2637V17.0305H85.8103V5.66406Z" fill="white"/>
    <path d="M100.75 11.8505V5.66406H103.313V11.8671C103.313 14.1851 104.811 14.6272 105.553 14.6272C106.295 14.6272 107.823 14.1958 107.823 11.8671V5.66406H110.369V11.8505C110.369 16.8068 107.26 17.242 105.553 17.242C103.864 17.242 100.75 16.8175 100.75 11.8505Z" fill="white"/>
    <path d="M53.2832 14.5146C52.8845 14.5285 52.4872 14.4569 52.1151 14.3041C51.7429 14.1512 51.4034 13.9202 51.1167 13.6248C50.8301 13.3294 50.6021 12.9756 50.4464 12.5845C50.2908 12.1934 50.2105 11.773 50.2105 11.3482C50.2105 10.9234 50.2908 10.503 50.4464 10.1119C50.6021 9.72079 50.8301 9.36702 51.1167 9.07162C51.4034 8.77622 51.7429 8.54523 52.1151 8.39239C52.4872 8.23954 52.8845 8.16795 53.2832 8.18189H56.9063V5.66501H53.2832C52.2789 5.64702 51.2852 5.8864 50.386 6.36295C49.5526 6.80825 48.8567 7.49872 48.3808 8.35248C47.9055 9.26985 47.6562 10.3005 47.6562 11.3482C47.6562 12.3959 47.9055 13.4266 48.3808 14.344C48.8566 15.1978 49.5525 15.8884 50.386 16.3335C51.2853 16.8099 52.2789 17.0492 53.2832 17.0314H56.9063V14.5146H53.2832Z" fill="white"/>
    <path d="M99.0068 11.3408C99.0068 7.85353 96.9614 5.6008 93.6682 5.46092C93.6682 5.46092 93.5199 5.45312 93.3021 5.45312C93.0842 5.45312 92.8869 5.46092 92.8869 5.46092C89.5943 5.6008 87.5488 7.85353 87.5488 11.3408C87.5488 14.8378 89.5943 17.0969 92.8865 17.2382C92.8865 17.2382 93.1954 17.2445 93.2783 17.2445C93.3611 17.2445 93.6691 17.2382 93.6691 17.2382C94.1171 17.2196 94.5623 17.1553 94.9987 17.0462L95.9892 18.5439H98.7949L97.1074 15.992C98.3198 14.966 99.0068 13.362 99.0068 11.3408ZM93.2778 14.6906C91.3907 14.6906 90.3083 13.4819 90.3083 11.3764C90.3083 9.23674 91.3907 8.00948 93.2778 8.00948C95.1649 8.00948 96.2469 9.23674 96.2469 11.3764C96.2857 12.2052 96.0502 13.0223 95.5814 13.6851L94.5859 12.1796H91.7798L93.4375 14.6862C93.3844 14.6862 93.3327 14.6906 93.2778 14.6906V14.6906Z" fill="white"/>
    <path d="M126.837 9.99219H122.602V12.5232H125.99L126.837 9.99219Z" fill="white"/>
    <path d="M149.075 14.518V17.0344H140.494V5.66797H148.953V8.18533H143.041V10.036H148.286L147.016 12.5368H143.041V14.518H149.075Z" fill="white"/>
</svg>
