<svg width="155" height="95" viewBox="0 0 155 95" fill="none" xmlns="http://www.w3.org/2000/svg">
<path d="M54.8378 62.3585C58.4327 61.5814 58.6812 57.9064 58.6812 56.6171C58.6812 55.4784 57.9416 50.4961 52.3401 50.4961H41.8828V68.0819H46.1264V54.388H52.1886C52.755 54.4294 53.2847 54.6822 53.6712 55.0957C54.0578 55.5092 54.2727 56.0527 54.2727 56.6171C54.2727 57.1815 54.0578 57.725 53.6712 58.1385C53.2847 58.5519 52.755 58.8048 52.1886 58.8462H48.0178L54.2861 68.0819H59.2571L54.8378 62.3585Z" fill="#081E37"/>
<path d="M93.37 64.1719V68.0578H79.1602V50.4961H93.1639V54.388H83.3795V57.2497H92.0606L89.957 61.1114H83.3795V64.1719H93.37Z" fill="#081E37"/>
<path d="M76.3662 54.388H70.7102V68.0578H66.4908V54.388H60.8105V50.4961H76.3662V54.388Z" fill="#081E37"/>
<path d="M134.333 50.4961V68.0578H130.574L121.729 57.6413V68.0578H117.564V50.4961H121.329L130.168 60.9427V50.4961H134.333Z" fill="#081E37"/>
<path d="M104.446 68.3779C98.9899 68.161 95.6133 64.6727 95.6133 59.2687C95.6133 53.8646 98.996 50.4005 104.452 50.1836C104.452 50.1836 104.773 50.1836 105.137 50.1836C105.501 50.1836 105.743 50.1836 105.743 50.1836C111.199 50.4005 114.582 53.8767 114.582 59.2687C114.582 64.6607 111.199 68.161 105.743 68.3779H104.446ZM105.095 54.1177C101.973 54.1177 100.184 56.0094 100.184 59.3169C100.184 62.6244 102.003 64.4438 105.095 64.4438C108.186 64.4438 110.011 62.5762 110.011 59.3169C110.011 56.0576 108.223 54.1177 105.095 54.1177V54.1177Z" fill="#081E37"/>
<path d="M35.3912 68.0819H39.8105L32.7117 50.4961H27.7891L20.666 68.0819H25.1096L26.3221 64.8889H34.1423L35.3912 68.0819ZM27.8316 60.9789L30.2565 54.7133L32.6813 60.9789H27.8316Z" fill="#081E37"/>
<path d="M85.1743 43.2891H90.0543L86.4898 47.1448H82.4766L85.1743 43.2891Z" fill="#081E37"/>
<path d="M77.4988 0.605469L61.1914 9.96167V28.6801L77.4988 38.0363L93.8062 28.6801V9.96167L77.4988 0.605469ZM75.8317 6.29269V27.2221H63.9437L75.8317 6.29269ZM79.1477 27.2221V6.29269L91.0478 27.2221H79.1477Z" fill="#3760F4"/>
</svg>
