<svg width="182" height="44" viewBox="0 0 182 44" fill="none" xmlns="http://www.w3.org/2000/svg">
    <path d="M90.4123 25.6159C94.5503 24.7024 94.8303 20.3895 94.8303 18.881C94.8303 17.5425 93.9831 11.707 87.5276 11.707H75.5059V32.3013H80.365V16.289H87.3666C89.4671 16.289 89.7471 18.1728 89.7471 18.9023C89.7471 19.6317 89.4321 21.5155 87.3666 21.5155H82.5495L89.7682 32.3225H95.5025L90.4123 25.6159Z" fill="#081E37"/>
    <path d="M134.801 27.7405V32.3013H118.432V11.707H134.57V16.2678H123.291V19.6175H133.296L130.874 24.15H123.291V27.7405H134.801Z" fill="#081E37"/>
    <path d="M115.211 16.2678H108.693V32.3013H103.834V16.2678H97.2871V11.707H115.211V16.2678Z" fill="#081E37"/>
    <path d="M181.999 11.707V32.3013H177.665L167.485 20.0779V32.3013H162.682V11.707H167.016L177.203 23.9517V11.707H181.999Z" fill="#081E37"/>
    <path d="M147.565 32.6696C141.264 32.4147 137.385 28.3213 137.385 21.9901C137.385 15.6588 141.285 11.5867 147.572 11.3672C147.572 11.3672 147.943 11.3672 148.363 11.3672C148.783 11.3672 149.063 11.3672 149.063 11.3672C155.365 11.6221 159.244 15.7013 159.244 22.0255C159.244 28.3496 155.344 32.4501 149.063 32.705H148.314L147.565 32.6696ZM148.314 15.9492C144.715 15.9492 142.65 18.1729 142.65 22.0467C142.65 25.9205 144.715 28.0593 148.314 28.0593C151.913 28.0593 153.979 25.8639 153.979 22.0467C153.979 18.2296 151.934 15.9492 148.314 15.9492Z" fill="#081E37"/>
    <path d="M68.0001 32.3013H73.0902L64.9124 11.707H59.2411L51.0352 32.3013H56.1533L57.5537 28.5549H66.5787L68.0001 32.3013ZM59.2901 23.9942L62.0907 16.6502L64.8914 23.9942H59.2901Z" fill="#081E37"/>
    <path d="M125.365 3.25H130.98L126.877 7.76827H122.256L125.365 3.25Z" fill="#081E37"/>
    <path d="M18.8343 0L0 10.9982V33.0018L18.8343 44L37.6757 33.0018V10.9982L18.8343 0ZM16.9229 6.68534V31.2879H3.17873L16.9229 6.68534ZM20.7528 31.2879V6.68534L34.497 31.2879H20.7528Z" fill="#3760F4"/>
</svg>
