<svg width="320" height="257" viewBox="0 0 320 257" fill="none" xmlns="http://www.w3.org/2000/svg" opacity="0.3">
    <path d="M149 117L118 134V168L149 185L180 168V134L149 117Z"/>
    <path d="M118.25 167.852V134.148L149 117.285L179.75 134.148V167.852L149 184.715L118.25 167.852Z" stroke="white" stroke-opacity="0.35" stroke-width="0.5"/>
    <path d="M119 168L88 185V219L119 236L150 219V185L119 168Z"/>
    <path d="M88.25 218.852V185.148L119 168.285L149.75 185.148V218.852L119 235.715L88.25 218.852Z" stroke="white" stroke-opacity="0.35" stroke-width="0.5"/>
    <path d="M271 117L240 134V168L271 185L302 168V134L271 117Z"/>
    <path d="M240.25 167.852V134.148L271 117.285L301.75 134.148V167.852L271 184.715L240.25 167.852Z" stroke="white" stroke-opacity="0.35" stroke-width="0.5"/>
    <path d="M241 168L210 185V219L241 236L272 219V185L241 168Z"/>
    <path d="M210.25 218.852V185.148L241 168.285L271.75 185.148V218.852L241 235.715L210.25 218.852Z" stroke="white" stroke-opacity="0.35" stroke-width="0.5"/>
    <path d="M26.9996 117L-4 134V168L26.9996 185L58 168V134L26.9996 117Z"/>
    <path d="M-3.75 167.852V134.148L26.9996 117.285L57.75 134.148V167.852L26.9996 184.715L-3.75 167.852Z" stroke="white" stroke-opacity="0.35" stroke-width="0.5"/>
    <path d="M-4.00041 168L-35 185V219L-4.00041 236L27 219V185L-4.00041 168Z"/>
    <path d="M-34.75 218.852V185.148L-4.00041 168.285L26.75 185.148V218.852L-4.00041 235.715L-34.75 218.852Z" stroke="white" stroke-opacity="0.35" stroke-width="0.5"/>
    <path d="M210 117L179 134V168L210 185L241 168V134L210 117Z"/>
    <path d="M179.25 167.852V134.148L210 117.285L240.75 134.148V167.852L210 184.715L179.25 167.852Z" stroke="white" stroke-opacity="0.35" stroke-width="0.5"/>
    <path d="M180 168L149 185V219L180 236L211 219V185L180 168Z"/>
    <path d="M149.25 218.852V185.148L180 168.285L210.75 185.148V218.852L180 235.715L149.25 218.852Z" stroke="white" stroke-opacity="0.35" stroke-width="0.5"/>
    <path d="M333 117L302 134V168L333 185L364 168V134L333 117Z"/>
    <path d="M302.25 167.852V134.148L333 117.285L363.75 134.148V167.852L333 184.715L302.25 167.852Z" stroke="white" stroke-opacity="0.35" stroke-width="0.5"/>
    <path d="M302 168L271 185V219L302 236L333 219V185L302 168Z"/>
    <path d="M271.25 218.852V185.148L302 168.285L332.75 185.148V218.852L302 235.715L271.25 218.852Z" stroke="white" stroke-opacity="0.35" stroke-width="0.5"/>
    <path d="M87.9996 117L57 134V168L87.9996 185L119 168V134L87.9996 117Z"/>
    <path d="M57.25 167.852V134.148L87.9996 117.285L118.75 134.148V167.852L87.9996 184.715L57.25 167.852Z" stroke="white" stroke-opacity="0.35" stroke-width="0.5"/>
    <path d="M56.9996 168L26 185V219L56.9996 236L88 219V185L56.9996 168Z"/>
    <path d="M26.25 218.852V185.148L56.9996 168.285L87.75 185.148V218.852L56.9996 235.715L26.25 218.852Z" stroke="white" stroke-opacity="0.35" stroke-width="0.5"/>
    <path d="M149 15L118 31.9996V65.9996L149 83L180 65.9996V31.9996L149 15Z"/>
    <path d="M118.25 65.8516V32.1477L149 15.2851L179.75 32.1477V65.8516L149 82.7149L118.25 65.8516Z" stroke="white" stroke-opacity="0.35" stroke-width="0.5"/>
    <path d="M119 66L88 82.9996V117L119 134L150 117V82.9996L119 66Z"/>
    <path d="M88.25 116.852V83.1477L119 66.2851L149.75 83.1477V116.852L119 133.715L88.25 116.852Z" stroke="white" stroke-opacity="0.35" stroke-width="0.5"/>
    <path d="M271 15L240 31.9996V65.9996L271 83L302 65.9996V31.9996L271 15Z"/>
    <path d="M240.25 65.8516V32.1477L271 15.2851L301.75 32.1477V65.8516L271 82.7149L240.25 65.8516Z" stroke="white" stroke-opacity="0.35" stroke-width="0.5"/>
    <path d="M241 66L210 82.9996V117L241 134L272 117V82.9996L241 66Z"/>
    <path d="M210.25 116.852V83.1477L241 66.2851L271.75 83.1477V116.852L241 133.715L210.25 116.852Z" stroke="white" stroke-opacity="0.35" stroke-width="0.5"/>
    <path d="M26.9996 15L-4 31.9996V65.9996L26.9996 83L58 65.9996V31.9996L26.9996 15Z"/>
    <path d="M-3.75 65.8516V32.1477L26.9996 15.2851L57.75 32.1477V65.8516L26.9996 82.7149L-3.75 65.8516Z" stroke="white" stroke-opacity="0.35" stroke-width="0.5"/>
    <path d="M-4.00041 66L-35 82.9996V117L-4.00041 134L27 117V82.9996L-4.00041 66Z"/>
    <path d="M-34.75 116.852V83.1477L-4.00041 66.2851L26.75 83.1477V116.852L-4.00041 133.715L-34.75 116.852Z" stroke="white" stroke-opacity="0.35" stroke-width="0.5"/>
    <path d="M210 15L179 31.9996V65.9996L210 83L241 65.9996V31.9996L210 15Z"/>
    <path d="M179.25 65.8516V32.1477L210 15.2851L240.75 32.1477V65.8516L210 82.7149L179.25 65.8516Z" stroke="white" stroke-opacity="0.35" stroke-width="0.5"/>
    <path d="M180 66L149 82.9996V117L180 134L211 117V82.9996L180 66Z"/>
    <path d="M149.25 116.852V83.1477L180 66.2851L210.75 83.1477V116.852L180 133.715L149.25 116.852Z" stroke="white" stroke-opacity="0.35" stroke-width="0.5"/>
    <path d="M333 15L302 31.9996V65.9996L333 83L364 65.9996V31.9996L333 15Z"/>
    <path d="M302.25 65.8516V32.1477L333 15.2851L363.75 32.1477V65.8516L333 82.7149L302.25 65.8516Z" stroke="white" stroke-opacity="0.35" stroke-width="0.5"/>
    <path d="M302 66L271 82.9996V117L302 134L333 117V82.9996L302 66Z"/>
    <path d="M271.25 116.852V83.1477L302 66.2851L332.75 83.1477V116.852L302 133.715L271.25 116.852Z" stroke="white" stroke-opacity="0.35" stroke-width="0.5"/>
    <path d="M87.9996 15L57 31.9996V65.9996L87.9996 83L119 65.9996V31.9996L87.9996 15Z"/>
    <path d="M57.25 65.8516V32.1477L87.9996 15.2851L118.75 32.1477V65.8516L87.9996 82.7149L57.25 65.8516Z" stroke="white" stroke-opacity="0.35" stroke-width="0.5"/>
    <path d="M56.9996 66L26 82.9996V117L56.9996 134L88 117V82.9996L56.9996 66Z"/>
    <path d="M26.25 116.852V83.1477L56.9996 66.2851L87.75 83.1477V116.852L56.9996 133.715L26.25 116.852Z" stroke="white" stroke-opacity="0.35" stroke-width="0.5"/>
    <path d="M149 218L118 235V269L149 286L180 269V235L149 218Z"/>
    <path d="M118.25 268.852V235.148L149 218.285L179.75 235.148V268.852L149 285.715L118.25 268.852Z" stroke="white" stroke-opacity="0.35" stroke-width="0.5"/>
    <path d="M119 -36L88 -19.0004V14.9996L119 32L150 14.9996V-19.0004L119 -36Z"/>
    <path d="M88.25 14.8516V-18.8523L119 -35.7149L149.75 -18.8523V14.8516L119 31.7149L88.25 14.8516Z" stroke="white" stroke-opacity="0.35" stroke-width="0.5"/>
    <path d="M271 218L240 235V269L271 286L302 269V235L271 218Z"/>
    <path d="M240.25 268.852V235.148L271 218.285L301.75 235.148V268.852L271 285.715L240.25 268.852Z" stroke="white" stroke-opacity="0.35" stroke-width="0.5"/>
    <path d="M241 -36L210 -19.0004V14.9996L241 32L272 14.9996V-19.0004L241 -36Z"/>
    <path d="M210.25 14.8516V-18.8523L241 -35.7149L271.75 -18.8523V14.8516L241 31.7149L210.25 14.8516Z" stroke="white" stroke-opacity="0.35" stroke-width="0.5"/>
    <path d="M26.9996 218L-4 235V269L26.9996 286L58 269V235L26.9996 218Z"/>
    <path d="M-3.75 268.852V235.148L26.9996 218.285L57.75 235.148V268.852L26.9996 285.715L-3.75 268.852Z" stroke="white" stroke-opacity="0.35" stroke-width="0.5"/>
    <path d="M-4.00041 -36L-35 -19.0004V14.9996L-4.00041 32L27 14.9996V-19.0004L-4.00041 -36Z"/>
    <path d="M-34.75 14.8516V-18.8523L-4.00041 -35.7149L26.75 -18.8523V14.8516L-4.00041 31.7149L-34.75 14.8516Z" stroke="white" stroke-opacity="0.35" stroke-width="0.5"/>
    <path d="M210 218L179 235V269L210 286L241 269V235L210 218Z"/>
    <path d="M179.25 268.852V235.148L210 218.285L240.75 235.148V268.852L210 285.715L179.25 268.852Z" stroke="white" stroke-opacity="0.35" stroke-width="0.5"/>
    <path d="M180 -36L149 -19.0004V14.9996L180 32L211 14.9996V-19.0004L180 -36Z"/>
    <path d="M149.25 14.8516V-18.8523L180 -35.7149L210.75 -18.8523V14.8516L180 31.7149L149.25 14.8516Z" stroke="white" stroke-opacity="0.35" stroke-width="0.5"/>
    <path d="M333 218L302 235V269L333 286L364 269V235L333 218Z"/>
    <path d="M302.25 268.852V235.148L333 218.285L363.75 235.148V268.852L333 285.715L302.25 268.852Z" stroke="white" stroke-opacity="0.35" stroke-width="0.5"/>
    <path d="M302 -36L271 -19.0004V14.9996L302 32L333 14.9996V-19.0004L302 -36Z"/>
    <path d="M271.25 14.8516V-18.8523L302 -35.7149L332.75 -18.8523V14.8516L302 31.7149L271.25 14.8516Z" stroke="white" stroke-opacity="0.35" stroke-width="0.5"/>
    <path d="M87.9996 218L57 235V269L87.9996 286L119 269V235L87.9996 218Z"/>
    <path d="M57.25 268.852V235.148L87.9996 218.285L118.75 235.148V268.852L87.9996 285.715L57.25 268.852Z" stroke="white" stroke-opacity="0.35" stroke-width="0.5"/>
    <path d="M56.9996 -36L26 -19.0004V14.9996L56.9996 32L88 14.9996V-19.0004L56.9996 -36Z"/>
    <path d="M26.25 14.8516V-18.8523L56.9996 -35.7149L87.75 -18.8523V14.8516L56.9996 31.7149L26.25 14.8516Z" stroke="white" stroke-opacity="0.35" stroke-width="0.5"/>
</svg>
