<svg width="1440" height="172" viewBox="0 0 1440 172" fill="none" xmlns="http://www.w3.org/2000/svg" opacity="0.3">
    <path d="M8.26398 -27.3633L-31 -4.69427V40.6447L8.26398 63.3147L47.529 40.6447V-4.69427L8.26398 -27.3633Z" />
    <path d="M-30.75 40.5004V-4.54994L8.26398 -27.0746L47.279 -4.54993V40.5004L8.26398 63.026L-30.75 40.5004Z" stroke="white" stroke-opacity="0.35" stroke-width="0.5"/>
    <path d="M-30.736 39.6367L-70 62.3057V107.645L-30.736 130.315L8.52899 107.645V62.3057L-30.736 39.6367Z" />
    <path d="M-69.75 107.5V62.4501L-30.736 39.9254L8.27899 62.4501V107.5L-30.736 130.026L-69.75 107.5Z" stroke="white" stroke-opacity="0.35" stroke-width="0.5"/>
    <path d="M164.264 -27.3633L125 -4.69427V40.6447L164.264 63.3147L203.529 40.6447V-4.69427L164.264 -27.3633Z" />
    <path d="M125.25 40.5004V-4.54994L164.264 -27.0746L203.279 -4.54993V40.5004L164.264 63.026L125.25 40.5004Z" stroke="white" stroke-opacity="0.35" stroke-width="0.5"/>
    <path d="M164.264 -27.3633L125 -4.69427V40.6447L164.264 63.3147L203.529 40.6447V-4.69427L164.264 -27.3633Z" />
    <path d="M125.25 40.5004V-4.54994L164.264 -27.0746L203.279 -4.54993V40.5004L164.264 63.026L125.25 40.5004Z" stroke="white" stroke-opacity="0.35" stroke-width="0.5"/>
    <path d="M125.264 39.6367L86 62.3057V107.645L125.264 130.315L164.529 107.645V62.3057L125.264 39.6367Z" />
    <path d="M86.25 107.5V62.4501L125.264 39.9254L164.279 62.4501V107.5L125.264 130.026L86.25 107.5Z" stroke="white" stroke-opacity="0.35" stroke-width="0.5"/>
    <path d="M86.264 106.637L47 129.306V174.645L86.264 197.315L125.529 174.645V129.306L86.264 106.637Z" />
    <path d="M47.25 174.5V129.45L86.264 106.925L125.279 129.45V174.5L86.264 197.026L47.25 174.5Z" stroke="white" stroke-opacity="0.35" stroke-width="0.5"/>
    <path d="M320.264 -27.3633L281 -4.69427V40.6447L320.264 63.3147L359.529 40.6447V-4.69427L320.264 -27.3633Z" />
    <path d="M281.25 40.5004V-4.54994L320.264 -27.0746L359.279 -4.54993V40.5004L320.264 63.026L281.25 40.5004Z" stroke="white" stroke-opacity="0.35" stroke-width="0.5"/>
    <path d="M320.264 -27.3633L281 -4.69427V40.6447L320.264 63.3147L359.529 40.6447V-4.69427L320.264 -27.3633Z" />
    <path d="M281.25 40.5004V-4.54994L320.264 -27.0746L359.279 -4.54993V40.5004L320.264 63.026L281.25 40.5004Z" stroke="white" stroke-opacity="0.35" stroke-width="0.5"/>
    <path d="M281.264 39.6367L242 62.3057V107.645L281.264 130.315L320.529 107.645V62.3057L281.264 39.6367Z" />
    <path d="M242.25 107.5V62.4501L281.264 39.9254L320.279 62.4501V107.5L281.264 130.026L242.25 107.5Z" stroke="white" stroke-opacity="0.35" stroke-width="0.5"/>
    <path d="M242.264 106.637L203 129.306V174.645L242.264 197.315L281.529 174.645V129.306L242.264 106.637Z" />
    <path d="M203.25 174.5V129.45L242.264 106.925L281.279 129.45V174.5L242.264 197.026L203.25 174.5Z" stroke="white" stroke-opacity="0.35" stroke-width="0.5"/>
    <path d="M476.264 -27.3633L437 -4.69427V40.6447L476.264 63.3147L515.529 40.6447V-4.69427L476.264 -27.3633Z" />
    <path d="M437.25 40.5004V-4.54994L476.264 -27.0746L515.279 -4.54993V40.5004L476.264 63.026L437.25 40.5004Z" stroke="white" stroke-opacity="0.35" stroke-width="0.5"/>
    <path d="M476.264 -27.3633L437 -4.69427V40.6447L476.264 63.3147L515.529 40.6447V-4.69427L476.264 -27.3633Z" />
    <path d="M437.25 40.5004V-4.54994L476.264 -27.0746L515.279 -4.54993V40.5004L476.264 63.026L437.25 40.5004Z" stroke="white" stroke-opacity="0.35" stroke-width="0.5"/>
    <path d="M437.264 39.6367L398 62.3057V107.645L437.264 130.315L476.529 107.645V62.3057L437.264 39.6367Z" />
    <path d="M398.25 107.5V62.4501L437.264 39.9254L476.279 62.4501V107.5L437.264 130.026L398.25 107.5Z" stroke="white" stroke-opacity="0.35" stroke-width="0.5"/>
    <path d="M398.264 106.637L359 129.306V174.645L398.264 197.315L437.529 174.645V129.306L398.264 106.637Z" />
    <path d="M359.25 174.5V129.45L398.264 106.925L437.279 129.45V174.5L398.264 197.026L359.25 174.5Z" stroke="white" stroke-opacity="0.35" stroke-width="0.5"/>
    <path d="M632.264 -27.3633L593 -4.69427V40.6447L632.264 63.3147L671.529 40.6447V-4.69427L632.264 -27.3633Z" />
    <path d="M593.25 40.5004V-4.54994L632.264 -27.0746L671.279 -4.54993V40.5004L632.264 63.026L593.25 40.5004Z" stroke="white" stroke-opacity="0.35" stroke-width="0.5"/>
    <path d="M632.264 -27.3633L593 -4.69427V40.6447L632.264 63.3147L671.529 40.6447V-4.69427L632.264 -27.3633Z" />
    <path d="M593.25 40.5004V-4.54994L632.264 -27.0746L671.279 -4.54993V40.5004L632.264 63.026L593.25 40.5004Z" stroke="white" stroke-opacity="0.35" stroke-width="0.5"/>
    <path d="M593.264 39.6367L554 62.3057V107.645L593.264 130.315L632.529 107.645V62.3057L593.264 39.6367Z" />
    <path d="M554.25 107.5V62.4501L593.264 39.9254L632.279 62.4501V107.5L593.264 130.026L554.25 107.5Z" stroke="white" stroke-opacity="0.35" stroke-width="0.5"/>
    <path d="M554.264 106.637L515 129.306V174.645L554.264 197.315L593.529 174.645V129.306L554.264 106.637Z" />
    <path d="M515.25 174.5V129.45L554.264 106.925L593.279 129.45V174.5L554.264 197.026L515.25 174.5Z" stroke="white" stroke-opacity="0.35" stroke-width="0.5"/>
    <path d="M788.264 -27.3633L749 -4.69427V40.6447L788.264 63.3147L827.529 40.6447V-4.69427L788.264 -27.3633Z" />
    <path d="M749.25 40.5004V-4.54994L788.264 -27.0746L827.279 -4.54993V40.5004L788.264 63.026L749.25 40.5004Z" stroke="white" stroke-opacity="0.35" stroke-width="0.5"/>
    <path d="M788.264 -27.3633L749 -4.69427V40.6447L788.264 63.3147L827.529 40.6447V-4.69427L788.264 -27.3633Z" />
    <path d="M749.25 40.5004V-4.54994L788.264 -27.0746L827.279 -4.54993V40.5004L788.264 63.026L749.25 40.5004Z" stroke="white" stroke-opacity="0.35" stroke-width="0.5"/>
    <path d="M749.264 39.6367L710 62.3057V107.645L749.264 130.315L788.529 107.645V62.3057L749.264 39.6367Z" />
    <path d="M710.25 107.5V62.4501L749.264 39.9254L788.279 62.4501V107.5L749.264 130.026L710.25 107.5Z" stroke="white" stroke-opacity="0.35" stroke-width="0.5"/>
    <path d="M710.264 106.637L671 129.306V174.645L710.264 197.315L749.529 174.645V129.306L710.264 106.637Z" />
    <path d="M671.25 174.5V129.45L710.264 106.925L749.279 129.45V174.5L710.264 197.026L671.25 174.5Z" stroke="white" stroke-opacity="0.35" stroke-width="0.5"/>
    <path d="M944.264 -27.3633L905 -4.69427V40.6447L944.264 63.3147L983.529 40.6447V-4.69427L944.264 -27.3633Z" />
    <path d="M905.25 40.5004V-4.54994L944.264 -27.0746L983.279 -4.54993V40.5004L944.264 63.026L905.25 40.5004Z" stroke="white" stroke-opacity="0.35" stroke-width="0.5"/>
    <path d="M944.264 -27.3633L905 -4.69427V40.6447L944.264 63.3147L983.529 40.6447V-4.69427L944.264 -27.3633Z" />
    <path d="M905.25 40.5004V-4.54994L944.264 -27.0746L983.279 -4.54993V40.5004L944.264 63.026L905.25 40.5004Z" stroke="white" stroke-opacity="0.35" stroke-width="0.5"/>
    <path d="M905.264 39.6367L866 62.3057V107.645L905.264 130.315L944.529 107.645V62.3057L905.264 39.6367Z" />
    <path d="M866.25 107.5V62.4501L905.264 39.9254L944.279 62.4501V107.5L905.264 130.026L866.25 107.5Z" stroke="white" stroke-opacity="0.35" stroke-width="0.5"/>
    <path d="M866.264 106.637L827 129.306V174.645L866.264 197.315L905.529 174.645V129.306L866.264 106.637Z" />
    <path d="M827.25 174.5V129.45L866.264 106.925L905.279 129.45V174.5L866.264 197.026L827.25 174.5Z" stroke="white" stroke-opacity="0.35" stroke-width="0.5"/>
    <path d="M1100.26 -27.3633L1061 -4.69427V40.6447L1100.26 63.3147L1139.53 40.6447V-4.69427L1100.26 -27.3633Z" />
    <path d="M1061.25 40.5004V-4.54994L1100.26 -27.0746L1139.28 -4.54993V40.5004L1100.26 63.026L1061.25 40.5004Z" stroke="white" stroke-opacity="0.35" stroke-width="0.5"/>
    <path d="M1100.26 -27.3633L1061 -4.69427V40.6447L1100.26 63.3147L1139.53 40.6447V-4.69427L1100.26 -27.3633Z" />
    <path d="M1061.25 40.5004V-4.54994L1100.26 -27.0746L1139.28 -4.54993V40.5004L1100.26 63.026L1061.25 40.5004Z" stroke="white" stroke-opacity="0.35" stroke-width="0.5"/>
    <path d="M1061.26 39.6367L1022 62.3057V107.645L1061.26 130.315L1100.53 107.645V62.3057L1061.26 39.6367Z" />
    <path d="M1022.25 107.5V62.4501L1061.26 39.9254L1100.28 62.4501V107.5L1061.26 130.026L1022.25 107.5Z" stroke="white" stroke-opacity="0.35" stroke-width="0.5"/>
    <path d="M1022.26 106.637L983 129.306V174.645L1022.26 197.315L1061.53 174.645V129.306L1022.26 106.637Z" />
    <path d="M983.25 174.5V129.45L1022.26 106.925L1061.28 129.45V174.5L1022.26 197.026L983.25 174.5Z" stroke="white" stroke-opacity="0.35" stroke-width="0.5"/>
    <path d="M1256.26 -27.3633L1217 -4.69427V40.6447L1256.26 63.3147L1295.53 40.6447V-4.69427L1256.26 -27.3633Z" />
    <path d="M1217.25 40.5004V-4.54994L1256.26 -27.0746L1295.28 -4.54993V40.5004L1256.26 63.026L1217.25 40.5004Z" stroke="white" stroke-opacity="0.35" stroke-width="0.5"/>
    <path d="M1256.26 -27.3633L1217 -4.69427V40.6447L1256.26 63.3147L1295.53 40.6447V-4.69427L1256.26 -27.3633Z" />
    <path d="M1217.25 40.5004V-4.54994L1256.26 -27.0746L1295.28 -4.54993V40.5004L1256.26 63.026L1217.25 40.5004Z" stroke="white" stroke-opacity="0.35" stroke-width="0.5"/>
    <path d="M1217.26 39.6367L1178 62.3057V107.645L1217.26 130.315L1256.53 107.645V62.3057L1217.26 39.6367Z" />
    <path d="M1178.25 107.5V62.4501L1217.26 39.9254L1256.28 62.4501V107.5L1217.26 130.026L1178.25 107.5Z" stroke="white" stroke-opacity="0.35" stroke-width="0.5"/>
    <path d="M1178.26 106.637L1139 129.306V174.645L1178.26 197.315L1217.53 174.645V129.306L1178.26 106.637Z" />
    <path d="M1139.25 174.5V129.45L1178.26 106.925L1217.28 129.45V174.5L1178.26 197.026L1139.25 174.5Z" stroke="white" stroke-opacity="0.35" stroke-width="0.5"/>
    <path d="M1412.26 -27.3633L1373 -4.69427V40.6447L1412.26 63.3147L1451.53 40.6447V-4.69427L1412.26 -27.3633Z" />
    <path d="M1373.25 40.5004V-4.54994L1412.26 -27.0746L1451.28 -4.54993V40.5004L1412.26 63.026L1373.25 40.5004Z" stroke="white" stroke-opacity="0.35" stroke-width="0.5"/>
    <path d="M1412.26 -27.3633L1373 -4.69427V40.6447L1412.26 63.3147L1451.53 40.6447V-4.69427L1412.26 -27.3633Z" />
    <path d="M1373.25 40.5004V-4.54994L1412.26 -27.0746L1451.28 -4.54993V40.5004L1412.26 63.026L1373.25 40.5004Z" stroke="white" stroke-opacity="0.35" stroke-width="0.5"/>
    <path d="M1373.26 39.6367L1334 62.3057V107.645L1373.26 130.315L1412.53 107.645V62.3057L1373.26 39.6367Z" />
    <path d="M1334.25 107.5V62.4501L1373.26 39.9254L1412.28 62.4501V107.5L1373.26 130.026L1334.25 107.5Z" stroke="white" stroke-opacity="0.35" stroke-width="0.5"/>
    <path d="M1334.26 106.637L1295 129.306V174.645L1334.26 197.315L1373.53 174.645V129.306L1334.26 106.637Z" />
    <path d="M1295.25 174.5V129.45L1334.26 106.925L1373.28 129.45V174.5L1334.26 197.026L1295.25 174.5Z" stroke="white" stroke-opacity="0.35" stroke-width="0.5"/>
    <path d="M86.264 -27.3633L47 -4.69427V40.6447L86.264 63.3147L125.529 40.6447V-4.69427L86.264 -27.3633Z" />
    <path d="M47.25 40.5004V-4.54994L86.264 -27.0746L125.279 -4.54993V40.5004L86.264 63.026L47.25 40.5004Z" stroke="white" stroke-opacity="0.35" stroke-width="0.5"/>
    <path d="M86.264 -27.3633L47 -4.69427V40.6447L86.264 63.3147L125.529 40.6447V-4.69427L86.264 -27.3633Z" />
    <path d="M47.25 40.5004V-4.54994L86.264 -27.0746L125.279 -4.54993V40.5004L86.264 63.026L47.25 40.5004Z" stroke="white" stroke-opacity="0.35" stroke-width="0.5"/>
    <path d="M47.264 39.6367L8 62.3057V107.645L47.264 130.315L86.529 107.645V62.3057L47.264 39.6367Z" />
    <path d="M8.25 107.5V62.4501L47.264 39.9254L86.279 62.4501V107.5L47.264 130.026L8.25 107.5Z" stroke="white" stroke-opacity="0.35" stroke-width="0.5"/>
    <path d="M8.26398 106.637L-31 129.306V174.645L8.26398 197.315L47.529 174.645V129.306L8.26398 106.637Z" />
    <path d="M-30.75 174.5V129.45L8.26398 106.925L47.279 129.45V174.5L8.26398 197.026L-30.75 174.5Z" stroke="white" stroke-opacity="0.35" stroke-width="0.5"/>
    <path d="M242.264 -27.3633L203 -4.69427V40.6447L242.264 63.3147L281.529 40.6447V-4.69427L242.264 -27.3633Z" />
    <path d="M203.25 40.5004V-4.54994L242.264 -27.0746L281.279 -4.54993V40.5004L242.264 63.026L203.25 40.5004Z" stroke="white" stroke-opacity="0.35" stroke-width="0.5"/>
    <path d="M242.264 -27.3633L203 -4.69427V40.6447L242.264 63.3147L281.529 40.6447V-4.69427L242.264 -27.3633Z" />
    <path d="M203.25 40.5004V-4.54994L242.264 -27.0746L281.279 -4.54993V40.5004L242.264 63.026L203.25 40.5004Z" stroke="white" stroke-opacity="0.35" stroke-width="0.5"/>
    <path d="M203.264 39.6367L164 62.3057V107.645L203.264 130.315L242.529 107.645V62.3057L203.264 39.6367Z" />
    <path d="M164.25 107.5V62.4501L203.264 39.9254L242.279 62.4501V107.5L203.264 130.026L164.25 107.5Z" stroke="white" stroke-opacity="0.35" stroke-width="0.5"/>
    <path d="M164.264 106.637L125 129.306V174.645L164.264 197.315L203.529 174.645V129.306L164.264 106.637Z" />
    <path d="M125.25 174.5V129.45L164.264 106.925L203.279 129.45V174.5L164.264 197.026L125.25 174.5Z" stroke="white" stroke-opacity="0.35" stroke-width="0.5"/>
    <path d="M398.264 -27.3633L359 -4.69427V40.6447L398.264 63.3147L437.529 40.6447V-4.69427L398.264 -27.3633Z" />
    <path d="M359.25 40.5004V-4.54994L398.264 -27.0746L437.279 -4.54993V40.5004L398.264 63.026L359.25 40.5004Z" stroke="white" stroke-opacity="0.35" stroke-width="0.5"/>
    <path d="M398.264 -27.3633L359 -4.69427V40.6447L398.264 63.3147L437.529 40.6447V-4.69427L398.264 -27.3633Z" />
    <path d="M359.25 40.5004V-4.54994L398.264 -27.0746L437.279 -4.54993V40.5004L398.264 63.026L359.25 40.5004Z" stroke="white" stroke-opacity="0.35" stroke-width="0.5"/>
    <path d="M359.264 39.6367L320 62.3057V107.645L359.264 130.315L398.529 107.645V62.3057L359.264 39.6367Z" />
    <path d="M320.25 107.5V62.4501L359.264 39.9254L398.279 62.4501V107.5L359.264 130.026L320.25 107.5Z" stroke="white" stroke-opacity="0.35" stroke-width="0.5"/>
    <path d="M320.264 106.637L281 129.306V174.645L320.264 197.315L359.529 174.645V129.306L320.264 106.637Z" />
    <path d="M281.25 174.5V129.45L320.264 106.925L359.279 129.45V174.5L320.264 197.026L281.25 174.5Z" stroke="white" stroke-opacity="0.35" stroke-width="0.5"/>
    <path d="M554.264 -27.3633L515 -4.69427V40.6447L554.264 63.3147L593.529 40.6447V-4.69427L554.264 -27.3633Z" />
    <path d="M515.25 40.5004V-4.54994L554.264 -27.0746L593.279 -4.54993V40.5004L554.264 63.026L515.25 40.5004Z" stroke="white" stroke-opacity="0.35" stroke-width="0.5"/>
    <path d="M554.264 -27.3633L515 -4.69427V40.6447L554.264 63.3147L593.529 40.6447V-4.69427L554.264 -27.3633Z" />
    <path d="M515.25 40.5004V-4.54994L554.264 -27.0746L593.279 -4.54993V40.5004L554.264 63.026L515.25 40.5004Z" stroke="white" stroke-opacity="0.35" stroke-width="0.5"/>
    <path d="M515.264 39.6367L476 62.3057V107.645L515.264 130.315L554.529 107.645V62.3057L515.264 39.6367Z" />
    <path d="M476.25 107.5V62.4501L515.264 39.9254L554.279 62.4501V107.5L515.264 130.026L476.25 107.5Z" stroke="white" stroke-opacity="0.35" stroke-width="0.5"/>
    <path d="M476.264 106.637L437 129.306V174.645L476.264 197.315L515.529 174.645V129.306L476.264 106.637Z" />
    <path d="M437.25 174.5V129.45L476.264 106.925L515.279 129.45V174.5L476.264 197.026L437.25 174.5Z" stroke="white" stroke-opacity="0.35" stroke-width="0.5"/>
    <path d="M710.264 -27.3633L671 -4.69427V40.6447L710.264 63.3147L749.529 40.6447V-4.69427L710.264 -27.3633Z" />
    <path d="M671.25 40.5004V-4.54994L710.264 -27.0746L749.279 -4.54993V40.5004L710.264 63.026L671.25 40.5004Z" stroke="white" stroke-opacity="0.35" stroke-width="0.5"/>
    <path d="M710.264 -27.3633L671 -4.69427V40.6447L710.264 63.3147L749.529 40.6447V-4.69427L710.264 -27.3633Z" />
    <path d="M671.25 40.5004V-4.54994L710.264 -27.0746L749.279 -4.54993V40.5004L710.264 63.026L671.25 40.5004Z" stroke="white" stroke-opacity="0.35" stroke-width="0.5"/>
    <path d="M671.264 39.6367L632 62.3057V107.645L671.264 130.315L710.529 107.645V62.3057L671.264 39.6367Z" />
    <path d="M632.25 107.5V62.4501L671.264 39.9254L710.279 62.4501V107.5L671.264 130.026L632.25 107.5Z" stroke="white" stroke-opacity="0.35" stroke-width="0.5"/>
    <path d="M632.264 106.637L593 129.306V174.645L632.264 197.315L671.529 174.645V129.306L632.264 106.637Z" />
    <path d="M593.25 174.5V129.45L632.264 106.925L671.279 129.45V174.5L632.264 197.026L593.25 174.5Z" stroke="white" stroke-opacity="0.35" stroke-width="0.5"/>
    <path d="M866.264 -27.3633L827 -4.69427V40.6447L866.264 63.3147L905.529 40.6447V-4.69427L866.264 -27.3633Z" />
    <path d="M827.25 40.5004V-4.54994L866.264 -27.0746L905.279 -4.54993V40.5004L866.264 63.026L827.25 40.5004Z" stroke="white" stroke-opacity="0.35" stroke-width="0.5"/>
    <path d="M866.264 -27.3633L827 -4.69427V40.6447L866.264 63.3147L905.529 40.6447V-4.69427L866.264 -27.3633Z" />
    <path d="M827.25 40.5004V-4.54994L866.264 -27.0746L905.279 -4.54993V40.5004L866.264 63.026L827.25 40.5004Z" stroke="white" stroke-opacity="0.35" stroke-width="0.5"/>
    <path d="M827.264 39.6367L788 62.3057V107.645L827.264 130.315L866.529 107.645V62.3057L827.264 39.6367Z" />
    <path d="M788.25 107.5V62.4501L827.264 39.9254L866.279 62.4501V107.5L827.264 130.026L788.25 107.5Z" stroke="white" stroke-opacity="0.35" stroke-width="0.5"/>
    <path d="M788.264 106.637L749 129.306V174.645L788.264 197.315L827.529 174.645V129.306L788.264 106.637Z" />
    <path d="M749.25 174.5V129.45L788.264 106.925L827.279 129.45V174.5L788.264 197.026L749.25 174.5Z" stroke="white" stroke-opacity="0.35" stroke-width="0.5"/>
    <path d="M1022.26 -27.3633L983 -4.69427V40.6447L1022.26 63.3147L1061.53 40.6447V-4.69427L1022.26 -27.3633Z" />
    <path d="M983.25 40.5004V-4.54994L1022.26 -27.0746L1061.28 -4.54993V40.5004L1022.26 63.026L983.25 40.5004Z" stroke="white" stroke-opacity="0.35" stroke-width="0.5"/>
    <path d="M1022.26 -27.3633L983 -4.69427V40.6447L1022.26 63.3147L1061.53 40.6447V-4.69427L1022.26 -27.3633Z" />
    <path d="M983.25 40.5004V-4.54994L1022.26 -27.0746L1061.28 -4.54993V40.5004L1022.26 63.026L983.25 40.5004Z" stroke="white" stroke-opacity="0.35" stroke-width="0.5"/>
    <path d="M983.264 39.6367L944 62.3057V107.645L983.264 130.315L1022.53 107.645V62.3057L983.264 39.6367Z" />
    <path d="M944.25 107.5V62.4501L983.264 39.9254L1022.28 62.4501V107.5L983.264 130.026L944.25 107.5Z" stroke="white" stroke-opacity="0.35" stroke-width="0.5"/>
    <path d="M944.264 106.637L905 129.306V174.645L944.264 197.315L983.529 174.645V129.306L944.264 106.637Z" />
    <path d="M905.25 174.5V129.45L944.264 106.925L983.279 129.45V174.5L944.264 197.026L905.25 174.5Z" stroke="white" stroke-opacity="0.35" stroke-width="0.5"/>
    <path d="M1178.26 -27.3633L1139 -4.69427V40.6447L1178.26 63.3147L1217.53 40.6447V-4.69427L1178.26 -27.3633Z" />
    <path d="M1139.25 40.5004V-4.54994L1178.26 -27.0746L1217.28 -4.54993V40.5004L1178.26 63.026L1139.25 40.5004Z" stroke="white" stroke-opacity="0.35" stroke-width="0.5"/>
    <path d="M1178.26 -27.3633L1139 -4.69427V40.6447L1178.26 63.3147L1217.53 40.6447V-4.69427L1178.26 -27.3633Z" />
    <path d="M1139.25 40.5004V-4.54994L1178.26 -27.0746L1217.28 -4.54993V40.5004L1178.26 63.026L1139.25 40.5004Z" stroke="white" stroke-opacity="0.35" stroke-width="0.5"/>
    <path d="M1139.26 39.6367L1100 62.3057V107.645L1139.26 130.315L1178.53 107.645V62.3057L1139.26 39.6367Z" />
    <path d="M1100.25 107.5V62.4501L1139.26 39.9254L1178.28 62.4501V107.5L1139.26 130.026L1100.25 107.5Z" stroke="white" stroke-opacity="0.35" stroke-width="0.5"/>
    <path d="M1100.26 106.637L1061 129.306V174.645L1100.26 197.315L1139.53 174.645V129.306L1100.26 106.637Z" />
    <path d="M1061.25 174.5V129.45L1100.26 106.925L1139.28 129.45V174.5L1100.26 197.026L1061.25 174.5Z" stroke="white" stroke-opacity="0.35" stroke-width="0.5"/>
    <path d="M1334.26 -27.3633L1295 -4.69427V40.6447L1334.26 63.3147L1373.53 40.6447V-4.69427L1334.26 -27.3633Z" />
    <path d="M1295.25 40.5004V-4.54994L1334.26 -27.0746L1373.28 -4.54993V40.5004L1334.26 63.026L1295.25 40.5004Z" stroke="white" stroke-opacity="0.35" stroke-width="0.5"/>
    <path d="M1334.26 -27.3633L1295 -4.69427V40.6447L1334.26 63.3147L1373.53 40.6447V-4.69427L1334.26 -27.3633Z" />
    <path d="M1295.25 40.5004V-4.54994L1334.26 -27.0746L1373.28 -4.54993V40.5004L1334.26 63.026L1295.25 40.5004Z" stroke="white" stroke-opacity="0.35" stroke-width="0.5"/>
    <path d="M1295.26 39.6367L1256 62.3057V107.645L1295.26 130.315L1334.53 107.645V62.3057L1295.26 39.6367Z" />
    <path d="M1256.25 107.5V62.4501L1295.26 39.9254L1334.28 62.4501V107.5L1295.26 130.026L1256.25 107.5Z" stroke="white" stroke-opacity="0.35" stroke-width="0.5"/>
    <path d="M1256.26 106.637L1217 129.306V174.645L1256.26 197.315L1295.53 174.645V129.306L1256.26 106.637Z" />
    <path d="M1217.25 174.5V129.45L1256.26 106.925L1295.28 129.45V174.5L1256.26 197.026L1217.25 174.5Z" stroke="white" stroke-opacity="0.35" stroke-width="0.5"/>
    <path d="M1412.26 106.637L1373 129.306V174.645L1412.26 197.315L1451.53 174.645V129.306L1412.26 106.637Z" />
    <path d="M1373.25 174.5V129.45L1412.26 106.925L1451.28 129.45V174.5L1412.26 197.026L1373.25 174.5Z" stroke="white" stroke-opacity="0.35" stroke-width="0.5"/>
    <path d="M1451.26 39.6367L1412 62.3057V107.645L1451.26 130.315L1490.53 107.645V62.3057L1451.26 39.6367Z" />
    <path d="M1412.25 107.5V62.4501L1451.26 39.9254L1490.28 62.4501V107.5L1451.26 130.026L1412.25 107.5Z" stroke="white" stroke-opacity="0.35" stroke-width="0.5"/>
</svg>
