<svg width="768" height="170" viewBox="0 0 768 170" fill="none" xmlns="http://www.w3.org/2000/svg" opacity="0.3">
    <path d="M35.3093 -61L-4.00586 -38.331V7.008L35.3093 29.678L74.6255 7.008V-38.331L35.3093 -61Z" />
    <path d="M-3.75586 6.86356V-38.1866L35.3093 -60.7114L74.3755 -38.1866V6.86356L35.3093 29.3894L-3.75586 6.86356Z" stroke="white" stroke-opacity="0.35" stroke-width="0.5"/>
    <path d="M35.3093 -61L-4.00586 -38.331V7.008L35.3093 29.678L74.6255 7.008V-38.331L35.3093 -61Z" />
    <path d="M-3.75586 6.86356V-38.1866L35.3093 -60.7114L74.3755 -38.1866V6.86356L35.3093 29.3894L-3.75586 6.86356Z" stroke="white" stroke-opacity="0.35" stroke-width="0.5"/>
    <path d="M-3.74147 6L-43.0566 28.669V74.008L-3.74147 96.678L35.5747 74.008V28.669L-3.74147 6Z" />
    <path d="M-42.8066 73.8636V28.8134L-3.74147 6.28858L35.3247 28.8134V73.8636L-3.74147 96.3894L-42.8066 73.8636Z" stroke="white" stroke-opacity="0.35" stroke-width="0.5"/>
    <path d="M191.512 -61L152.197 -38.331V7.008L191.512 29.678L230.829 7.008V-38.331L191.512 -61Z" />
    <path d="M152.447 6.86356V-38.1866L191.512 -60.7114L230.579 -38.1866V6.86356L191.512 29.3894L152.447 6.86356Z" stroke="white" stroke-opacity="0.35" stroke-width="0.5"/>
    <path d="M191.512 -61L152.197 -38.331V7.008L191.512 29.678L230.829 7.008V-38.331L191.512 -61Z" />
    <path d="M152.447 6.86356V-38.1866L191.512 -60.7114L230.579 -38.1866V6.86356L191.512 29.3894L152.447 6.86356Z" stroke="white" stroke-opacity="0.35" stroke-width="0.5"/>
    <path d="M152.462 6L113.146 28.669V74.008L152.462 96.678L191.778 74.008V28.669L152.462 6Z" />
    <path d="M113.396 73.8636V28.8134L152.462 6.28858L191.528 28.8134V73.8636L152.462 96.3894L113.396 73.8636Z" stroke="white" stroke-opacity="0.35" stroke-width="0.5"/>
    <path d="M113.411 73L74.0957 95.669V141.008L113.411 163.678L152.727 141.008V95.669L113.411 73Z" />
    <path d="M74.3457 140.864V95.8134L113.411 73.2886L152.477 95.8134V140.864L113.411 163.389L74.3457 140.864Z" stroke="white" stroke-opacity="0.35" stroke-width="0.5"/>
    <path d="M347.718 -61L308.402 -38.331V7.008L347.718 29.678L387.034 7.008V-38.331L347.718 -61Z" />
    <path d="M308.652 6.86356V-38.1866L347.718 -60.7114L386.784 -38.1866V6.86356L347.718 29.3894L308.652 6.86356Z" stroke="white" stroke-opacity="0.35" stroke-width="0.5"/>
    <path d="M347.718 -61L308.402 -38.331V7.008L347.718 29.678L387.034 7.008V-38.331L347.718 -61Z" />
    <path d="M308.652 6.86356V-38.1866L347.718 -60.7114L386.784 -38.1866V6.86356L347.718 29.3894L308.652 6.86356Z" stroke="white" stroke-opacity="0.35" stroke-width="0.5"/>
    <path d="M308.667 6L269.352 28.669V74.008L308.667 96.678L347.983 74.008V28.669L308.667 6Z" />
    <path d="M269.602 73.8636V28.8134L308.667 6.28858L347.733 28.8134V73.8636L308.667 96.3894L269.602 73.8636Z" stroke="white" stroke-opacity="0.35" stroke-width="0.5"/>
    <path d="M269.616 73L230.301 95.669V141.008L269.616 163.678L308.932 141.008V95.669L269.616 73Z" />
    <path d="M230.551 140.864V95.8134L269.616 73.2886L308.682 95.8134V140.864L269.616 163.389L230.551 140.864Z" stroke="white" stroke-opacity="0.35" stroke-width="0.5"/>
    <path d="M503.921 -61L464.605 -38.331V7.008L503.921 29.678L543.237 7.008V-38.331L503.921 -61Z" />
    <path d="M464.855 6.86356V-38.1866L503.921 -60.7114L542.987 -38.1866V6.86356L503.921 29.3894L464.855 6.86356Z" stroke="white" stroke-opacity="0.35" stroke-width="0.5"/>
    <path d="M503.921 -61L464.605 -38.331V7.008L503.921 29.678L543.237 7.008V-38.331L503.921 -61Z" />
    <path d="M464.855 6.86356V-38.1866L503.921 -60.7114L542.987 -38.1866V6.86356L503.921 29.3894L464.855 6.86356Z" stroke="white" stroke-opacity="0.35" stroke-width="0.5"/>
    <path d="M464.87 6L425.555 28.669V74.008L464.87 96.678L504.186 74.008V28.669L464.87 6Z" />
    <path d="M425.805 73.8636V28.8134L464.87 6.28858L503.936 28.8134V73.8636L464.87 96.3894L425.805 73.8636Z" stroke="white" stroke-opacity="0.35" stroke-width="0.5"/>
    <path d="M425.819 73L386.504 95.669V141.008L425.819 163.678L465.135 141.008V95.669L425.819 73Z" />
    <path d="M386.754 140.864V95.8134L425.819 73.2886L464.885 95.8134V140.864L425.819 163.389L386.754 140.864Z" stroke="white" stroke-opacity="0.35" stroke-width="0.5"/>
    <path d="M660.124 -61L620.809 -38.331V7.008L660.124 29.678L699.44 7.008V-38.331L660.124 -61Z" />
    <path d="M621.059 6.86356V-38.1866L660.124 -60.7114L699.19 -38.1866V6.86356L660.124 29.3894L621.059 6.86356Z" stroke="white" stroke-opacity="0.35" stroke-width="0.5"/>
    <path d="M660.124 -61L620.809 -38.331V7.008L660.124 29.678L699.44 7.008V-38.331L660.124 -61Z" />
    <path d="M621.059 6.86356V-38.1866L660.124 -60.7114L699.19 -38.1866V6.86356L660.124 29.3894L621.059 6.86356Z" stroke="white" stroke-opacity="0.35" stroke-width="0.5"/>
    <path d="M621.073 6L581.758 28.669V74.008L621.073 96.678L660.389 74.008V28.669L621.073 6Z" />
    <path d="M582.008 73.8636V28.8134L621.073 6.28858L660.139 28.8134V73.8636L621.073 96.3894L582.008 73.8636Z" stroke="white" stroke-opacity="0.35" stroke-width="0.5"/>
    <path d="M582.022 73L542.707 95.669V141.008L582.022 163.678L621.338 141.008V95.669L582.022 73Z" />
    <path d="M542.957 140.864V95.8134L582.022 73.2886L621.088 95.8134V140.864L582.022 163.389L542.957 140.864Z" stroke="white" stroke-opacity="0.35" stroke-width="0.5"/>
    <path d="M777.276 6L737.961 28.669V74.008L777.276 96.678L816.592 74.008V28.669L777.276 6Z" />
    <path d="M738.211 73.8636V28.8134L777.276 6.28858L816.342 28.8134V73.8636L777.276 96.3894L738.211 73.8636Z" stroke="white" stroke-opacity="0.35" stroke-width="0.5"/>
    <path d="M738.225 73L698.91 95.669V141.008L738.225 163.678L777.542 141.008V95.669L738.225 73Z" />
    <path d="M699.16 140.864V95.8134L738.225 73.2886L777.292 95.8134V140.864L738.225 163.389L699.16 140.864Z" stroke="white" stroke-opacity="0.35" stroke-width="0.5"/>
    <path d="M113.411 -61L74.0957 -38.331V7.008L113.411 29.678L152.727 7.008V-38.331L113.411 -61Z" />
    <path d="M74.3457 6.86356V-38.1866L113.411 -60.7114L152.477 -38.1866V6.86356L113.411 29.3894L74.3457 6.86356Z" stroke="white" stroke-opacity="0.35" stroke-width="0.5"/>
    <path d="M113.411 -61L74.0957 -38.331V7.008L113.411 29.678L152.727 7.008V-38.331L113.411 -61Z" />
    <path d="M74.3457 6.86356V-38.1866L113.411 -60.7114L152.477 -38.1866V6.86356L113.411 29.3894L74.3457 6.86356Z" stroke="white" stroke-opacity="0.35" stroke-width="0.5"/>
    <path d="M74.3601 6L35.0449 28.669V74.008L74.3601 96.678L113.676 74.008V28.669L74.3601 6Z" />
    <path d="M35.2949 73.8636V28.8134L74.3601 6.28858L113.426 28.8134V73.8636L74.3601 96.3894L35.2949 73.8636Z" stroke="white" stroke-opacity="0.35" stroke-width="0.5"/>
    <path d="M35.3093 73L-4.00586 95.669V141.008L35.3093 163.678L74.6255 141.008V95.669L35.3093 73Z" />
    <path d="M-3.75586 140.864V95.8134L35.3093 73.2886L74.3755 95.8134V140.864L35.3093 163.389L-3.75586 140.864Z" stroke="white" stroke-opacity="0.35" stroke-width="0.5"/>
    <path d="M269.616 -61L230.301 -38.331V7.008L269.616 29.678L308.932 7.008V-38.331L269.616 -61Z" />
    <path d="M230.551 6.86356V-38.1866L269.616 -60.7114L308.682 -38.1866V6.86356L269.616 29.3894L230.551 6.86356Z" stroke="white" stroke-opacity="0.35" stroke-width="0.5"/>
    <path d="M269.616 -61L230.301 -38.331V7.008L269.616 29.678L308.932 7.008V-38.331L269.616 -61Z" />
    <path d="M230.551 6.86356V-38.1866L269.616 -60.7114L308.682 -38.1866V6.86356L269.616 29.3894L230.551 6.86356Z" stroke="white" stroke-opacity="0.35" stroke-width="0.5"/>
    <path d="M230.565 6L191.25 28.669V74.008L230.565 96.678L269.881 74.008V28.669L230.565 6Z" />
    <path d="M191.5 73.8636V28.8134L230.565 6.28858L269.631 28.8134V73.8636L230.565 96.3894L191.5 73.8636Z" stroke="white" stroke-opacity="0.35" stroke-width="0.5"/>
    <path d="M191.512 73L152.197 95.669V141.008L191.512 163.678L230.829 141.008V95.669L191.512 73Z" />
    <path d="M152.447 140.864V95.8134L191.512 73.2886L230.579 95.8134V140.864L191.512 163.389L152.447 140.864Z" stroke="white" stroke-opacity="0.35" stroke-width="0.5"/>
    <path d="M425.819 -61L386.504 -38.331V7.008L425.819 29.678L465.135 7.008V-38.331L425.819 -61Z" />
    <path d="M386.754 6.86356V-38.1866L425.819 -60.7114L464.885 -38.1866V6.86356L425.819 29.3894L386.754 6.86356Z" stroke="white" stroke-opacity="0.35" stroke-width="0.5"/>
    <path d="M425.819 -61L386.504 -38.331V7.008L425.819 29.678L465.135 7.008V-38.331L425.819 -61Z" />
    <path d="M386.754 6.86356V-38.1866L425.819 -60.7114L464.885 -38.1866V6.86356L425.819 29.3894L386.754 6.86356Z" stroke="white" stroke-opacity="0.35" stroke-width="0.5"/>
    <path d="M386.768 6L347.453 28.669V74.008L386.768 96.678L426.085 74.008V28.669L386.768 6Z" />
    <path d="M347.703 73.8636V28.8134L386.768 6.28858L425.835 28.8134V73.8636L386.768 96.3894L347.703 73.8636Z" stroke="white" stroke-opacity="0.35" stroke-width="0.5"/>
    <path d="M347.718 73L308.402 95.669V141.008L347.718 163.678L387.034 141.008V95.669L347.718 73Z" />
    <path d="M308.652 140.864V95.8134L347.718 73.2886L386.784 95.8134V140.864L347.718 163.389L308.652 140.864Z" stroke="white" stroke-opacity="0.35" stroke-width="0.5"/>
    <path d="M582.022 -61L542.707 -38.331V7.008L582.022 29.678L621.338 7.008V-38.331L582.022 -61Z" />
    <path d="M542.957 6.86356V-38.1866L582.022 -60.7114L621.088 -38.1866V6.86356L582.022 29.3894L542.957 6.86356Z" stroke="white" stroke-opacity="0.35" stroke-width="0.5"/>
    <path d="M582.022 -61L542.707 -38.331V7.008L582.022 29.678L621.338 7.008V-38.331L582.022 -61Z" />
    <path d="M542.957 6.86356V-38.1866L582.022 -60.7114L621.088 -38.1866V6.86356L582.022 29.3894L542.957 6.86356Z" stroke="white" stroke-opacity="0.35" stroke-width="0.5"/>
    <path d="M542.971 6L503.656 28.669V74.008L542.971 96.678L582.288 74.008V28.669L542.971 6Z" />
    <path d="M503.906 73.8636V28.8134L542.971 6.28858L582.038 28.8134V73.8636L542.971 96.3894L503.906 73.8636Z" stroke="white" stroke-opacity="0.35" stroke-width="0.5"/>
    <path d="M503.921 73L464.605 95.669V141.008L503.921 163.678L543.237 141.008V95.669L503.921 73Z" />
    <path d="M464.855 140.864V95.8134L503.921 73.2886L542.987 95.8134V140.864L503.921 163.389L464.855 140.864Z" stroke="white" stroke-opacity="0.35" stroke-width="0.5"/>
    <path d="M738.225 -61L698.91 -38.331V7.008L738.225 29.678L777.542 7.008V-38.331L738.225 -61Z" />
    <path d="M699.16 6.86356V-38.1866L738.225 -60.7114L777.292 -38.1866V6.86356L738.225 29.3894L699.16 6.86356Z" stroke="white" stroke-opacity="0.35" stroke-width="0.5"/>
    <path d="M738.225 -61L698.91 -38.331V7.008L738.225 29.678L777.542 7.008V-38.331L738.225 -61Z" />
    <path d="M699.16 6.86356V-38.1866L738.225 -60.7114L777.292 -38.1866V6.86356L738.225 29.3894L699.16 6.86356Z" stroke="white" stroke-opacity="0.35" stroke-width="0.5"/>
    <path d="M699.175 6L659.859 28.669V74.008L699.175 96.678L738.491 74.008V28.669L699.175 6Z" />
    <path d="M660.109 73.8636V28.8134L699.175 6.28858L738.241 28.8134V73.8636L699.175 96.3894L660.109 73.8636Z" stroke="white" stroke-opacity="0.35" stroke-width="0.5"/>
    <path d="M660.124 73L620.809 95.669V141.008L660.124 163.678L699.44 141.008V95.669L660.124 73Z" />
    <path d="M621.059 140.864V95.8134L660.124 73.2886L699.19 95.8134V140.864L660.124 163.389L621.059 140.864Z" stroke="white" stroke-opacity="0.35" stroke-width="0.5"/>
    <path d="M74.3601 140L35.0449 162.669V208.008L74.3601 230.678L113.676 208.008V162.669L74.3601 140Z" />
    <path d="M35.2949 207.864V162.813L74.3601 140.289L113.426 162.813V207.864L74.3601 230.389L35.2949 207.864Z" stroke="white" stroke-opacity="0.35" stroke-width="0.5"/>
    <path d="M230.565 140L191.25 162.669V208.008L230.565 230.678L269.881 208.008V162.669L230.565 140Z" />
    <path d="M191.5 207.864V162.813L230.565 140.289L269.631 162.813V207.864L230.565 230.389L191.5 207.864Z" stroke="white" stroke-opacity="0.35" stroke-width="0.5"/>
    <path d="M386.768 140L347.453 162.669V208.008L386.768 230.678L426.085 208.008V162.669L386.768 140Z" />
    <path d="M347.703 207.864V162.813L386.768 140.289L425.835 162.813V207.864L386.768 230.389L347.703 207.864Z" stroke="white" stroke-opacity="0.35" stroke-width="0.5"/>
    <path d="M542.971 140L503.656 162.669V208.008L542.971 230.678L582.288 208.008V162.669L542.971 140Z" />
    <path d="M503.906 207.864V162.813L542.971 140.289L582.038 162.813V207.864L542.971 230.389L503.906 207.864Z" stroke="white" stroke-opacity="0.35" stroke-width="0.5"/>
    <path d="M699.175 140L659.859 162.669V208.008L699.175 230.678L738.491 208.008V162.669L699.175 140Z" />
    <path d="M660.109 207.864V162.813L699.175 140.289L738.241 162.813V207.864L699.175 230.389L660.109 207.864Z" stroke="white" stroke-opacity="0.35" stroke-width="0.5"/>
    <path d="M-3.74147 140L-43.0566 162.669V208.008L-3.74147 230.678L35.5747 208.008V162.669L-3.74147 140Z" />
    <path d="M-42.8066 207.864V162.813L-3.74147 140.289L35.3247 162.813V207.864L-3.74147 230.389L-42.8066 207.864Z" stroke="white" stroke-opacity="0.35" stroke-width="0.5"/>
    <path d="M152.462 140L113.146 162.669V208.008L152.462 230.678L191.778 208.008V162.669L152.462 140Z" />
    <path d="M113.396 207.864V162.813L152.462 140.289L191.528 162.813V207.864L152.462 230.389L113.396 207.864Z" stroke="white" stroke-opacity="0.35" stroke-width="0.5"/>
    <path d="M308.667 140L269.352 162.669V208.008L308.667 230.678L347.983 208.008V162.669L308.667 140Z" />
    <path d="M269.602 207.864V162.813L308.667 140.289L347.733 162.813V207.864L308.667 230.389L269.602 207.864Z" stroke="white" stroke-opacity="0.35" stroke-width="0.5"/>
    <path d="M464.87 140L425.555 162.669V208.008L464.87 230.678L504.186 208.008V162.669L464.87 140Z" />
    <path d="M425.805 207.864V162.813L464.87 140.289L503.936 162.813V207.864L464.87 230.389L425.805 207.864Z" stroke="white" stroke-opacity="0.35" stroke-width="0.5"/>
    <path d="M621.073 140L581.758 162.669V208.008L621.073 230.678L660.389 208.008V162.669L621.073 140Z" />
    <path d="M582.008 207.864V162.813L621.073 140.289L660.139 162.813V207.864L621.073 230.389L582.008 207.864Z" stroke="white" stroke-opacity="0.35" stroke-width="0.5"/>
    <path d="M777.276 140L737.961 162.669V208.008L777.276 230.678L816.592 208.008V162.669L777.276 140Z" />
    <path d="M738.211 207.864V162.813L777.276 140.289L816.342 162.813V207.864L777.276 230.389L738.211 207.864Z" stroke="white" stroke-opacity="0.35" stroke-width="0.5"/>
</svg>
