<?xml version="1.0" encoding="utf-8"?>
<!-- Generator: Adobe Illustrator 27.0.1, SVG Export Plug-In . SVG Version: 6.00 Build 0)  -->
<svg version="1.1" id="Layer_1" xmlns="http://www.w3.org/2000/svg" xmlns:xlink="http://www.w3.org/1999/xlink" x="0px" y="0px"
	 viewBox="0 0 595.3 419.5" style="enable-background:new 0 0 595.3 419.5;" xml:space="preserve">
<style type="text/css">
	.st0{fill:#0F3348;}
	.st1{fill:#C91E2A;}
</style>
<g>
	<path class="st0" d="M148.1,187.4h-17.5v39.3h17.5c12.3,0,20.6-7.9,20.6-19.7C168.8,195.3,160.5,187.4,148.1,187.4z M147.6,218
		h-7.1v-21.8h7.1c6.9,0,11.2,4.2,11.2,11C158.8,213.8,154.5,218,147.6,218z"/>
	<path class="st0" d="M304.4,187.4h-17.5v39.3h17.5c12.3,0,20.6-7.9,20.6-19.7C325,195.3,316.7,187.4,304.4,187.4z M303.8,218h-7.1
		v-21.8h7.1c6.9,0,11.2,4.2,11.2,11C315,213.8,310.7,218,303.8,218z"/>
	<path class="st0" d="M386.2,196.2h15.5v-8.7h-16c-12.3,0-20.6,7.9-20.6,19.6c0,11.8,8.3,19.7,20.6,19.7h16v-23.6h-19.2v8.2h9.4v6.6
		h-5.6c-6.9,0-11.2-4.1-11.2-10.8C375,200.4,379.3,196.2,386.2,196.2z"/>
	<polygon class="st0" points="258.1,187.4 250.9,215.6 247,202.3 242.3,187.4 232.8,187.4 228.1,202.3 224.1,215.6 217,187.4 
		197.6,187.4 187.5,203.9 177.3,187.4 165.5,187.4 182.1,213.1 182.1,226.7 192,226.7 192,213 207.2,189.8 217.8,226.7 229.9,226.7 
		237.5,199.1 245.2,226.7 257.3,226.7 268.5,187.4 	"/>
	<rect x="271.1" y="187.4" class="st0" width="9.8" height="39.3"/>
	<path class="st0" d="M349.5,187.4h-10.2l-16,39.3h10.4l2.8-6.9h16.9l2.8,6.9h10.4l-16-39.3H349.5z M339.9,211.5l5.1-12.8l5.1,12.8
		H339.9z"/>
</g>
<g>
	<polygon class="st1" points="444.4,210.3 462.5,220.7 444.4,231.1 	"/>
	<polygon class="st1" points="446.2,207.1 464.3,196.6 464.3,217.5 	"/>
	<polygon class="st1" points="422.6,220.7 440.7,210.3 440.7,231.1 	"/>
	<polygon class="st1" points="420.8,192.4 420.8,169.4 462.5,193.5 442.6,205 	"/>
	<polygon class="st1" points="420.8,223.9 438.9,234.3 420.8,244.7 	"/>
</g>
<g>
	<path class="st0" d="M252.3,242.1c-0.1,1-0.4,1.7-1.1,2.3c-0.6,0.5-1.5,0.8-2.5,0.8c-1.1,0-2-0.4-2.7-1.1s-1-1.8-1-3.2v-0.5
		c0-0.9,0.1-1.6,0.5-2.3c0.3-0.7,0.7-1.1,1.3-1.5c0.6-0.3,1.2-0.5,1.9-0.5c1,0,1.8,0.3,2.5,0.8c0.6,0.5,1,1.3,1.1,2.3h-1.8
		c0-0.6-0.2-1-0.5-1.2s-0.7-0.4-1.3-0.4c-0.6,0-1.1,0.2-1.4,0.7c-0.3,0.4-0.5,1.1-0.5,2v0.7c0,1,0.1,1.7,0.4,2.1
		c0.3,0.4,0.7,0.7,1.4,0.7c0.6,0,1-0.1,1.3-0.4s0.4-0.7,0.5-1.2H252.3z"/>
	<path class="st0" d="M260.8,240.8c0,0.9-0.2,1.6-0.5,2.3c-0.3,0.7-0.8,1.2-1.3,1.5c-0.6,0.4-1.2,0.5-2,0.5c-0.7,0-1.4-0.2-2-0.5
		s-1-0.9-1.3-1.5c-0.3-0.7-0.5-1.4-0.5-2.3v-0.4c0-0.9,0.2-1.6,0.5-2.3c0.3-0.7,0.8-1.2,1.3-1.5c0.6-0.4,1.2-0.5,2-0.5
		c0.7,0,1.4,0.2,2,0.5s1,0.9,1.3,1.5c0.3,0.7,0.5,1.4,0.5,2.3V240.8z M258.9,240.4c0-0.9-0.2-1.6-0.5-2.1c-0.3-0.5-0.8-0.7-1.4-0.7
		c-0.6,0-1.1,0.2-1.4,0.7s-0.5,1.2-0.5,2.1v0.4c0,0.9,0.2,1.6,0.5,2.1c0.3,0.5,0.8,0.7,1.4,0.7c0.6,0,1.1-0.2,1.4-0.7
		c0.3-0.5,0.5-1.2,0.5-2.1V240.4z"/>
	<path class="st0" d="M269.3,245h-1.8l-3.6-5.8v5.8h-1.8v-8.9h1.8l3.6,5.8v-5.8h1.8V245z"/>
	<path class="st0" d="M277.9,242.1c-0.1,1-0.4,1.7-1.1,2.3c-0.6,0.5-1.5,0.8-2.5,0.8c-1.1,0-2-0.4-2.7-1.1s-1-1.8-1-3.2v-0.5
		c0-0.9,0.1-1.6,0.5-2.3c0.3-0.7,0.7-1.1,1.3-1.5c0.6-0.3,1.2-0.5,1.9-0.5c1,0,1.8,0.3,2.5,0.8c0.6,0.5,1,1.3,1.1,2.3h-1.8
		c0-0.6-0.2-1-0.5-1.2s-0.7-0.4-1.3-0.4c-0.6,0-1.1,0.2-1.4,0.7c-0.3,0.4-0.5,1.1-0.5,2v0.7c0,1,0.1,1.7,0.4,2.1
		c0.3,0.4,0.7,0.7,1.4,0.7c0.6,0,1-0.1,1.3-0.4s0.4-0.7,0.5-1.2H277.9z"/>
	<path class="st0" d="M282.4,241.8h-1.5v3.2h-1.8v-8.9h3.3c1,0,1.9,0.2,2.4,0.7c0.6,0.5,0.9,1.1,0.9,2c0,0.6-0.1,1.1-0.4,1.5
		c-0.3,0.4-0.7,0.7-1.2,1l1.9,3.6v0.1h-2L282.4,241.8z M280.9,240.3h1.5c0.5,0,0.8-0.1,1.1-0.3c0.3-0.2,0.4-0.6,0.4-1
		c0-0.4-0.1-0.7-0.4-1c-0.2-0.2-0.6-0.4-1.1-0.4h-1.5V240.3z"/>
	<path class="st0" d="M292.4,241.2h-3.5v2.4h4.1v1.5H287v-8.9h5.9v1.5h-4.1v2.1h3.5V241.2z"/>
	<path class="st0" d="M300.9,237.6h-2.7v7.4h-1.8v-7.4h-2.7v-1.5h7.2V237.6z"/>
	<path class="st0" d="M307.2,241.2h-3.5v2.4h4.1v1.5h-5.9v-8.9h5.9v1.5h-4.1v2.1h3.5V241.2z"/>
	<path class="st0" d="M318.7,237.6H316v7.4h-1.8v-7.4h-2.7v-1.5h7.2V237.6z"/>
	<path class="st0" d="M325.1,241.2h-3.5v2.4h4.1v1.5h-5.9v-8.9h5.9v1.5h-4.1v2.1h3.5V241.2z"/>
	<path class="st0" d="M333.7,242.1c-0.1,1-0.4,1.7-1.1,2.3c-0.6,0.5-1.5,0.8-2.5,0.8c-1.1,0-2-0.4-2.7-1.1c-0.7-0.8-1-1.8-1-3.2
		v-0.5c0-0.9,0.2-1.6,0.5-2.3c0.3-0.7,0.7-1.1,1.3-1.5c0.6-0.3,1.2-0.5,1.9-0.5c1,0,1.8,0.3,2.5,0.8c0.6,0.5,1,1.3,1.1,2.3h-1.8
		c0-0.6-0.2-1-0.5-1.2c-0.3-0.3-0.7-0.4-1.3-0.4c-0.6,0-1.1,0.2-1.4,0.7c-0.3,0.4-0.5,1.1-0.5,2v0.7c0,1,0.1,1.7,0.4,2.1
		c0.3,0.4,0.7,0.7,1.4,0.7c0.6,0,1-0.1,1.3-0.4s0.4-0.7,0.5-1.2H333.7z"/>
	<path class="st0" d="M342.1,245h-1.8v-3.8h-3.6v3.8h-1.8v-8.9h1.8v3.6h3.6v-3.6h1.8V245z"/>
	<path class="st0" d="M350.9,245h-1.8l-3.6-5.8v5.8h-1.8v-8.9h1.8l3.6,5.8v-5.8h1.8V245z"/>
	<path class="st0" d="M359.8,240.8c0,0.9-0.2,1.6-0.5,2.3c-0.3,0.7-0.8,1.2-1.3,1.5c-0.6,0.4-1.2,0.5-2,0.5c-0.7,0-1.4-0.2-2-0.5
		c-0.6-0.4-1-0.9-1.3-1.5c-0.3-0.7-0.5-1.4-0.5-2.3v-0.4c0-0.9,0.2-1.6,0.5-2.3c0.3-0.7,0.8-1.2,1.3-1.5s1.2-0.5,2-0.5
		s1.4,0.2,2,0.5c0.6,0.4,1,0.9,1.3,1.5c0.3,0.7,0.5,1.4,0.5,2.3V240.8z M358,240.4c0-0.9-0.2-1.6-0.5-2.1c-0.3-0.5-0.8-0.7-1.4-0.7
		c-0.6,0-1.1,0.2-1.4,0.7s-0.5,1.2-0.5,2.1v0.4c0,0.9,0.2,1.6,0.5,2.1c0.3,0.5,0.8,0.7,1.4,0.7c0.6,0,1.1-0.2,1.4-0.7
		c0.3-0.5,0.5-1.2,0.5-2.1V240.4z"/>
	<path class="st0" d="M363,243.6h3.9v1.5h-5.7v-8.9h1.8V243.6z"/>
	<path class="st0" d="M374.8,240.8c0,0.9-0.2,1.6-0.5,2.3c-0.3,0.7-0.8,1.2-1.3,1.5c-0.6,0.4-1.2,0.5-2,0.5c-0.7,0-1.4-0.2-2-0.5
		c-0.6-0.4-1-0.9-1.3-1.5c-0.3-0.7-0.5-1.4-0.5-2.3v-0.4c0-0.9,0.2-1.6,0.5-2.3c0.3-0.7,0.8-1.2,1.3-1.5s1.2-0.5,2-0.5
		s1.4,0.2,2,0.5c0.6,0.4,1,0.9,1.3,1.5c0.3,0.7,0.5,1.4,0.5,2.3V240.8z M373,240.4c0-0.9-0.2-1.6-0.5-2.1c-0.3-0.5-0.8-0.7-1.4-0.7
		c-0.6,0-1.1,0.2-1.4,0.7s-0.5,1.2-0.5,2.1v0.4c0,0.9,0.2,1.6,0.5,2.1c0.3,0.5,0.8,0.7,1.4,0.7c0.6,0,1.1-0.2,1.4-0.7
		c0.3-0.5,0.5-1.2,0.5-2.1V240.4z"/>
	<path class="st0" d="M383.1,243.9c-0.3,0.4-0.8,0.7-1.4,0.9c-0.6,0.2-1.3,0.3-2,0.3c-0.8,0-1.4-0.2-2-0.5c-0.6-0.3-1-0.8-1.3-1.5
		c-0.3-0.6-0.5-1.4-0.5-2.2v-0.6c0-0.9,0.1-1.7,0.4-2.3s0.7-1.1,1.3-1.5c0.6-0.3,1.2-0.5,2-0.5c1.1,0,1.9,0.3,2.5,0.8
		c0.6,0.5,0.9,1.2,1.1,2.2h-1.8c-0.1-0.5-0.3-0.9-0.5-1.1c-0.3-0.2-0.7-0.4-1.1-0.4c-0.6,0-1.1,0.2-1.4,0.7
		c-0.3,0.5-0.5,1.2-0.5,2.1v0.6c0,0.9,0.2,1.6,0.5,2.1c0.4,0.5,0.9,0.7,1.6,0.7c0.7,0,1.2-0.1,1.5-0.4v-1.5h-1.7v-1.3h3.5V243.9z"/>
	<path class="st0" d="M386.6,245h-1.8v-8.9h1.8V245z"/>
	<path class="st0" d="M393.6,241.2h-3.5v2.4h4.1v1.5h-5.9v-8.9h5.9v1.5h-4.1v2.1h3.5V241.2z"/>
	<path class="st0" d="M399.9,242.7c0-0.3-0.1-0.6-0.4-0.8c-0.2-0.2-0.7-0.4-1.3-0.6s-1.1-0.4-1.5-0.6c-1-0.5-1.5-1.3-1.5-2.2
		c0-0.5,0.1-0.9,0.4-1.3c0.3-0.4,0.7-0.7,1.2-0.9c0.5-0.2,1.1-0.3,1.7-0.3c0.6,0,1.2,0.1,1.7,0.3s0.9,0.6,1.2,1
		c0.3,0.4,0.4,0.9,0.4,1.4h-1.8c0-0.4-0.1-0.7-0.4-0.9s-0.6-0.3-1.1-0.3c-0.4,0-0.8,0.1-1,0.3s-0.4,0.4-0.4,0.7
		c0,0.3,0.1,0.5,0.4,0.7c0.3,0.2,0.7,0.4,1.3,0.5c1,0.3,1.8,0.7,2.3,1.2c0.5,0.5,0.7,1,0.7,1.7c0,0.8-0.3,1.4-0.9,1.8
		s-1.4,0.7-2.3,0.7c-0.7,0-1.3-0.1-1.9-0.4s-1-0.6-1.3-1c-0.3-0.4-0.4-0.9-0.4-1.5h1.8c0,1,0.6,1.5,1.8,1.5c0.4,0,0.8-0.1,1-0.3
		C399.8,243.3,399.9,243,399.9,242.7z"/>
</g>
</svg>
