<svg width="206" height="43" viewBox="0 0 206 43" fill="none" xmlns="http://www.w3.org/2000/svg">
    <path d="M108.078 33.0514C112.17 32.1586 112.451 27.9461 112.451 26.47C112.451 25.1664 111.61 19.457 105.23 19.457H93.3398V39.5851H98.1437V23.9118H105.087C107.131 23.9118 107.445 25.7581 107.445 26.4665C107.445 27.1749 107.131 29.0212 105.087 29.0212H100.303L107.445 39.5803H113.109L108.078 33.0514Z" fill="#081E37"/>
    <path d="M187.041 35.1282V39.5851H170.854V19.457H186.81V23.9146H175.657V27.1922H185.552L183.156 31.62H175.657V35.1282H187.041Z" fill="#081E37"/>
    <path d="M159.629 23.9146H153.183V39.5851H148.379V23.9146H141.904V19.457H159.629V23.9146Z" fill="#081E37"/>
    <path d="M167.3 19.457H162.496V39.5851H167.3V19.457Z" fill="#081E37"/>
    <path d="M139.293 39.5851H134.576V25.7256L130.208 39.5851H124.972L120.603 25.7256V39.5851H115.887V19.457H122.848L127.59 33.911L132.332 19.457H139.293V39.5851Z" fill="#081E37"/>
    <path d="M54.9515 24.0679V23.9146H67.2998V19.457H50.1484V39.5851H54.9515V32.2532H64.8686V27.8246H54.9515V24.0679Z" fill="#081E37"/>
    <path d="M78.9934 39.9475C72.784 39.7003 68.9258 35.6998 68.9258 29.5072C68.9258 23.3325 72.784 19.343 78.9955 19.0958C78.9955 19.0958 79.365 19.082 79.778 19.082C80.1911 19.082 80.4687 19.0958 80.4687 19.0958C86.6802 19.343 90.5391 23.3325 90.5391 29.5072C90.5391 35.6998 86.6802 39.7003 80.4694 39.9475C80.4694 39.9475 79.8872 39.9586 79.7318 39.9586C79.5763 39.9586 78.9934 39.9475 78.9934 39.9475ZM79.7331 23.6038C76.1733 23.6038 74.1316 25.7773 74.1316 29.5666C74.1316 33.2991 76.1733 35.4395 79.7331 35.4395C83.293 35.4395 85.334 33.2991 85.334 29.5666C85.334 25.7773 83.2923 23.6038 79.7331 23.6038Z" fill="#081E37"/>
    <path d="M201.917 28.1454C200.677 27.7177 199.407 27.3812 198.118 27.1388C197.161 26.9887 196.225 26.7283 195.328 26.3627C195.112 26.2802 194.925 26.1348 194.791 25.9452C194.658 25.7556 194.584 25.5304 194.58 25.2987C194.58 23.8715 196.284 23.9371 197.282 23.9371H204.711V19.4609H198.054C190.348 19.4609 189.316 23.1618 189.316 25.6343C189.316 30.0055 193.865 31.006 196.031 31.5238C196.952 31.7351 200.678 32.159 200.678 33.7236C200.678 35.1694 199.102 35.1577 198.202 35.1577H190.001V39.5862H198.03C205.904 39.5862 206.001 34.9885 206.001 33.6484C206.001 29.9772 202.99 28.5287 201.917 28.1454Z" fill="#081E37"/>
    <path d="M54.8293 3.08203H50.1484V13.5721H54.8293C58.1308 13.5721 60.3487 11.4614 60.3487 8.3198C60.3487 5.17824 58.1308 3.08203 54.8293 3.08203ZM54.6829 11.2383H52.7772V5.41576H54.6829C55.0798 5.37994 55.4797 5.43077 55.8551 5.56473C56.2304 5.6987 56.5721 5.9126 56.8565 6.19163C57.141 6.47066 57.3614 6.80815 57.5025 7.18074C57.6435 7.55333 57.7019 7.95212 57.6736 8.34949C57.6736 10.1309 56.5284 11.2383 54.6829 11.2383Z" fill="#081E37"/>
    <path d="M96.5976 3.08203H91.916V13.5721H96.5976C99.8984 13.5721 102.117 11.4614 102.117 8.3198C102.117 5.17824 99.8984 3.08203 96.5976 3.08203ZM96.4504 11.2383H94.5448V5.41576H96.4504C96.8475 5.37962 97.2477 5.43021 97.6233 5.56403C97.9989 5.69785 98.3408 5.91171 98.6255 6.19077C98.9102 6.46984 99.1308 6.80744 99.272 7.18019C99.4132 7.55294 99.4716 7.95193 99.4432 8.34949C99.4432 10.1309 98.2967 11.2383 96.4504 11.2383Z" fill="#081E37"/>
    <path d="M118.482 5.41576H122.619V3.08203H118.337C115.036 3.08203 112.818 5.18722 112.818 8.3198C112.818 11.4524 115.036 13.5721 118.337 13.5721H122.619V7.27653H117.474V9.46319H119.991V11.2383H118.482C116.637 11.2383 115.489 10.1336 115.489 8.34949C115.461 7.95193 115.519 7.55294 115.661 7.18019C115.802 6.80744 116.022 6.46984 116.307 6.19077C116.592 5.91171 116.934 5.69785 117.309 5.56403C117.685 5.43021 118.085 5.37962 118.482 5.41576Z" fill="#081E37"/>
    <path d="M84.2201 3.08203L82.3138 10.6135L81.2653 7.04937L79.9972 3.08203H77.461L76.1935 7.04937L75.145 10.6135L73.2387 3.08203H68.0481L65.3399 7.48505L62.6179 3.08203H59.4766L63.9081 9.93822V13.5721H66.5514V9.92372L70.6279 3.69861L73.4397 13.5721H76.6846L78.7291 6.19666L80.7742 13.5721H84.0184L87.0064 3.08203H84.2201Z" fill="#081E37"/>
    <path d="M90.3261 3.08203H87.6973V13.5721H90.3261V3.08203Z" fill="#081E37"/>
    <path d="M108.673 3.08203H105.952L101.678 13.5721H104.47L105.207 11.7369H109.738L110.474 13.5741H113.266L108.992 3.08203H108.673ZM106.101 9.50324L107.473 6.07859L108.844 9.50324H106.101Z" fill="#081E37"/>
    <path d="M9.78305 29.1882L18.7642 34.3907V24.3025H29.3042V18.6975H18.7642V8.60925L9.78305 13.8118V18.6975H0V10.7503L18.6261 0L37.2521 10.7503V32.2497L18.6261 43L0 32.2497V24.3025H9.78305V29.1882Z" fill="#F15E22"/>
</svg>
