<svg width="155" height="95" viewBox="0 0 155 95" fill="none" xmlns="http://www.w3.org/2000/svg">
<path d="M60.5603 76.2854C64.1516 75.5091 64.397 71.8467 64.397 70.5624C64.397 69.4295 63.66 64.4648 58.0613 64.4648H47.627V81.9675H51.8419V68.3386H57.9352C59.7287 68.3386 60.0045 69.9446 60.0045 70.56C60.0045 71.1754 59.7287 72.7815 57.9352 72.7815H53.7366L60.0045 81.9639H64.9747L60.5603 76.2854Z" fill="#081E37"/>
<path d="M129.853 78.0959V81.9714H115.648V64.4688H129.652V68.3443H119.864V71.1949H128.547L126.445 75.0447H119.864V78.0959H129.853Z" fill="#081E37"/>
<path d="M105.8 68.3443H100.143V81.9714H95.9285V68.3443H90.2461V64.4688H105.8V68.3443Z" fill="#081E37"/>
<path d="M112.53 64.4688H108.314V81.9714H112.53V64.4688Z" fill="#081E37"/>
<path d="M87.9529 81.9714H83.8131V69.9197L79.9794 81.9714H75.3856L71.5519 69.9197V81.9714H67.4121V64.4688H73.5206L77.6822 77.0374L81.8444 64.4688H87.9529V81.9714Z" fill="#081E37"/>
<path d="M13.9402 68.4782V68.3443H24.7758V64.4688H9.72461V81.9714H13.9402V75.5952H22.6422V71.7443H13.9402V68.4782Z" fill="#081E37"/>
<path d="M35.0385 82.2839C29.5889 82.0695 26.2031 78.5909 26.2031 73.2059C26.2031 67.8366 29.5889 64.3676 35.0397 64.1526C35.0397 64.1526 35.364 64.1406 35.7265 64.1406C36.0889 64.1406 36.3326 64.1526 36.3326 64.1526C41.784 64.3676 45.1698 67.8366 45.1698 73.2059C45.1698 78.5909 41.784 82.0695 36.3332 82.2839C36.3332 82.2839 35.8222 82.2935 35.6859 82.2935C35.5495 82.2935 35.0385 82.2839 35.0385 82.2839ZM35.6871 68.0726C32.5631 68.0726 30.7721 69.9626 30.7721 73.2576C30.7721 76.5027 32.5631 78.3639 35.6871 78.3639C38.811 78.3639 40.6021 76.5027 40.6021 73.2576C40.6021 69.9626 38.811 68.0726 35.6871 68.0726Z" fill="#081E37"/>
<path d="M142.908 72.0238C141.819 71.652 140.705 71.3596 139.574 71.149C138.734 71.0185 137.912 70.7918 137.125 70.4736C136.935 70.4019 136.771 70.2755 136.654 70.1106C136.537 69.9457 136.472 69.7499 136.469 69.5484C136.469 68.308 137.964 68.3644 138.839 68.3644H145.359V64.4727H139.518C132.756 64.4727 131.85 67.6902 131.85 69.8408C131.85 73.6418 135.841 74.5118 137.742 74.9615C138.551 75.1452 141.82 75.5145 141.82 76.8744C141.82 78.1322 140.438 78.122 139.647 78.122H132.451V81.9729H139.495C146.404 81.9729 146.489 77.9749 146.489 76.8095C146.492 73.6142 143.85 72.3552 142.908 72.0238Z" fill="#081E37"/>
<path d="M50.8858 50.2227H46.8027V59.2979H50.8858C53.7658 59.2979 55.7004 57.4711 55.7004 54.7537C55.7004 52.0363 53.7658 50.2227 50.8858 50.2227ZM50.7575 57.2788H49.0958V52.2412H50.7575C51.1039 52.2098 51.453 52.2535 51.7806 52.3692C52.1083 52.4849 52.4066 52.6699 52.655 52.9113C52.9034 53.1526 53.0959 53.4447 53.2191 53.7672C53.3424 54.0896 53.3934 54.4348 53.3687 54.7788C53.3687 56.3206 52.3692 57.2782 50.7575 57.2782V57.2788Z" fill="#081E37"/>
<path d="M87.32 50.2227H83.2363V59.2979H87.32C90.1994 59.2979 92.134 57.4711 92.134 54.7537C92.134 52.0363 90.1994 50.2227 87.32 50.2227ZM87.1929 57.2782H85.5306V52.2412H87.1929C87.5393 52.2098 87.8883 52.2535 88.216 52.3692C88.5436 52.4849 88.8419 52.6699 89.0902 52.9113C89.3386 53.1527 89.531 53.4447 89.6542 53.7672C89.7773 54.0897 89.8283 54.4349 89.8035 54.7788C89.8023 56.3206 88.8022 57.2782 87.1929 57.2782Z" fill="#081E37"/>
<path d="M106.409 52.2412H110.018V50.2227H106.283C103.403 50.2227 101.469 52.0434 101.469 54.7543C101.469 57.4652 103.403 59.2985 106.283 59.2985H110.018V53.8511H105.53V55.743H107.725V57.2782H106.409C104.799 57.2782 103.799 56.3224 103.799 54.7788C103.774 54.4349 103.825 54.0897 103.948 53.7673C104.071 53.4449 104.264 53.1529 104.512 52.9115C104.76 52.6701 105.059 52.4852 105.386 52.3694C105.714 52.2537 106.063 52.2099 106.409 52.2412Z" fill="#081E37"/>
<path d="M76.5233 50.2227L74.8598 56.7388L73.9458 53.6551L72.8396 50.2227H70.6273L69.5217 53.6551L68.6071 56.7388L66.9442 50.2227H62.4164L60.054 54.0321L57.6796 50.2227H54.9395L58.8051 56.1545V59.2985H61.1108V56.142L64.6668 50.7555L67.1195 59.2985H69.95L71.7334 52.9168L73.5174 59.2985H76.3474L78.9537 50.2227H76.5233Z" fill="#081E37"/>
<path d="M81.8497 50.2227H79.5566V59.2985H81.8497V50.2227Z" fill="#081E37"/>
<path d="M97.8567 50.2227H95.4847L91.7559 59.2985H94.1912L94.8334 57.7089H98.7858L99.4274 59.2985H101.863L98.1315 50.2227H97.8567ZM95.613 55.7782L96.8096 52.8152L98.0062 55.7782H95.613Z" fill="#081E37"/>
<path d="M70.461 26.0711L78.2273 30.6101V21.8085H87.343V16.9183H78.2273V8.11673L70.461 12.6558V16.9183H62V9.98475L78.1078 0.605469L94.2157 9.98475V28.7421L78.1078 38.1214L62 28.7421V21.8085H70.461V26.0711Z" fill="#F15E22"/>
</svg>
