<svg width="211" height="45" viewBox="0 0 211 45" fill="none" xmlns="http://www.w3.org/2000/svg">
    <path d="M91.4373 27.7333V32.2944H75.3047V11.6953H91.2075V16.2573H80.0923V19.6119H89.953L87.5661 24.1429H80.0923V27.7333H91.4373Z" fill="#081E37"/>
    <path d="M172.259 16.2573H165.834V32.2944H161.047V16.2573H154.594V11.6953H172.259V16.2573Z" fill="#081E37"/>
    <path d="M211 27.7333L208.612 32.2944H194.902V11.6953H199.69V27.7333H211Z" fill="#081E37"/>
    <path d="M104.488 27.735C103.738 27.7602 102.991 27.6305 102.292 27.3535C101.592 27.0765 100.954 26.6579 100.415 26.1226C99.8759 25.5873 99.4474 24.9462 99.1547 24.2374C98.8621 23.5287 98.7113 22.7668 98.7113 21.997C98.7113 21.2272 98.8621 20.4653 99.1547 19.7565C99.4474 19.0478 99.8759 18.4067 100.415 17.8713C100.954 17.336 101.592 16.9174 102.292 16.6404C102.991 16.3634 103.738 16.2337 104.488 16.259H111.299V11.697H104.488C102.6 11.6648 100.732 12.0988 99.0411 12.9627C97.4749 13.7698 96.1667 15.0207 95.2714 16.5672C94.3784 18.23 93.9102 20.0978 93.9102 21.9965C93.9102 23.8952 94.3784 25.763 95.2714 27.4258C96.1659 28.973 97.4743 30.2241 99.0411 31.0304C100.732 31.8942 102.6 32.3283 104.488 32.2961H111.299V27.735H104.488Z" fill="#081E37"/>
    <path d="M123.058 32.6685C116.869 32.4159 113.023 28.3212 113.023 21.9812C113.023 15.6625 116.869 11.5801 123.059 11.3266C123.059 11.3266 123.427 11.3125 123.839 11.3125C124.251 11.3125 124.528 11.3266 124.528 11.3266C130.723 11.5801 134.564 15.6625 134.564 21.9812C134.564 28.3185 130.719 32.4133 124.529 32.6685C124.529 32.6685 123.949 32.68 123.794 32.68C123.639 32.68 123.058 32.6685 123.058 32.6685ZM123.795 15.9434C120.247 15.9434 118.212 18.1674 118.212 22.0448C118.212 25.8649 120.247 28.0553 123.795 28.0553C127.342 28.0553 129.376 25.8649 129.376 22.0448C129.376 18.1638 127.342 15.9398 123.795 15.9398V15.9434Z" fill="#081E37"/>
    <path d="M187.822 32.2944H192.839L184.781 11.6953H179.188L171.1 32.2944H176.144L177.538 28.5468H186.417L187.822 32.2944ZM179.239 23.9857L181.971 16.6397L184.717 23.9857H179.239Z" fill="#081E37"/>
    <path d="M67.0814 25.6026C71.1599 24.6893 71.4387 20.3781 71.4387 18.8678C71.4387 17.5341 70.6015 11.6914 64.2427 11.6914H52.3926V32.2896H57.1802V16.256H64.0999C64.7395 16.31 65.3358 16.609 65.7706 17.0935C66.2054 17.578 66.4468 18.2126 66.4468 18.8713C66.4468 19.53 66.2054 20.1647 65.7706 20.6492C65.3358 21.1337 64.7395 21.4326 64.0999 21.4866H59.3321L66.4506 32.2932H72.0978L67.0814 25.6026Z" fill="#081E37"/>
    <path d="M149.315 20.5826C148.079 20.1447 146.813 19.8004 145.529 19.5527C144.575 19.3989 143.642 19.1321 142.748 18.7578C142.532 18.6733 142.345 18.5245 142.212 18.3304C142.08 18.1363 142.007 17.9059 142.002 17.6687C142.002 16.2087 143.7 16.2758 144.695 16.2758H152.095V11.6953H145.461C137.78 11.6953 136.752 15.4818 136.752 18.0123C136.752 22.4868 141.285 23.5096 143.445 24.0396C144.362 24.256 148.076 24.6897 148.076 26.291C148.076 27.7713 146.505 27.759 145.607 27.759H137.433V32.2909H145.435C153.283 32.2909 153.378 27.5858 153.378 26.2124C153.362 24.955 152.961 23.7348 152.231 22.7245C151.502 21.7142 150.482 20.9649 149.315 20.5826Z" fill="#081E37"/>
    <path d="M18.5634 0L0 11.0017V33.0043L18.5634 44.0052L25.86 39.6808L18.424 35.2743V22.6712L24.8309 18.8732L18.5616 15.1574L12.1581 18.9527V31.554L6.63925 28.2834V15.6777L18.5616 8.61167L30.4849 15.6777V22.0697L18.837 28.9723L31.3824 36.4084L37.1259 33.0043V11.0017L18.5634 0Z" fill="#3760F4"/>
</svg>
