<svg width="155" height="95" viewBox="0 0 155 95" fill="none" xmlns="http://www.w3.org/2000/svg">
<path d="M42.3161 63.5621V67.4473H28.0957V49.8984H42.1141V53.7848H32.3152V56.6424H41.0079L38.9036 60.5029H32.3152V63.5621H42.3161Z" fill="#081E37"/>
<path d="M113.563 53.7848H107.9V67.4473H103.681V53.7848H97.9922V49.8984H113.563V53.7848Z" fill="#081E37"/>
<path d="M147.706 63.5621L145.602 67.4473H133.518V49.8984H137.737V63.5621H147.706Z" fill="#081E37"/>
<path d="M53.8263 63.5596C53.1633 63.5849 52.5019 63.4772 51.8818 63.2429C51.2617 63.0086 50.6957 62.6526 50.2176 62.1962C49.7394 61.7397 49.3591 61.1922 49.0993 60.5865C48.8395 59.9808 48.7056 59.3293 48.7056 58.671C48.7056 58.0127 48.8395 57.3612 49.0993 56.7554C49.3591 56.1497 49.7394 55.6022 50.2176 55.1458C50.6957 54.6893 51.2617 54.3333 51.8818 54.099C52.5019 53.8647 53.1633 53.757 53.8263 53.7823H59.8304V49.8959H53.8263C52.1619 49.8686 50.5152 50.2384 49.0249 50.9741C47.6443 51.6613 46.4912 52.7268 45.7022 54.0442C44.9149 55.4607 44.502 57.0519 44.502 58.6695C44.502 60.287 44.9149 61.8783 45.7022 63.2948C46.491 64.6123 47.6442 65.6778 49.0249 66.3649C50.5153 67.1004 52.1619 67.4699 53.8263 67.4424H59.8304V63.5572L53.8263 63.5596Z" fill="#081E37"/>
<path d="M70.1907 67.7621C64.7358 67.5466 61.3457 64.0587 61.3457 58.6596C61.3457 53.2767 64.7358 49.7985 70.1919 49.583C70.1919 49.583 70.5165 49.5703 70.88 49.5703C71.2435 49.5703 71.4868 49.583 71.4868 49.583C76.9441 49.7985 80.3336 53.2767 80.3336 58.6596C80.3336 64.0587 76.9441 67.5466 71.4874 67.7621C71.4874 67.7621 70.9765 67.7717 70.8393 67.7717C70.7022 67.7717 70.1907 67.7621 70.1907 67.7621ZM70.8399 53.5133C67.7132 53.5133 65.9196 55.4077 65.9196 58.7113C65.9196 61.9656 67.7132 63.8318 70.8399 63.8318C73.9667 63.8318 75.7609 61.9656 75.7609 58.7113C75.7609 55.4077 73.9673 53.5133 70.8399 53.5133Z" fill="#081E37"/>
<path d="M127.28 67.4473H131.702L124.599 49.8984H119.671L112.543 67.4473H116.99L118.219 64.2568H126.046L127.28 67.4473ZM119.714 60.3692L122.123 54.1087L124.543 60.3692H119.714Z" fill="#081E37"/>
<path d="M20.8498 61.7508C24.4449 60.9724 24.6907 57.2998 24.6907 56.0127C24.6907 54.8762 23.9528 49.8984 18.348 49.8984H7.90234V67.4473H12.1225V53.7824H18.2218C20.0179 53.7824 20.294 55.3921 20.294 56.0097C20.294 56.6273 20.0179 58.237 18.2218 58.237H14.0193L20.294 67.4431H25.2695L20.8498 61.7508Z" fill="#081E37"/>
<path d="M93.3396 57.4734C92.2501 57.1008 91.1347 56.8075 90.0023 56.5957C89.1616 56.465 88.3389 56.2379 87.5509 55.9191C87.3606 55.8472 87.1964 55.7205 87.0794 55.5551C86.9623 55.3898 86.8979 55.1935 86.8944 54.9915C86.8944 53.7478 88.3907 53.8044 89.2669 53.8044H95.794V49.9023H89.9459C83.1767 49.9023 82.2695 53.1283 82.2695 55.284C82.2695 59.0958 86.2652 59.9674 88.1692 60.4189C88.9781 60.6031 92.251 60.9727 92.251 62.3368C92.251 63.5979 90.867 63.5877 90.0751 63.5877H82.8709V67.4482H89.9246C96.8419 67.4482 96.9275 63.4402 96.9275 62.2712C96.9275 59.0705 94.2825 57.8075 93.3396 57.4734Z" fill="#081E37"/>
<path d="M77.8044 0L61.4414 9.3722V28.1172L77.8044 37.4894L84.2362 33.8053L77.6812 30.0514V19.3139L83.3291 16.0788L77.8032 12.9136L72.1583 16.1469V26.8825L67.2932 24.0954V13.3561L77.8032 7.33691L88.3125 13.3561V18.8022L78.0459 24.6823L89.1044 31.0175L94.1673 28.1172V9.3722L77.8044 0Z" fill="#3760F4"/>
</svg>
