<svg width="89" height="24" viewBox="0 0 89 24" fill="none" xmlns="http://www.w3.org/2000/svg">
    <path d="M0 18.0002V6.00024L9.30359 0L18.6067 6.00024V18.0002L9.30359 24L0 18.0002Z" fill="#EC1C24"/>
    <path d="M78.1017 14.7184V17.1012H69.8672V6.33984H77.9849V8.7231H72.3109V10.4756H77.3446L76.1258 12.8427H72.3109V14.7184H78.1017Z" fill="white"/>
    <path d="M68.4035 8.7231H65.1244V17.1012H62.6807V8.7231H59.3867V6.33984H68.4035V8.7231Z" fill="white"/>
    <path d="M31.2409 14.7193C30.8583 14.7325 30.4771 14.6647 30.12 14.52C29.7628 14.3753 29.437 14.1566 29.162 13.8769C28.8869 13.5973 28.6682 13.2624 28.5188 12.8921C28.3694 12.5218 28.2924 12.1238 28.2924 11.7216C28.2924 11.3195 28.3694 10.9214 28.5188 10.5512C28.6682 10.1809 28.8869 9.84597 29.162 9.56631C29.437 9.28665 29.7628 9.06797 30.12 8.92326C30.4771 8.77856 30.8583 8.71079 31.2409 8.72398H34.7176V6.34072H31.2409C30.2771 6.32389 29.3237 6.55066 28.4608 7.00193C27.6613 7.42359 26.9936 8.07708 26.5366 8.88502C26.0808 9.7537 25.8418 10.7295 25.8418 11.7214C25.8418 12.7133 26.0808 13.6891 26.5366 14.5578C26.9932 15.366 27.661 16.0196 28.4608 16.4409C29.3237 16.8921 30.2771 17.1189 31.2409 17.1021H34.7176V14.7193H31.2409Z" fill="white"/>
    <path d="M84.9035 14.7193C84.5209 14.7325 84.1397 14.6647 83.7825 14.52C83.4254 14.3753 83.0996 14.1566 82.8245 13.8769C82.5495 13.5973 82.3307 13.2624 82.1813 12.8921C82.032 12.5218 81.955 12.1238 81.955 11.7216C81.955 11.3195 82.032 10.9214 82.1813 10.5512C82.3307 10.1809 82.5495 9.84598 82.8245 9.56632C83.0996 9.28666 83.4254 9.06798 83.7825 8.92327C84.1397 8.77856 84.5209 8.71079 84.9035 8.72399H88.3801V6.34072H84.9035C83.9397 6.32384 82.9862 6.55061 82.1233 7.00194C81.3238 7.42347 80.656 8.07699 80.1992 8.88502C79.7431 9.75361 79.5039 10.7294 79.5039 11.7214C79.5039 12.7134 79.7431 13.6892 80.1992 14.5578C80.6556 15.3661 81.3235 16.0198 82.1233 16.4409C82.9862 16.8922 83.9397 17.119 84.9035 17.1021H88.3801V14.7193H84.9035Z" fill="white"/>
    <path d="M40.9227 17.2974C37.7636 17.1654 35.8008 15.0263 35.8008 11.7142C35.8008 8.41313 37.7636 6.28043 40.9232 6.148C40.9232 6.148 41.1111 6.14062 41.3215 6.14062C41.5319 6.14062 41.6729 6.148 41.6729 6.148C44.8329 6.28043 46.7957 8.41313 46.7957 11.7142C46.7957 15.0249 44.8329 17.1641 41.6733 17.2974C41.6733 17.2974 41.3773 17.3034 41.2983 17.3034C41.2192 17.3034 40.9227 17.2974 40.9227 17.2974ZM41.2987 8.55987C39.4879 8.55987 38.4492 9.72173 38.4492 11.7474C38.4492 13.7431 39.4879 14.8874 41.2987 14.8874C43.1095 14.8874 44.1478 13.7431 44.1478 11.7474C44.1478 9.71989 43.1095 8.55802 41.2987 8.55802V8.55987Z" fill="white"/>
    <path d="M57.9901 6.33984V17.1012H55.8099L50.6858 10.7165V17.1012H48.2715V6.33984H50.4517L55.5758 12.7403V6.33984H57.9901Z" fill="white"/>
    <path d="M15.0968 14.0508C14.8883 14.0508 14.6846 14.1182 14.5113 14.2444C14.338 14.3706 14.2029 14.5501 14.1232 14.76C14.0434 14.97 14.0226 15.201 14.0632 15.4238C14.1039 15.6467 14.2042 15.8514 14.3516 16.0121C14.499 16.1727 14.6868 16.2822 14.8912 16.3265C15.0956 16.3708 15.3075 16.3481 15.5 16.2611C15.6926 16.1742 15.8572 16.0269 15.973 15.838C16.0887 15.649 16.1506 15.4269 16.1506 15.1997C16.1502 14.8951 16.0391 14.6031 15.8415 14.3877C15.644 14.1723 15.3761 14.0512 15.0968 14.0508Z" fill="white"/>
    <path d="M4.28574 13.1406C3.91292 13.1405 3.54845 13.261 3.23842 13.4867C2.92839 13.7125 2.68673 14.0334 2.544 14.4089C2.40126 14.7844 2.36388 15.1976 2.43656 15.5962C2.50924 15.9949 2.68873 16.3611 2.95232 16.6486C3.21591 16.936 3.55176 17.1318 3.91741 17.2111C4.28306 17.2904 4.66208 17.2498 5.00652 17.0942C5.35097 16.9387 5.64537 16.6753 5.85251 16.3374C6.05964 15.9994 6.1702 15.6021 6.1702 15.1956C6.16962 14.6509 5.97091 14.1286 5.61764 13.7434C5.26438 13.3582 4.78539 13.1414 4.28574 13.1406Z" fill="white"/>
    <path d="M4.28574 6.74609C3.91292 6.746 3.54845 6.86645 3.23842 7.09219C2.92839 7.31794 2.68673 7.63885 2.544 8.01434C2.40126 8.38984 2.36388 8.80305 2.43656 9.20171C2.50924 9.60037 2.68873 9.96658 2.95232 10.254C3.21591 10.5415 3.55176 10.7372 3.91741 10.8166C4.28306 10.8959 4.66208 10.8552 5.00652 10.6997C5.35097 10.5442 5.64537 10.2808 5.85251 9.94284C6.05964 9.60488 6.1702 9.20756 6.1702 8.8011C6.16962 8.25636 5.97091 7.7341 5.61764 7.34887C5.26438 6.96363 4.78539 6.74686 4.28574 6.74609Z" fill="white"/>
    <path d="M15.0968 7.65625C14.8883 7.65625 14.6846 7.72363 14.5113 7.84987C14.338 7.97612 14.2029 8.15554 14.1232 8.36547C14.0434 8.57541 14.0226 8.80641 14.0632 9.02927C14.1039 9.25213 14.2042 9.45685 14.3516 9.61752C14.499 9.7782 14.6868 9.88763 14.8912 9.93196C15.0956 9.97629 15.3075 9.95353 15.5 9.86657C15.6926 9.77961 15.8572 9.63236 15.973 9.44342C16.0887 9.25449 16.1506 9.03237 16.1506 8.80514C16.1502 8.50056 16.0391 8.20855 15.8415 7.99318C15.644 7.7778 15.3761 7.65663 15.0968 7.65625Z" fill="white"/>
    <path d="M9.81612 16.957C9.50867 16.957 9.20813 17.0564 8.9525 17.2427C8.69687 17.4289 8.49763 17.6936 8.37999 18.0033C8.26236 18.313 8.23161 18.6537 8.29162 18.9825C8.35163 19.3112 8.49972 19.6132 8.71715 19.8502C8.93458 20.0872 9.21158 20.2485 9.51313 20.3139C9.81469 20.3792 10.1273 20.3456 10.4113 20.2172C10.6953 20.0889 10.938 19.8716 11.1088 19.5929C11.2795 19.3141 11.3706 18.9864 11.3705 18.6512C11.3699 18.202 11.206 17.7714 10.9146 17.4538C10.6232 17.1362 10.2282 16.9575 9.81612 16.957Z" fill="white"/>
    <path d="M9.81505 10.3047C9.5075 10.3046 9.20681 10.4039 8.95105 10.5902C8.69529 10.7764 8.49594 11.0411 8.3782 11.3509C8.26046 11.6607 8.22964 12.0016 8.28962 12.3304C8.3496 12.6593 8.49769 12.9614 8.71516 13.1985C8.93264 13.4356 9.20973 13.5971 9.51138 13.6624C9.81303 13.7278 10.1257 13.6942 10.4098 13.5659C10.694 13.4375 10.9368 13.2202 11.1076 12.9413C11.2784 12.6625 11.3695 12.3347 11.3695 11.9994C11.3689 11.5501 11.2049 11.1194 10.9135 10.8018C10.6222 10.4841 10.2271 10.3053 9.81505 10.3047Z" fill="white"/>
    <path d="M9.81505 3.64844C9.5075 3.64834 9.20681 3.74768 8.95105 3.93391C8.69529 4.12014 8.49594 4.38489 8.3782 4.69466C8.26046 5.00443 8.22964 5.3453 8.28962 5.67418C8.3496 6.00305 8.49769 6.30514 8.71516 6.54224C8.93264 6.77934 9.20973 6.9408 9.51138 7.0062C9.81303 7.07159 10.1257 7.03798 10.4098 6.90961C10.694 6.78125 10.9368 6.56391 11.1076 6.28507C11.2784 6.00623 11.3695 5.67842 11.3695 5.34311C11.3689 4.89385 11.2049 4.46318 10.9135 4.1455C10.6222 3.82783 10.2271 3.64907 9.81505 3.64844Z" fill="white"/>
</svg>
