<svg width="171" height="43" viewBox="0 0 171 43" fill="none" xmlns="http://www.w3.org/2000/svg">
    <path d="M0 32.6913V10.8974L18.443 0L36.8851 10.8974V32.6913L18.443 43.5878L0 32.6913Z" fill="#EC1C24"/>
    <path d="M150.993 27.4758V31.9936H134.965V11.5898H150.765V16.1086H139.721V19.4313H149.519L147.147 23.9194H139.721V27.4758H150.993Z" fill="#081E37"/>
    <path d="M132.117 16.1086H125.734V31.9936H120.978V16.1086H114.566V11.5898H132.117V16.1086Z" fill="#081E37"/>
    <path d="M59.7804 27.4774C59.0358 27.5024 58.2938 27.3739 57.5987 27.0996C56.9035 26.8252 56.2694 26.4106 55.734 25.8803C55.1986 25.3501 54.7728 24.7151 54.4821 24.013C54.1913 23.311 54.0415 22.5563 54.0415 21.7938C54.0415 21.0313 54.1913 20.2766 54.4821 19.5746C54.7728 18.8726 55.1986 18.2375 55.734 17.7073C56.2694 17.1771 56.9035 16.7624 57.5987 16.4881C58.2938 16.2137 59.0358 16.0852 59.7804 16.1102H66.5476V11.5915H59.7804C57.9046 11.5596 56.0487 11.9896 54.3691 12.8452C52.813 13.6447 51.5134 14.8837 50.6239 16.4155C49.7367 18.0626 49.2715 19.9126 49.2715 21.7934C49.2715 23.6741 49.7367 25.5242 50.6239 27.1712C51.5126 28.7037 52.8125 29.9429 54.3691 30.7416C56.0487 31.5972 57.9046 32.0271 59.7804 31.9952H66.5476V27.4774H59.7804Z" fill="#081E37"/>
    <path d="M164.232 27.4774C163.488 27.5024 162.746 27.3739 162.051 27.0996C161.356 26.8252 160.721 26.4106 160.186 25.8803C159.651 25.3501 159.225 24.7151 158.934 24.013C158.643 23.311 158.494 22.5563 158.494 21.7938C158.494 21.0313 158.643 20.2766 158.934 19.5746C159.225 18.8726 159.651 18.2375 160.186 17.7073C160.721 17.1771 161.356 16.7624 162.051 16.4881C162.746 16.2137 163.488 16.0852 164.232 16.1102H171V11.5915H164.232C162.357 11.5595 160.501 11.9895 158.821 12.8452C157.265 13.6444 155.965 14.8835 155.076 16.4156C154.188 18.0624 153.723 19.9125 153.723 21.7934C153.723 23.6742 154.188 25.5243 155.076 27.1712C155.964 28.7039 157.264 29.9431 158.821 30.7416C160.501 31.5973 162.357 32.0273 164.232 31.9952H171V27.4774H164.232Z" fill="#081E37"/>
    <path d="M78.6257 32.3644C72.4767 32.1142 68.6562 28.0583 68.6562 21.7785C68.6562 15.5197 72.4767 11.476 78.6266 11.2249C78.6266 11.2249 78.9925 11.2109 79.402 11.2109C79.8114 11.2109 80.0859 11.2249 80.0859 11.2249C86.2367 11.476 90.0571 15.5197 90.0571 21.7785C90.0571 28.0557 86.2367 32.1116 80.0867 32.3644C80.0867 32.3644 79.5105 32.3758 79.3567 32.3758C79.2028 32.3758 78.6257 32.3644 78.6257 32.3644ZM79.3575 15.7979C75.8329 15.7979 73.8111 18.0008 73.8111 21.8415C73.8111 25.6253 75.8329 27.795 79.3575 27.795C82.8821 27.795 84.903 25.6253 84.903 21.8415C84.903 17.9973 82.8821 15.7944 79.3575 15.7944V15.7979Z" fill="#081E37"/>
    <path d="M111.846 11.5898V31.9936H107.603L97.6289 19.888V31.9936H92.9297V11.5898H97.1733L107.147 23.7252V11.5898H111.846Z" fill="#081E37"/>
    <path d="M29.2088 25.5195C28.8055 25.5195 28.4113 25.6419 28.0761 25.8712C27.7408 26.1005 27.4794 26.4264 27.3251 26.8076C27.1708 27.1889 27.1304 27.6084 27.2091 28.0132C27.2878 28.4179 27.4819 28.7897 27.7671 29.0815C28.0522 29.3734 28.4155 29.5721 28.811 29.6526C29.2065 29.7331 29.6165 29.6918 29.989 29.5339C30.3616 29.3759 30.68 29.1085 30.904 28.7653C31.1281 28.4222 31.2476 28.0188 31.2476 27.6061C31.247 27.0529 31.0319 26.5226 30.6497 26.1314C30.2675 25.7403 29.7493 25.5202 29.2088 25.5195Z" fill="white"/>
    <path d="M8.29031 23.8633C7.56899 23.8631 6.86382 24.0818 6.26399 24.4918C5.66415 24.9018 5.19658 25.4847 4.92042 26.1666C4.64427 26.8486 4.57193 27.599 4.71255 28.323C4.85317 29.0471 5.20045 29.7122 5.71044 30.2342C6.22043 30.7563 6.87023 31.1118 7.57768 31.2559C8.28512 31.4 9.01845 31.3261 9.68488 31.0437C10.3513 30.7612 10.9209 30.2829 11.3217 29.6691C11.7224 29.0553 11.9363 28.3337 11.9363 27.5955C11.9352 26.6061 11.5508 25.6576 10.8673 24.958C10.1838 24.2583 9.25703 23.8647 8.29031 23.8633Z" fill="white"/>
    <path d="M8.29031 12.25C7.56899 12.2498 6.86382 12.4686 6.26399 12.8786C5.66415 13.2886 5.19658 13.8714 4.92042 14.5533C4.64427 15.2353 4.57193 15.9858 4.71255 16.7098C4.85317 17.4338 5.20045 18.0989 5.71044 18.621C6.22043 19.143 6.87023 19.4985 7.57768 19.6426C8.28512 19.7867 9.01845 19.7128 9.68488 19.4304C10.3513 19.1479 10.9209 18.6696 11.3217 18.0558C11.7224 17.442 11.9363 16.7204 11.9363 15.9822C11.9352 14.9929 11.5508 14.0444 10.8673 13.3447C10.1838 12.6451 9.25703 12.2514 8.29031 12.25Z" fill="white"/>
    <path d="M29.2088 13.9062C28.8055 13.9062 28.4113 14.0286 28.0761 14.2579C27.7408 14.4872 27.4794 14.813 27.3251 15.1943C27.1708 15.5756 27.1304 15.9951 27.2091 16.3999C27.2878 16.8046 27.4819 17.1764 27.7671 17.4682C28.0522 17.76 28.4155 17.9588 28.811 18.0393C29.2065 18.1198 29.6165 18.0785 29.989 17.9205C30.3616 17.7626 30.68 17.4952 30.904 17.152C31.1281 16.8089 31.2476 16.4055 31.2476 15.9928C31.247 15.4396 31.0319 14.9093 30.6497 14.5182C30.2675 14.127 29.7493 13.9069 29.2088 13.9062Z" fill="white"/>
    <path d="M18.9918 30.793C18.397 30.793 17.8155 30.9735 17.3209 31.3117C16.8263 31.65 16.4408 32.1307 16.2132 32.6931C15.9856 33.2556 15.9261 33.8745 16.0422 34.4715C16.1583 35.0686 16.4448 35.617 16.8655 36.0474C17.2862 36.4778 17.8222 36.7709 18.4056 36.8895C18.989 37.0082 19.5938 36.9471 20.1433 36.714C20.6928 36.4809 21.1625 36.0863 21.4928 35.58C21.8232 35.0738 21.9994 34.4787 21.9992 33.8699C21.9981 33.054 21.6809 32.2719 21.1171 31.6951C20.5533 31.1183 19.789 30.7939 18.9918 30.793Z" fill="white"/>
    <path d="M18.9896 18.7109C18.3946 18.7108 17.8128 18.8912 17.318 19.2294C16.8231 19.5677 16.4374 20.0485 16.2096 20.611C15.9818 21.1736 15.9222 21.7927 16.0382 22.39C16.1543 22.9873 16.4408 23.536 16.8616 23.9666C17.2823 24.3972 17.8184 24.6904 18.4021 24.8092C18.9857 24.9279 19.5907 24.8669 20.1404 24.6338C20.6901 24.4007 21.1599 24.0059 21.4904 23.4995C21.8209 22.9931 21.9972 22.3977 21.9971 21.7887C21.9959 20.9728 21.6787 20.1906 21.1149 19.6137C20.5512 19.0367 19.7869 18.7121 18.9896 18.7109Z" fill="white"/>
    <path d="M18.9896 6.625C18.3946 6.62483 17.8128 6.80524 17.318 7.14347C16.8231 7.48169 16.4374 7.96252 16.2096 8.52511C15.9818 9.0877 15.9222 9.70678 16.0382 10.3041C16.1543 10.9013 16.4408 11.45 16.8616 11.8806C17.2823 12.3112 17.8184 12.6045 18.4021 12.7232C18.9857 12.842 19.5907 12.7809 20.1404 12.5478C20.6901 12.3147 21.1599 11.92 21.4904 11.4135C21.8209 10.9071 21.9972 10.3118 21.9971 9.7028C21.9959 8.88687 21.6787 8.10469 21.1149 7.52774C20.5512 6.9508 19.7869 6.62616 18.9896 6.625Z" fill="white"/>
</svg>
