<svg width="94" height="24" viewBox="0 0 94 24" fill="none" xmlns="http://www.w3.org/2000/svg">
    <path d="M46.5793 13.6492C48.7022 13.1585 48.8459 10.8424 48.8459 10.0323C48.8459 9.31352 48.4113 6.17969 45.0993 6.17969H38.9316V17.2394H41.4246V8.64035H45.0167C46.0943 8.64035 46.238 9.652 46.238 10.0437C46.238 10.4355 46.0764 11.4471 45.0167 11.4471H42.5453L46.2488 17.2508H49.1907L46.5793 13.6492Z" fill="white"/>
    <path d="M69.3535 14.7901V17.2394H60.9551V6.17969H69.2349V8.62894H63.448V10.4279H68.5812L67.3383 12.8619H63.448V14.7901H69.3535Z" fill="white"/>
    <path d="M59.3033 8.62894H55.959V17.2394H53.4661V8.62894H50.1074V6.17969H59.3033V8.62894Z" fill="white"/>
    <path d="M93.5689 6.17969V17.2394H91.3453L86.1224 10.6751V17.2394H83.6582V6.17969H85.8817L91.1083 12.7554V6.17969H93.5689Z" fill="white"/>
    <path d="M75.9026 17.4361C72.6697 17.2992 70.6797 15.1009 70.6797 11.7009C70.6797 8.30083 72.6805 6.11399 75.9062 5.99609C75.9062 5.99609 76.0966 5.99609 76.3121 5.99609C76.5277 5.99609 76.6713 5.99609 76.6713 5.99609C79.9043 6.13301 81.8943 8.32365 81.8943 11.7199C81.8943 15.1162 79.8935 17.3182 76.6713 17.4551H76.287L75.9026 17.4361ZM76.287 8.45676C74.4406 8.45676 73.381 9.65096 73.381 11.7313C73.381 13.8117 74.4406 14.9602 76.287 14.9602C78.1333 14.9602 79.193 13.7812 79.193 11.7313C79.193 9.68139 78.1441 8.45676 76.287 8.45676V8.45676Z" fill="white"/>
    <path d="M35.0807 17.2394H37.6921L33.4965 6.17969H30.5869L26.377 17.2394H29.0028L29.7212 15.2275H34.3515L35.0807 17.2394ZM30.6121 12.7782L32.0489 8.83432L33.4858 12.7782H30.6121Z" fill="white"/>
    <path d="M64.5109 1.63672H67.3918L65.2868 4.06316H62.916L64.5109 1.63672Z" fill="white"/>
    <path d="M9.56002 0L0 5.99903V18.001L9.56002 24L19.1236 18.001V5.99903L9.56002 0ZM8.5898 3.64655V17.0662H1.61348L8.5898 3.64655ZM10.5338 17.0662V3.64655L17.5101 17.0662H10.5338Z" fill="#3760F4"/>
</svg>
