<svg width="24" height="24" viewBox="0 0 24 24" fill="none" xmlns="http://www.w3.org/2000/svg">
<path d="M19.9 20.9746L13.325 14.3996C12.825 14.8329 12.242 15.1704 11.576 15.4121C10.91 15.6538 10.2014 15.7746 9.45 15.7746C7.6473 15.7746 6.12163 15.1496 4.87298 13.8996C3.62433 12.6496 3 11.1413 3 9.37461C3 7.60794 3.625 6.09961 4.875 4.84961C6.125 3.59961 7.6375 2.97461 9.4125 2.97461C11.1875 2.97461 12.6958 3.59961 13.9375 4.84961C15.1792 6.09961 15.8 7.60919 15.8 9.37836C15.8 10.0925 15.6833 10.7829 15.45 11.4496C15.2167 12.1163 14.8667 12.7413 14.4 13.3246L21 19.8746L19.9 20.9746ZM9.425 14.2746C10.7792 14.2746 11.9302 13.7954 12.8781 12.8371C13.826 11.8788 14.3 10.7246 14.3 9.37461C14.3 8.02461 13.826 6.87044 12.8781 5.91211C11.9302 4.95378 10.7792 4.47461 9.425 4.47461C8.05695 4.47461 6.8941 4.95378 5.93645 5.91211C4.97882 6.87044 4.5 8.02461 4.5 9.37461C4.5 10.7246 4.97882 11.8788 5.93645 12.8371C6.8941 13.7954 8.05695 14.2746 9.425 14.2746Z" fill="white"/>
</svg>
