<svg width="1440" height="171" viewBox="0 0 1440 171" fill="none" xmlns="http://www.w3.org/2000/svg">
<path d="M8.26398 -28L-31 -5.33099V40.008L8.26398 62.678L47.529 40.008V-5.33099L8.26398 -28Z" fill="#F15E22"/>
<path d="M-30.75 39.8637V-5.18666L8.26398 -27.7113L47.279 -5.18665V39.8637L8.26398 62.3893L-30.75 39.8637Z" stroke="white" stroke-opacity="0.35" stroke-width="0.5"/>
<path d="M-30.736 39L-70 61.669V107.008L-30.736 129.678L8.52899 107.008V61.669L-30.736 39Z" fill="#F15E22"/>
<path d="M-69.75 106.864V61.8133L-30.736 39.2887L8.27899 61.8133V106.864L-30.736 129.389L-69.75 106.864Z" stroke="white" stroke-opacity="0.35" stroke-width="0.5"/>
<path d="M164.264 -28L125 -5.33099V40.008L164.264 62.678L203.529 40.008V-5.33099L164.264 -28Z" fill="#F15E22"/>
<path d="M125.25 39.8637V-5.18666L164.264 -27.7113L203.279 -5.18665V39.8637L164.264 62.3893L125.25 39.8637Z" stroke="white" stroke-opacity="0.35" stroke-width="0.5"/>
<path d="M164.264 -28L125 -5.33099V40.008L164.264 62.678L203.529 40.008V-5.33099L164.264 -28Z" fill="#F15E22"/>
<path d="M125.25 39.8637V-5.18666L164.264 -27.7113L203.279 -5.18665V39.8637L164.264 62.3893L125.25 39.8637Z" stroke="white" stroke-opacity="0.35" stroke-width="0.5"/>
<path d="M125.264 39L86 61.669V107.008L125.264 129.678L164.529 107.008V61.669L125.264 39Z" fill="#F15E22"/>
<path d="M86.25 106.864V61.8133L125.264 39.2887L164.279 61.8133V106.864L125.264 129.389L86.25 106.864Z" stroke="white" stroke-opacity="0.35" stroke-width="0.5"/>
<path d="M86.264 106L47 128.669V174.008L86.264 196.678L125.529 174.008V128.669L86.264 106Z" fill="#F15E22"/>
<path d="M47.25 173.864V128.813L86.264 106.289L125.279 128.813V173.864L86.264 196.389L47.25 173.864Z" stroke="white" stroke-opacity="0.35" stroke-width="0.5"/>
<path d="M320.264 -28L281 -5.33099V40.008L320.264 62.678L359.529 40.008V-5.33099L320.264 -28Z" fill="#F15E22"/>
<path d="M281.25 39.8637V-5.18666L320.264 -27.7113L359.279 -5.18665V39.8637L320.264 62.3893L281.25 39.8637Z" stroke="white" stroke-opacity="0.35" stroke-width="0.5"/>
<path d="M320.264 -28L281 -5.33099V40.008L320.264 62.678L359.529 40.008V-5.33099L320.264 -28Z" fill="#F15E22"/>
<path d="M281.25 39.8637V-5.18666L320.264 -27.7113L359.279 -5.18665V39.8637L320.264 62.3893L281.25 39.8637Z" stroke="white" stroke-opacity="0.35" stroke-width="0.5"/>
<path d="M281.264 39L242 61.669V107.008L281.264 129.678L320.529 107.008V61.669L281.264 39Z" fill="#F15E22"/>
<path d="M242.25 106.864V61.8133L281.264 39.2887L320.279 61.8133V106.864L281.264 129.389L242.25 106.864Z" stroke="white" stroke-opacity="0.35" stroke-width="0.5"/>
<path d="M242.264 106L203 128.669V174.008L242.264 196.678L281.529 174.008V128.669L242.264 106Z" fill="#F15E22"/>
<path d="M203.25 173.864V128.813L242.264 106.289L281.279 128.813V173.864L242.264 196.389L203.25 173.864Z" stroke="white" stroke-opacity="0.35" stroke-width="0.5"/>
<path d="M476.264 -28L437 -5.33099V40.008L476.264 62.678L515.529 40.008V-5.33099L476.264 -28Z" fill="#F15E22"/>
<path d="M437.25 39.8637V-5.18666L476.264 -27.7113L515.279 -5.18665V39.8637L476.264 62.3893L437.25 39.8637Z" stroke="white" stroke-opacity="0.35" stroke-width="0.5"/>
<path d="M476.264 -28L437 -5.33099V40.008L476.264 62.678L515.529 40.008V-5.33099L476.264 -28Z" fill="#F15E22"/>
<path d="M437.25 39.8637V-5.18666L476.264 -27.7113L515.279 -5.18665V39.8637L476.264 62.3893L437.25 39.8637Z" stroke="white" stroke-opacity="0.35" stroke-width="0.5"/>
<path d="M437.264 39L398 61.669V107.008L437.264 129.678L476.529 107.008V61.669L437.264 39Z" fill="#F15E22"/>
<path d="M398.25 106.864V61.8133L437.264 39.2887L476.279 61.8133V106.864L437.264 129.389L398.25 106.864Z" stroke="white" stroke-opacity="0.35" stroke-width="0.5"/>
<path d="M398.264 106L359 128.669V174.008L398.264 196.678L437.529 174.008V128.669L398.264 106Z" fill="#F15E22"/>
<path d="M359.25 173.864V128.813L398.264 106.289L437.279 128.813V173.864L398.264 196.389L359.25 173.864Z" stroke="white" stroke-opacity="0.35" stroke-width="0.5"/>
<path d="M632.264 -28L593 -5.33099V40.008L632.264 62.678L671.529 40.008V-5.33099L632.264 -28Z" fill="#F15E22"/>
<path d="M593.25 39.8637V-5.18666L632.264 -27.7113L671.279 -5.18665V39.8637L632.264 62.3893L593.25 39.8637Z" stroke="white" stroke-opacity="0.35" stroke-width="0.5"/>
<path d="M632.264 -28L593 -5.33099V40.008L632.264 62.678L671.529 40.008V-5.33099L632.264 -28Z" fill="#F15E22"/>
<path d="M593.25 39.8637V-5.18666L632.264 -27.7113L671.279 -5.18665V39.8637L632.264 62.3893L593.25 39.8637Z" stroke="white" stroke-opacity="0.35" stroke-width="0.5"/>
<path d="M593.264 39L554 61.669V107.008L593.264 129.678L632.529 107.008V61.669L593.264 39Z" fill="#F15E22"/>
<path d="M554.25 106.864V61.8133L593.264 39.2887L632.279 61.8133V106.864L593.264 129.389L554.25 106.864Z" stroke="white" stroke-opacity="0.35" stroke-width="0.5"/>
<path d="M554.264 106L515 128.669V174.008L554.264 196.678L593.529 174.008V128.669L554.264 106Z" fill="#F15E22"/>
<path d="M515.25 173.864V128.813L554.264 106.289L593.279 128.813V173.864L554.264 196.389L515.25 173.864Z" stroke="white" stroke-opacity="0.35" stroke-width="0.5"/>
<path d="M788.264 -28L749 -5.33099V40.008L788.264 62.678L827.529 40.008V-5.33099L788.264 -28Z" fill="#F15E22"/>
<path d="M749.25 39.8637V-5.18666L788.264 -27.7113L827.279 -5.18665V39.8637L788.264 62.3893L749.25 39.8637Z" stroke="white" stroke-opacity="0.35" stroke-width="0.5"/>
<path d="M788.264 -28L749 -5.33099V40.008L788.264 62.678L827.529 40.008V-5.33099L788.264 -28Z" fill="#F15E22"/>
<path d="M749.25 39.8637V-5.18666L788.264 -27.7113L827.279 -5.18665V39.8637L788.264 62.3893L749.25 39.8637Z" stroke="white" stroke-opacity="0.35" stroke-width="0.5"/>
<path d="M749.264 39L710 61.669V107.008L749.264 129.678L788.529 107.008V61.669L749.264 39Z" fill="#F15E22"/>
<path d="M710.25 106.864V61.8133L749.264 39.2887L788.279 61.8133V106.864L749.264 129.389L710.25 106.864Z" stroke="white" stroke-opacity="0.35" stroke-width="0.5"/>
<path d="M710.264 106L671 128.669V174.008L710.264 196.678L749.529 174.008V128.669L710.264 106Z" fill="#F15E22"/>
<path d="M671.25 173.864V128.813L710.264 106.289L749.279 128.813V173.864L710.264 196.389L671.25 173.864Z" stroke="white" stroke-opacity="0.35" stroke-width="0.5"/>
<path d="M944.264 -28L905 -5.33099V40.008L944.264 62.678L983.529 40.008V-5.33099L944.264 -28Z" fill="#F15E22"/>
<path d="M905.25 39.8637V-5.18666L944.264 -27.7113L983.279 -5.18665V39.8637L944.264 62.3893L905.25 39.8637Z" stroke="white" stroke-opacity="0.35" stroke-width="0.5"/>
<path d="M944.264 -28L905 -5.33099V40.008L944.264 62.678L983.529 40.008V-5.33099L944.264 -28Z" fill="#F15E22"/>
<path d="M905.25 39.8637V-5.18666L944.264 -27.7113L983.279 -5.18665V39.8637L944.264 62.3893L905.25 39.8637Z" stroke="white" stroke-opacity="0.35" stroke-width="0.5"/>
<path d="M905.264 39L866 61.669V107.008L905.264 129.678L944.529 107.008V61.669L905.264 39Z" fill="#F15E22"/>
<path d="M866.25 106.864V61.8133L905.264 39.2887L944.279 61.8133V106.864L905.264 129.389L866.25 106.864Z" stroke="white" stroke-opacity="0.35" stroke-width="0.5"/>
<path d="M866.264 106L827 128.669V174.008L866.264 196.678L905.529 174.008V128.669L866.264 106Z" fill="#F15E22"/>
<path d="M827.25 173.864V128.813L866.264 106.289L905.279 128.813V173.864L866.264 196.389L827.25 173.864Z" stroke="white" stroke-opacity="0.35" stroke-width="0.5"/>
<path d="M1100.26 -28L1061 -5.33099V40.008L1100.26 62.678L1139.53 40.008V-5.33099L1100.26 -28Z" fill="#F15E22"/>
<path d="M1061.25 39.8637V-5.18666L1100.26 -27.7113L1139.28 -5.18665V39.8637L1100.26 62.3893L1061.25 39.8637Z" stroke="white" stroke-opacity="0.35" stroke-width="0.5"/>
<path d="M1100.26 -28L1061 -5.33099V40.008L1100.26 62.678L1139.53 40.008V-5.33099L1100.26 -28Z" fill="#F15E22"/>
<path d="M1061.25 39.8637V-5.18666L1100.26 -27.7113L1139.28 -5.18665V39.8637L1100.26 62.3893L1061.25 39.8637Z" stroke="white" stroke-opacity="0.35" stroke-width="0.5"/>
<path d="M1061.26 39L1022 61.669V107.008L1061.26 129.678L1100.53 107.008V61.669L1061.26 39Z" fill="#F15E22"/>
<path d="M1022.25 106.864V61.8133L1061.26 39.2887L1100.28 61.8133V106.864L1061.26 129.389L1022.25 106.864Z" stroke="white" stroke-opacity="0.35" stroke-width="0.5"/>
<path d="M1022.26 106L983 128.669V174.008L1022.26 196.678L1061.53 174.008V128.669L1022.26 106Z" fill="#F15E22"/>
<path d="M983.25 173.864V128.813L1022.26 106.289L1061.28 128.813V173.864L1022.26 196.389L983.25 173.864Z" stroke="white" stroke-opacity="0.35" stroke-width="0.5"/>
<path d="M1256.26 -28L1217 -5.33099V40.008L1256.26 62.678L1295.53 40.008V-5.33099L1256.26 -28Z" fill="#F15E22"/>
<path d="M1217.25 39.8637V-5.18666L1256.26 -27.7113L1295.28 -5.18665V39.8637L1256.26 62.3893L1217.25 39.8637Z" stroke="white" stroke-opacity="0.35" stroke-width="0.5"/>
<path d="M1256.26 -28L1217 -5.33099V40.008L1256.26 62.678L1295.53 40.008V-5.33099L1256.26 -28Z" fill="#F15E22"/>
<path d="M1217.25 39.8637V-5.18666L1256.26 -27.7113L1295.28 -5.18665V39.8637L1256.26 62.3893L1217.25 39.8637Z" stroke="white" stroke-opacity="0.35" stroke-width="0.5"/>
<path d="M1217.26 39L1178 61.669V107.008L1217.26 129.678L1256.53 107.008V61.669L1217.26 39Z" fill="#F15E22"/>
<path d="M1178.25 106.864V61.8133L1217.26 39.2887L1256.28 61.8133V106.864L1217.26 129.389L1178.25 106.864Z" stroke="white" stroke-opacity="0.35" stroke-width="0.5"/>
<path d="M1178.26 106L1139 128.669V174.008L1178.26 196.678L1217.53 174.008V128.669L1178.26 106Z" fill="#F15E22"/>
<path d="M1139.25 173.864V128.813L1178.26 106.289L1217.28 128.813V173.864L1178.26 196.389L1139.25 173.864Z" stroke="white" stroke-opacity="0.35" stroke-width="0.5"/>
<path d="M1412.26 -28L1373 -5.33099V40.008L1412.26 62.678L1451.53 40.008V-5.33099L1412.26 -28Z" fill="#F15E22"/>
<path d="M1373.25 39.8637V-5.18666L1412.26 -27.7113L1451.28 -5.18665V39.8637L1412.26 62.3893L1373.25 39.8637Z" stroke="white" stroke-opacity="0.35" stroke-width="0.5"/>
<path d="M1412.26 -28L1373 -5.33099V40.008L1412.26 62.678L1451.53 40.008V-5.33099L1412.26 -28Z" fill="#F15E22"/>
<path d="M1373.25 39.8637V-5.18666L1412.26 -27.7113L1451.28 -5.18665V39.8637L1412.26 62.3893L1373.25 39.8637Z" stroke="white" stroke-opacity="0.35" stroke-width="0.5"/>
<path d="M1373.26 39L1334 61.669V107.008L1373.26 129.678L1412.53 107.008V61.669L1373.26 39Z" fill="#F15E22"/>
<path d="M1334.25 106.864V61.8133L1373.26 39.2887L1412.28 61.8133V106.864L1373.26 129.389L1334.25 106.864Z" stroke="white" stroke-opacity="0.35" stroke-width="0.5"/>
<path d="M1334.26 106L1295 128.669V174.008L1334.26 196.678L1373.53 174.008V128.669L1334.26 106Z" fill="#F15E22"/>
<path d="M1295.25 173.864V128.813L1334.26 106.289L1373.28 128.813V173.864L1334.26 196.389L1295.25 173.864Z" stroke="white" stroke-opacity="0.35" stroke-width="0.5"/>
<path d="M86.264 -28L47 -5.33099V40.008L86.264 62.678L125.529 40.008V-5.33099L86.264 -28Z" fill="#F15E22"/>
<path d="M47.25 39.8637V-5.18666L86.264 -27.7113L125.279 -5.18665V39.8637L86.264 62.3893L47.25 39.8637Z" stroke="white" stroke-opacity="0.35" stroke-width="0.5"/>
<path d="M86.264 -28L47 -5.33099V40.008L86.264 62.678L125.529 40.008V-5.33099L86.264 -28Z" fill="#F15E22"/>
<path d="M47.25 39.8637V-5.18666L86.264 -27.7113L125.279 -5.18665V39.8637L86.264 62.3893L47.25 39.8637Z" stroke="white" stroke-opacity="0.35" stroke-width="0.5"/>
<path d="M47.264 39L8 61.669V107.008L47.264 129.678L86.529 107.008V61.669L47.264 39Z" fill="#F15E22"/>
<path d="M8.25 106.864V61.8133L47.264 39.2887L86.279 61.8133V106.864L47.264 129.389L8.25 106.864Z" stroke="white" stroke-opacity="0.35" stroke-width="0.5"/>
<path d="M8.26398 106L-31 128.669V174.008L8.26398 196.678L47.529 174.008V128.669L8.26398 106Z" fill="#F15E22"/>
<path d="M-30.75 173.864V128.813L8.26398 106.289L47.279 128.813V173.864L8.26398 196.389L-30.75 173.864Z" stroke="white" stroke-opacity="0.35" stroke-width="0.5"/>
<path d="M242.264 -28L203 -5.33099V40.008L242.264 62.678L281.529 40.008V-5.33099L242.264 -28Z" fill="#F15E22"/>
<path d="M203.25 39.8637V-5.18666L242.264 -27.7113L281.279 -5.18665V39.8637L242.264 62.3893L203.25 39.8637Z" stroke="white" stroke-opacity="0.35" stroke-width="0.5"/>
<path d="M242.264 -28L203 -5.33099V40.008L242.264 62.678L281.529 40.008V-5.33099L242.264 -28Z" fill="#F15E22"/>
<path d="M203.25 39.8637V-5.18666L242.264 -27.7113L281.279 -5.18665V39.8637L242.264 62.3893L203.25 39.8637Z" stroke="white" stroke-opacity="0.35" stroke-width="0.5"/>
<path d="M203.264 39L164 61.669V107.008L203.264 129.678L242.529 107.008V61.669L203.264 39Z" fill="#F15E22"/>
<path d="M164.25 106.864V61.8133L203.264 39.2887L242.279 61.8133V106.864L203.264 129.389L164.25 106.864Z" stroke="white" stroke-opacity="0.35" stroke-width="0.5"/>
<path d="M164.264 106L125 128.669V174.008L164.264 196.678L203.529 174.008V128.669L164.264 106Z" fill="#F15E22"/>
<path d="M125.25 173.864V128.813L164.264 106.289L203.279 128.813V173.864L164.264 196.389L125.25 173.864Z" stroke="white" stroke-opacity="0.35" stroke-width="0.5"/>
<path d="M398.264 -28L359 -5.33099V40.008L398.264 62.678L437.529 40.008V-5.33099L398.264 -28Z" fill="#F15E22"/>
<path d="M359.25 39.8637V-5.18666L398.264 -27.7113L437.279 -5.18665V39.8637L398.264 62.3893L359.25 39.8637Z" stroke="white" stroke-opacity="0.35" stroke-width="0.5"/>
<path d="M398.264 -28L359 -5.33099V40.008L398.264 62.678L437.529 40.008V-5.33099L398.264 -28Z" fill="#F15E22"/>
<path d="M359.25 39.8637V-5.18666L398.264 -27.7113L437.279 -5.18665V39.8637L398.264 62.3893L359.25 39.8637Z" stroke="white" stroke-opacity="0.35" stroke-width="0.5"/>
<path d="M359.264 39L320 61.669V107.008L359.264 129.678L398.529 107.008V61.669L359.264 39Z" fill="#F15E22"/>
<path d="M320.25 106.864V61.8133L359.264 39.2887L398.279 61.8133V106.864L359.264 129.389L320.25 106.864Z" stroke="white" stroke-opacity="0.35" stroke-width="0.5"/>
<path d="M320.264 106L281 128.669V174.008L320.264 196.678L359.529 174.008V128.669L320.264 106Z" fill="#F15E22"/>
<path d="M281.25 173.864V128.813L320.264 106.289L359.279 128.813V173.864L320.264 196.389L281.25 173.864Z" stroke="white" stroke-opacity="0.35" stroke-width="0.5"/>
<path d="M554.264 -28L515 -5.33099V40.008L554.264 62.678L593.529 40.008V-5.33099L554.264 -28Z" fill="#F15E22"/>
<path d="M515.25 39.8637V-5.18666L554.264 -27.7113L593.279 -5.18665V39.8637L554.264 62.3893L515.25 39.8637Z" stroke="white" stroke-opacity="0.35" stroke-width="0.5"/>
<path d="M554.264 -28L515 -5.33099V40.008L554.264 62.678L593.529 40.008V-5.33099L554.264 -28Z" fill="#F15E22"/>
<path d="M515.25 39.8637V-5.18666L554.264 -27.7113L593.279 -5.18665V39.8637L554.264 62.3893L515.25 39.8637Z" stroke="white" stroke-opacity="0.35" stroke-width="0.5"/>
<path d="M515.264 39L476 61.669V107.008L515.264 129.678L554.529 107.008V61.669L515.264 39Z" fill="#F15E22"/>
<path d="M476.25 106.864V61.8133L515.264 39.2887L554.279 61.8133V106.864L515.264 129.389L476.25 106.864Z" stroke="white" stroke-opacity="0.35" stroke-width="0.5"/>
<path d="M476.264 106L437 128.669V174.008L476.264 196.678L515.529 174.008V128.669L476.264 106Z" fill="#F15E22"/>
<path d="M437.25 173.864V128.813L476.264 106.289L515.279 128.813V173.864L476.264 196.389L437.25 173.864Z" stroke="white" stroke-opacity="0.35" stroke-width="0.5"/>
<path d="M710.264 -28L671 -5.33099V40.008L710.264 62.678L749.529 40.008V-5.33099L710.264 -28Z" fill="#F15E22"/>
<path d="M671.25 39.8637V-5.18666L710.264 -27.7113L749.279 -5.18665V39.8637L710.264 62.3893L671.25 39.8637Z" stroke="white" stroke-opacity="0.35" stroke-width="0.5"/>
<path d="M710.264 -28L671 -5.33099V40.008L710.264 62.678L749.529 40.008V-5.33099L710.264 -28Z" fill="#F15E22"/>
<path d="M671.25 39.8637V-5.18666L710.264 -27.7113L749.279 -5.18665V39.8637L710.264 62.3893L671.25 39.8637Z" stroke="white" stroke-opacity="0.35" stroke-width="0.5"/>
<path d="M671.264 39L632 61.669V107.008L671.264 129.678L710.529 107.008V61.669L671.264 39Z" fill="#F15E22"/>
<path d="M632.25 106.864V61.8133L671.264 39.2887L710.279 61.8133V106.864L671.264 129.389L632.25 106.864Z" stroke="white" stroke-opacity="0.35" stroke-width="0.5"/>
<path d="M632.264 106L593 128.669V174.008L632.264 196.678L671.529 174.008V128.669L632.264 106Z" fill="#F15E22"/>
<path d="M593.25 173.864V128.813L632.264 106.289L671.279 128.813V173.864L632.264 196.389L593.25 173.864Z" stroke="white" stroke-opacity="0.35" stroke-width="0.5"/>
<path d="M866.264 -28L827 -5.33099V40.008L866.264 62.678L905.529 40.008V-5.33099L866.264 -28Z" fill="#F15E22"/>
<path d="M827.25 39.8637V-5.18666L866.264 -27.7113L905.279 -5.18665V39.8637L866.264 62.3893L827.25 39.8637Z" stroke="white" stroke-opacity="0.35" stroke-width="0.5"/>
<path d="M866.264 -28L827 -5.33099V40.008L866.264 62.678L905.529 40.008V-5.33099L866.264 -28Z" fill="#F15E22"/>
<path d="M827.25 39.8637V-5.18666L866.264 -27.7113L905.279 -5.18665V39.8637L866.264 62.3893L827.25 39.8637Z" stroke="white" stroke-opacity="0.35" stroke-width="0.5"/>
<path d="M827.264 39L788 61.669V107.008L827.264 129.678L866.529 107.008V61.669L827.264 39Z" fill="#F15E22"/>
<path d="M788.25 106.864V61.8133L827.264 39.2887L866.279 61.8133V106.864L827.264 129.389L788.25 106.864Z" stroke="white" stroke-opacity="0.35" stroke-width="0.5"/>
<path d="M788.264 106L749 128.669V174.008L788.264 196.678L827.529 174.008V128.669L788.264 106Z" fill="#F15E22"/>
<path d="M749.25 173.864V128.813L788.264 106.289L827.279 128.813V173.864L788.264 196.389L749.25 173.864Z" stroke="white" stroke-opacity="0.35" stroke-width="0.5"/>
<path d="M1022.26 -28L983 -5.33099V40.008L1022.26 62.678L1061.53 40.008V-5.33099L1022.26 -28Z" fill="#F15E22"/>
<path d="M983.25 39.8637V-5.18666L1022.26 -27.7113L1061.28 -5.18665V39.8637L1022.26 62.3893L983.25 39.8637Z" stroke="white" stroke-opacity="0.35" stroke-width="0.5"/>
<path d="M1022.26 -28L983 -5.33099V40.008L1022.26 62.678L1061.53 40.008V-5.33099L1022.26 -28Z" fill="#F15E22"/>
<path d="M983.25 39.8637V-5.18666L1022.26 -27.7113L1061.28 -5.18665V39.8637L1022.26 62.3893L983.25 39.8637Z" stroke="white" stroke-opacity="0.35" stroke-width="0.5"/>
<path d="M983.264 39L944 61.669V107.008L983.264 129.678L1022.53 107.008V61.669L983.264 39Z" fill="#F15E22"/>
<path d="M944.25 106.864V61.8133L983.264 39.2887L1022.28 61.8133V106.864L983.264 129.389L944.25 106.864Z" stroke="white" stroke-opacity="0.35" stroke-width="0.5"/>
<path d="M944.264 106L905 128.669V174.008L944.264 196.678L983.529 174.008V128.669L944.264 106Z" fill="#F15E22"/>
<path d="M905.25 173.864V128.813L944.264 106.289L983.279 128.813V173.864L944.264 196.389L905.25 173.864Z" stroke="white" stroke-opacity="0.35" stroke-width="0.5"/>
<path d="M1178.26 -28L1139 -5.33099V40.008L1178.26 62.678L1217.53 40.008V-5.33099L1178.26 -28Z" fill="#F15E22"/>
<path d="M1139.25 39.8637V-5.18666L1178.26 -27.7113L1217.28 -5.18665V39.8637L1178.26 62.3893L1139.25 39.8637Z" stroke="white" stroke-opacity="0.35" stroke-width="0.5"/>
<path d="M1178.26 -28L1139 -5.33099V40.008L1178.26 62.678L1217.53 40.008V-5.33099L1178.26 -28Z" fill="#F15E22"/>
<path d="M1139.25 39.8637V-5.18666L1178.26 -27.7113L1217.28 -5.18665V39.8637L1178.26 62.3893L1139.25 39.8637Z" stroke="white" stroke-opacity="0.35" stroke-width="0.5"/>
<path d="M1139.26 39L1100 61.669V107.008L1139.26 129.678L1178.53 107.008V61.669L1139.26 39Z" fill="#F15E22"/>
<path d="M1100.25 106.864V61.8133L1139.26 39.2887L1178.28 61.8133V106.864L1139.26 129.389L1100.25 106.864Z" stroke="white" stroke-opacity="0.35" stroke-width="0.5"/>
<path d="M1100.26 106L1061 128.669V174.008L1100.26 196.678L1139.53 174.008V128.669L1100.26 106Z" fill="#F15E22"/>
<path d="M1061.25 173.864V128.813L1100.26 106.289L1139.28 128.813V173.864L1100.26 196.389L1061.25 173.864Z" stroke="white" stroke-opacity="0.35" stroke-width="0.5"/>
<path d="M1334.26 -28L1295 -5.33099V40.008L1334.26 62.678L1373.53 40.008V-5.33099L1334.26 -28Z" fill="#F15E22"/>
<path d="M1295.25 39.8637V-5.18666L1334.26 -27.7113L1373.28 -5.18665V39.8637L1334.26 62.3893L1295.25 39.8637Z" stroke="white" stroke-opacity="0.35" stroke-width="0.5"/>
<path d="M1334.26 -28L1295 -5.33099V40.008L1334.26 62.678L1373.53 40.008V-5.33099L1334.26 -28Z" fill="#F15E22"/>
<path d="M1295.25 39.8637V-5.18666L1334.26 -27.7113L1373.28 -5.18665V39.8637L1334.26 62.3893L1295.25 39.8637Z" stroke="white" stroke-opacity="0.35" stroke-width="0.5"/>
<path d="M1295.26 39L1256 61.669V107.008L1295.26 129.678L1334.53 107.008V61.669L1295.26 39Z" fill="#F15E22"/>
<path d="M1256.25 106.864V61.8133L1295.26 39.2887L1334.28 61.8133V106.864L1295.26 129.389L1256.25 106.864Z" stroke="white" stroke-opacity="0.35" stroke-width="0.5"/>
<path d="M1256.26 106L1217 128.669V174.008L1256.26 196.678L1295.53 174.008V128.669L1256.26 106Z" fill="#F15E22"/>
<path d="M1217.25 173.864V128.813L1256.26 106.289L1295.28 128.813V173.864L1256.26 196.389L1217.25 173.864Z" stroke="white" stroke-opacity="0.35" stroke-width="0.5"/>
<path d="M1412.26 106L1373 128.669V174.008L1412.26 196.678L1451.53 174.008V128.669L1412.26 106Z" fill="#F15E22"/>
<path d="M1373.25 173.864V128.813L1412.26 106.289L1451.28 128.813V173.864L1412.26 196.389L1373.25 173.864Z" stroke="white" stroke-opacity="0.35" stroke-width="0.5"/>
<path d="M1451.26 39L1412 61.669V107.008L1451.26 129.678L1490.53 107.008V61.669L1451.26 39Z" fill="#F15E22"/>
<path d="M1412.25 106.864V61.8133L1451.26 39.2887L1490.28 61.8133V106.864L1451.26 129.389L1412.25 106.864Z" stroke="white" stroke-opacity="0.35" stroke-width="0.5"/>
</svg>
