<svg width="114" height="41" viewBox="0 0 114 41" fill="none" xmlns="http://www.w3.org/2000/svg">
    <g clip-path="url(#clip0_1408_8581)">
        <path d="M73.9511 24.5605H63.7972L62.0508 29.5378H54.5938L64.674 2.87891H73.0743L83.1545 29.5378H75.6975L73.9511 24.5605ZM71.63 17.9142L68.8889 10.079L66.1183 17.929L71.63 17.9142Z" fill="white"/>
        <path d="M114.001 29.5525H107.001V12.6711L101.821 29.5525H95.801L90.6135 12.6711V29.5525H83.6133V2.87891H93.922L98.8295 19.5684L103.693 2.87891H114.001V29.5525Z" fill="white"/>
        <path d="M38.3526 2.87891L33.9609 9.51039H43.4812V29.5525H50.6288V9.51039H58.8964V2.87891H38.3526Z" fill="white"/>
        <path d="M73.6217 40.188C73.3792 40.466 73.0659 40.6728 72.7153 40.7862C72.2986 40.9319 71.8598 41.0044 71.4185 41.0003C70.9593 41.0107 70.5059 40.8958 70.1068 40.668C69.7391 40.4439 69.4466 40.1147 69.2668 39.7228C69.0497 39.2613 68.9413 38.756 68.95 38.2458V37.8544C68.9394 37.3465 69.04 36.8423 69.2447 36.3775C69.4183 35.9758 69.7118 35.6379 70.0847 35.4101C70.5329 35.1682 71.0388 35.0548 71.547 35.0821C72.0553 35.1095 72.5462 35.2766 72.9659 35.5652C73.3712 35.9324 73.6171 36.4439 73.6511 36.9904H72.4648C72.4445 36.7098 72.3211 36.4467 72.1185 36.252C71.9077 36.0906 71.6465 36.0095 71.3816 36.023C71.2014 36.0128 71.0216 36.0488 70.8591 36.1276C70.6966 36.2064 70.5569 36.3255 70.4532 36.4735C70.2172 36.8856 70.1071 37.3581 70.1363 37.8323V38.2015C70.1029 38.6823 70.2243 39.1612 70.4826 39.5677C70.5993 39.7229 70.7527 39.8467 70.9289 39.9279C71.1051 40.0091 71.2986 40.0452 71.4921 40.0329C71.8331 40.0645 72.1732 39.9641 72.4427 39.7523V38.7628H71.3521V37.884H73.6217V40.188Z" fill="white"/>
        <path d="M79.5827 38.8083H78.6395V40.9204H77.4531V35.1455H79.5827C80.1454 35.1097 80.703 35.2716 81.1595 35.6034C81.3454 35.7611 81.492 35.9599 81.588 36.1842C81.6839 36.4085 81.7264 36.6521 81.7122 36.8957C81.7228 37.2412 81.6332 37.5824 81.4543 37.8779C81.2734 38.1533 81.0178 38.3711 80.7174 38.5056L81.9627 40.8613V40.9204H80.6879L79.5827 38.8083ZM78.6395 37.8409H79.5827C79.8344 37.8576 80.0828 37.7755 80.2753 37.612C80.3587 37.5312 80.4235 37.4332 80.4655 37.3249C80.5075 37.2165 80.5256 37.1003 80.5185 36.9843C80.5246 36.8674 80.5076 36.7504 80.4684 36.6402C80.4292 36.5299 80.3686 36.4285 80.29 36.3418C80.1893 36.2553 80.0719 36.1904 79.9452 36.151C79.8185 36.1117 79.6851 36.0987 79.5532 36.1129H78.6026L78.6395 37.8409Z" fill="white"/>
        <path d="M90.2054 38.163C90.2155 38.6709 90.1149 39.175 89.9107 39.6399C89.7247 40.0424 89.4249 40.3813 89.0486 40.6147C88.664 40.8537 88.2189 40.9768 87.7664 40.9692C87.3151 40.9754 86.8711 40.8552 86.4843 40.6221C86.1055 40.3862 85.8034 40.0449 85.6148 39.6399C85.4015 39.1774 85.2956 38.6724 85.3053 38.163V37.875C85.3001 37.3668 85.4031 36.8632 85.6074 36.398C85.7997 36.0032 86.1016 35.6725 86.4769 35.4454C86.8623 35.209 87.3073 35.0885 87.7591 35.0983C88.2086 35.0874 88.6516 35.208 89.0338 35.4454C89.4075 35.6755 89.7068 36.0089 89.896 36.4054C90.1044 36.8693 90.2075 37.3737 90.1981 37.8824L90.2054 38.163ZM89.0044 37.8971C89.0384 37.4169 88.9253 36.9376 88.6801 36.5236C88.5741 36.3786 88.4354 36.2607 88.2754 36.1794C88.1153 36.0981 87.9385 36.0558 87.7591 36.0558C87.5797 36.0558 87.4028 36.0981 87.2427 36.1794C87.0827 36.2607 86.9441 36.3786 86.838 36.5236C86.5899 36.934 86.4741 37.411 86.5064 37.8898V38.1704C86.4795 38.65 86.5921 39.1272 86.8306 39.5439C86.9355 39.6918 87.0742 39.8123 87.2351 39.8955C87.396 39.9787 87.5743 40.0221 87.7554 40.0221C87.9364 40.0221 88.1148 39.9787 88.2757 39.8955C88.4365 39.8123 88.5752 39.6918 88.6801 39.5439C88.9213 39.131 89.0342 38.6553 89.0044 38.1778V37.8971Z" fill="white"/>
        <path d="M98.3179 35.1445V38.9477C98.3283 39.2215 98.2812 39.4944 98.1797 39.7489C98.0781 40.0033 97.9244 40.2335 97.7284 40.4246C97.2798 40.8123 96.6988 41.0108 96.1073 40.9785C95.5257 41.0061 94.955 40.8137 94.5083 40.4394C94.307 40.2516 94.1488 40.0224 94.0444 39.7674C93.9401 39.5124 93.8923 39.2378 93.9041 38.9624V35.1445H95.0905V38.955C95.0765 39.1043 95.0935 39.2549 95.1404 39.3972C95.1873 39.5396 95.2631 39.6706 95.3631 39.7821C95.4626 39.8721 95.5791 39.9413 95.7056 39.9856C95.8321 40.03 95.9662 40.0487 96.1 40.0406C96.7705 40.0406 97.1095 39.6935 97.1168 38.9846V35.1445H98.3179Z" fill="white"/>
        <path d="M103.507 38.8817V40.9199H102.32V35.1451H104.531C104.925 35.1369 105.316 35.2203 105.673 35.3888C105.979 35.5356 106.235 35.7693 106.41 36.0608C106.589 36.3622 106.68 36.7072 106.675 37.0577C106.688 37.3104 106.642 37.5626 106.541 37.7945C106.44 38.0264 106.286 38.2317 106.093 38.3944C105.633 38.7439 105.063 38.9168 104.487 38.8817H103.507ZM103.507 37.9217H104.568C104.832 37.9429 105.095 37.8638 105.305 37.7002C105.388 37.6179 105.453 37.5187 105.495 37.4091C105.537 37.2996 105.555 37.1822 105.548 37.0651C105.557 36.9407 105.54 36.8158 105.498 36.6984C105.456 36.581 105.39 36.4739 105.304 36.3839C105.217 36.294 105.113 36.2234 104.998 36.1766C104.882 36.1298 104.758 36.108 104.634 36.1125H103.544L103.507 37.9217Z" fill="white"/>
        <path d="M113.565 38.416H111.288V39.9668H113.963V40.9194H110.102V35.1445H113.955V36.1119H111.288V37.4855H113.565V38.416Z" fill="white"/>
        <path d="M0 0H13.4625L0 20.116V0Z" fill="#3760F4"/>
        <path d="M26.9234 0H13.4609L26.9234 20.116V0Z" fill="#EC1C24"/>
        <path d="M0 20.1172C0.295025 23.4916 1.84106 26.6327 4.33317 28.921C6.82528 31.2093 10.0825 32.4786 13.4625 32.4786C16.8424 32.4786 20.0997 31.2093 22.5918 28.921C25.0839 26.6327 26.6299 23.4916 26.925 20.1172H0Z" fill="#68BC45"/>
    </g>
    <defs>
        <clipPath id="clip0_1408_8581">
            <rect width="114" height="41" fill="white"/>
        </clipPath>
    </defs>
</svg>
