<svg width="107" height="24" viewBox="0 0 107 24" fill="none" xmlns="http://www.w3.org/2000/svg">
    <path d="M56.1364 17.5945C58.24 17.1191 58.3841 14.8759 58.3841 14.0899C58.3841 13.3957 57.952 10.3555 54.6725 10.3555H48.5605V21.0737H51.0298V12.7277H54.5991C55.6496 12.7277 55.8112 13.7108 55.8112 14.088C55.8112 14.4652 55.6496 15.4484 54.5991 15.4484H52.1397L55.8112 21.0711H58.7225L56.1364 17.5945Z" fill="white"/>
    <path d="M96.7269 18.7004V21.0737H88.4062V10.3555H96.6084V12.7291H90.8752V14.4744H95.9615L94.7302 16.8323H90.8752V18.7004H96.7269Z" fill="white"/>
    <path d="M82.6364 12.7291H79.3228V21.0737H76.8535V12.7291H73.5254V10.3555H82.6364V12.7291Z" fill="white"/>
    <path d="M86.5787 10.3555H84.1094V21.0737H86.5787V10.3555Z" fill="white"/>
    <path d="M72.1819 21.0737H69.7574V13.6935L67.5118 21.0737H64.8206L62.5749 13.6935V21.0737H60.1504V10.3555H63.7285L66.1662 18.0522L68.6039 10.3555H72.1819V21.0737Z" fill="white"/>
    <path d="M28.8283 12.8107V12.7291H35.1757V10.3555H26.3594V21.0737H28.8283V17.1694H33.926V14.8112H28.8283V12.8107Z" fill="white"/>
    <path d="M41.1868 21.2671C37.995 21.1355 36.0117 19.0053 36.0117 15.7076C36.0117 12.4196 37.995 10.2952 41.1878 10.1636C41.1878 10.1636 41.3778 10.1562 41.5901 10.1562C41.8024 10.1562 41.9451 10.1636 41.9451 10.1636C45.138 10.2952 47.1216 12.4196 47.1216 15.7076C47.1216 19.0053 45.138 21.1355 41.9455 21.2671C41.9455 21.2671 41.6462 21.273 41.5663 21.273C41.4864 21.273 41.1868 21.2671 41.1868 21.2671ZM41.567 12.5641C39.7371 12.5641 38.6876 13.7215 38.6876 15.7393C38.6876 17.7269 39.7371 18.8666 41.567 18.8666C43.3969 18.8666 44.446 17.7269 44.446 15.7393C44.446 13.7215 43.3965 12.5641 41.567 12.5641Z" fill="white"/>
    <path d="M104.372 14.9839C103.734 14.7561 103.081 14.5769 102.419 14.4478C101.927 14.3679 101.446 14.2292 100.985 14.0346C100.873 13.9906 100.777 13.9132 100.709 13.8122C100.64 13.7113 100.602 13.5914 100.6 13.468C100.6 12.708 101.476 12.743 101.989 12.743H105.808V10.3594H102.386C98.425 10.3594 97.8945 12.3301 97.8945 13.6467C97.8945 15.9744 100.232 16.5071 101.346 16.7829C101.819 16.8954 103.735 17.1211 103.735 17.9543C103.735 18.7242 102.925 18.7179 102.462 18.7179H98.2464V21.0761H102.374C106.421 21.0761 106.471 18.6278 106.471 17.9142C106.471 15.9593 104.923 15.1879 104.372 14.9839Z" fill="white"/>
    <path d="M28.7655 1.63672H26.3594V7.22268H28.7655C30.4626 7.22268 31.6026 6.09872 31.6026 4.42584C31.6026 2.75295 30.4626 1.63672 28.7655 1.63672ZM28.6902 5.97996H27.7107V2.87943H28.6902C28.8942 2.86036 29.0998 2.88742 29.2927 2.95876C29.4857 3.0301 29.6613 3.144 29.8075 3.29258C29.9537 3.44117 30.067 3.62088 30.1396 3.81928C30.2121 4.01769 30.2421 4.23004 30.2275 4.44165C30.2275 5.39023 29.6389 5.97996 28.6902 5.97996Z" fill="white"/>
    <path d="M50.2365 1.63672H47.8301V7.22268H50.2365C51.9333 7.22268 53.0736 6.09872 53.0736 4.42584C53.0736 2.75295 51.9333 1.63672 50.2365 1.63672ZM50.1609 5.97996H49.1814V2.87943H50.1609C50.365 2.86019 50.5707 2.88713 50.7638 2.95839C50.9568 3.02965 51.1326 3.14352 51.279 3.29213C51.4253 3.44073 51.5387 3.6205 51.6113 3.81899C51.6838 4.01748 51.7139 4.22994 51.6993 4.44165C51.6993 5.39023 51.1099 5.97996 50.1609 5.97996Z" fill="white"/>
    <path d="M61.4836 2.87943H63.6103V1.63672H61.409C59.7123 1.63672 58.5723 2.75773 58.5723 4.42584C58.5723 6.09394 59.7123 7.22268 61.409 7.22268H63.6103V3.87029H60.9656V5.03469H62.259V5.97996H61.4836C60.5349 5.97996 59.9452 5.3917 59.9452 4.44165C59.9306 4.22994 59.9607 4.01748 60.0332 3.81899C60.1058 3.6205 60.2192 3.44073 60.3655 3.29213C60.5119 3.14352 60.6877 3.02965 60.8807 2.95839C61.0738 2.88713 61.2795 2.86019 61.4836 2.87943Z" fill="white"/>
    <path d="M43.8732 1.63672L42.8933 5.64723L42.3543 3.74933L41.7025 1.63672H40.3988L39.7473 3.74933L39.2083 5.64723L38.2284 1.63672H35.5603L34.1682 3.98133L32.769 1.63672H31.1543L33.4322 5.28765V7.22268H34.791V5.27993L36.8864 1.96504L38.3318 7.22268H39.9997L41.0506 3.29526L42.1019 7.22268H43.7695L45.3054 1.63672H43.8732Z" fill="white"/>
    <path d="M47.0114 1.63672H45.6602V7.22268H47.0114V1.63672Z" fill="white"/>
    <path d="M56.4435 1.63672H55.045L52.8477 7.22268H54.2831L54.6619 6.24542H56.991L57.3691 7.22378H58.8045L56.6072 1.63672H56.4435ZM55.1213 5.05602L55.8264 3.23239L56.5315 5.05602H55.1213Z" fill="white"/>
    <path d="M5.02219 15.9208L9.63271 18.7586V13.2559H15.0435V10.1986H9.63271V4.69596L5.02219 7.53372V10.1986H0V5.86382L9.5618 0L19.1236 5.86382V17.5907L9.5618 23.4545L0 17.5907V13.2559H5.02219V15.9208Z" fill="#F15E22"/>
</svg>
