<svg width="84" height="26" viewBox="0 0 84 26" fill="none" xmlns="http://www.w3.org/2000/svg">
<path d="M30.2207 19.6703V6.33203H37.5516C41.698 6.33203 43.1043 9.00881 43.1043 12.9924C43.1043 16.9866 41.6967 19.6703 37.5516 19.6703H30.2207ZM37.2757 15.9755C39.1819 15.9755 39.2853 14.8733 39.2853 13.0271C39.2853 11.1482 39.1819 10.0265 37.2757 10.0265H34.2296V15.9755H37.2757Z" fill="white"/>
<path d="M63.0335 19.6703C58.8865 19.6703 57.4805 16.9936 57.4805 13.0099C57.4805 9.01573 58.8881 6.33203 63.0335 6.33203H68.9358V10.0265H63.3091C61.4026 10.0265 61.2995 11.1287 61.2995 12.9749C61.2995 14.8539 61.4026 15.9759 63.3091 15.9759H68.9358V19.6703H63.0335Z" fill="white"/>
<path d="M76.7024 19.6703C71.6355 19.6703 69.7695 17.9208 69.7695 13.0099C69.7695 8.08815 71.6355 6.33203 76.7024 6.33203H77.0661C82.133 6.33203 83.999 8.08156 83.999 12.9924C83.999 17.9142 82.133 19.6703 77.0661 19.6703H76.7024ZM76.8746 10.0265C74.0482 10.0265 73.8301 10.2011 73.8301 12.9749C73.8301 15.7808 74.0485 15.9759 76.8746 15.9759C79.72 15.9759 79.9381 15.8009 79.9381 13.0271C79.9381 10.2213 79.7201 10.0265 76.8936 10.0265H76.8746Z" fill="white"/>
<path d="M47.8953 19.6704V15.044L42.3125 6.33203H47.1051L50.036 11.1145L52.9524 6.33203H57.562L51.9209 15.0282V19.6704H47.8953Z" fill="white"/>
<path d="M56.7897 16.5273H53.6738V19.6692H56.7897V16.5273Z" fill="white"/>
<path d="M0 6.54604V19.4549L5.62146 22.7278V3.27344L0 6.54604Z" fill="#F15E22"/>
<path d="M22.3293 6.45443L11.2426 0L5.62109 3.2726L22.3293 12.9996V6.45443Z" fill="#F15E22"/>
<path d="M11.2426 26L22.3293 19.5455V13L5.62109 22.7274L11.2426 26Z" fill="#F15E22"/>
<path d="M13.9754 8.13672L5.62109 13.0004L13.9754 17.8641V8.13672Z" fill="#F15E22"/>
</svg>
