<svg width="329" height="118" viewBox="0 0 329 118" fill="none" xmlns="http://www.w3.org/2000/svg">
    <g clip-path="url(#clip0_1424_9585)">
        <path d="M213.847 70.6896H184.543L179.503 85.0146H157.982L187.138 8.28906H211.38L240.408 85.0146H218.887L213.847 70.6896ZM207.148 51.5614L199.238 29.0113L191.242 51.6039L207.148 51.5614Z" fill="#081E37"/>
        <path d="M329 85.0571H308.798V36.4713L293.848 85.0571H276.474L261.503 36.4713V85.0571H241.301V8.28906H271.051L285.214 56.3222L299.25 8.28906H329V85.0571Z" fill="#081E37"/>
        <path d="M110.688 8.28906L98.0137 27.3748H125.489V85.0571H146.116V27.3748H169.976V8.28906H110.688Z" fill="#081E37"/>
        <path d="M212.465 115.664C211.765 116.464 210.861 117.059 209.849 117.385C208.647 117.804 207.38 118.013 206.107 118.001C204.781 118.031 203.473 117.701 202.321 117.045C201.26 116.4 200.416 115.453 199.897 114.325C199.271 112.996 198.958 111.542 198.983 110.074V108.947C198.952 107.485 199.242 106.035 199.833 104.697C200.334 103.541 201.181 102.568 202.258 101.912C203.551 101.216 205.011 100.89 206.478 100.969C207.944 101.047 209.361 101.528 210.572 102.359C211.742 103.416 212.452 104.888 212.55 106.461H209.126C209.068 105.653 208.712 104.896 208.127 104.335C207.518 103.871 206.765 103.638 206 103.677C205.48 103.647 204.961 103.751 204.492 103.977C204.023 104.204 203.62 104.547 203.321 104.973C202.64 106.159 202.322 107.519 202.406 108.884V109.946C202.31 111.33 202.66 112.708 203.406 113.878C203.743 114.325 204.185 114.681 204.694 114.915C205.202 115.149 205.761 115.252 206.319 115.217C207.303 115.308 208.285 115.019 209.063 114.41V111.562H205.915V109.032H212.465V115.664Z" fill="#081E37"/>
        <path d="M229.669 111.689H226.947V117.767H223.523V101.147H229.669C231.293 101.044 232.903 101.51 234.22 102.465C234.756 102.918 235.18 103.491 235.456 104.136C235.733 104.782 235.856 105.483 235.815 106.184C235.846 107.178 235.587 108.16 235.071 109.011C234.549 109.803 233.811 110.43 232.944 110.817L236.538 117.597V117.767H232.859L229.669 111.689ZM226.947 108.904H229.669C230.396 108.952 231.113 108.716 231.668 108.246C231.909 108.013 232.096 107.731 232.217 107.419C232.338 107.107 232.39 106.773 232.37 106.439C232.388 106.103 232.339 105.766 232.225 105.449C232.112 105.131 231.937 104.839 231.711 104.59C231.42 104.341 231.081 104.154 230.716 104.041C230.35 103.928 229.965 103.89 229.584 103.931H226.841L226.947 108.904Z" fill="#081E37"/>
        <path d="M260.333 109.838C260.362 111.3 260.072 112.75 259.482 114.089C258.945 115.247 258.08 116.222 256.994 116.894C255.884 117.582 254.6 117.936 253.294 117.914C251.992 117.932 250.71 117.586 249.594 116.915C248.501 116.236 247.629 115.254 247.084 114.089C246.469 112.757 246.163 111.304 246.191 109.838V109.009C246.176 107.546 246.473 106.097 247.063 104.758C247.618 103.622 248.489 102.67 249.572 102.017C250.685 101.336 251.969 100.989 253.273 101.018C254.57 100.986 255.848 101.333 256.952 102.017C258.03 102.679 258.894 103.638 259.44 104.779C260.041 106.115 260.339 107.566 260.312 109.03L260.333 109.838ZM256.867 109.073C256.965 107.69 256.638 106.311 255.931 105.12C255.625 104.702 255.225 104.363 254.763 104.129C254.301 103.895 253.79 103.773 253.273 103.773C252.755 103.773 252.244 103.895 251.783 104.129C251.321 104.363 250.921 104.702 250.614 105.12C249.899 106.301 249.564 107.674 249.658 109.051V109.859C249.58 111.24 249.905 112.613 250.593 113.812C250.896 114.238 251.296 114.585 251.76 114.824C252.225 115.063 252.74 115.188 253.262 115.188C253.784 115.188 254.299 115.063 254.764 114.824C255.228 114.585 255.628 114.238 255.931 113.812C256.627 112.624 256.953 111.255 256.867 109.88V109.073Z" fill="#081E37"/>
        <path d="M283.747 101.145V112.09C283.777 112.878 283.641 113.664 283.348 114.396C283.055 115.128 282.611 115.791 282.046 116.341C280.751 117.457 279.074 118.028 277.367 117.935C275.689 118.014 274.042 117.461 272.753 116.383C272.172 115.843 271.715 115.183 271.414 114.449C271.113 113.715 270.975 112.925 271.009 112.133V101.145H274.433V112.111C274.392 112.541 274.441 112.974 274.577 113.384C274.712 113.794 274.931 114.171 275.22 114.492C275.507 114.751 275.843 114.95 276.208 115.077C276.573 115.205 276.96 115.259 277.346 115.236C279.281 115.236 280.26 114.237 280.281 112.196V101.145H283.747Z" fill="#081E37"/>
        <path d="M298.719 111.9V117.766H295.295V101.146H301.675C302.813 101.123 303.941 101.363 304.971 101.847C305.854 102.27 306.593 102.943 307.097 103.782C307.613 104.649 307.878 105.642 307.863 106.651C307.899 107.378 307.766 108.104 307.474 108.771C307.183 109.439 306.741 110.03 306.183 110.498C304.855 111.504 303.21 112.001 301.547 111.9H298.719ZM298.719 109.137H301.781C302.545 109.198 303.303 108.971 303.907 108.5C304.149 108.263 304.336 107.977 304.457 107.662C304.578 107.347 304.63 107.009 304.609 106.672C304.636 106.314 304.588 105.954 304.466 105.617C304.345 105.279 304.153 104.97 303.904 104.712C303.656 104.453 303.355 104.249 303.022 104.115C302.689 103.98 302.331 103.917 301.972 103.93H298.825L298.719 109.137Z" fill="#081E37"/>
        <path d="M327.745 110.56H321.174V115.023H328.893V117.765H317.75V101.145H328.872V103.929H321.174V107.882H327.745V110.56Z" fill="#081E37"/>
        <path d="M0 0H38.8522L0 57.8948V0Z" fill="#3760F4"/>
        <path d="M77.7038 0H38.8516L77.7038 57.8948V0Z" fill="#EC1C24"/>
        <path d="M0 57.8945C0.851433 67.6062 5.31323 76.6465 12.5054 83.2323C19.6975 89.8181 29.0978 93.4713 38.8522 93.4713C48.6066 93.4713 58.007 89.8181 65.1991 83.2323C72.3912 76.6465 76.853 67.6062 77.7045 57.8945H0Z" fill="#68BC45"/>
    </g>
    <defs>
        <clipPath id="clip0_1424_9585">
            <rect width="329" height="118" fill="white"/>
        </clipPath>
    </defs>
</svg>
