<svg width="240" height="73" viewBox="0 0 240 73" fill="none" xmlns="http://www.w3.org/2000/svg">
<path d="M86.4863 55.2233V17.7734H107.345C119.142 17.7734 123.143 25.289 123.143 36.4738C123.143 47.6883 119.138 55.2233 107.345 55.2233H86.4863ZM106.559 44.8494C111.983 44.8494 112.277 41.7548 112.277 36.5711C112.277 31.2957 111.983 28.1463 106.559 28.1463H97.8925V44.8494H106.559Z" fill="#081E37"/>
<path d="M179.845 55.2233C168.045 55.2233 164.045 47.7077 164.045 36.5229C164.045 25.3084 168.05 17.7734 179.845 17.7734H196.638V28.1463H180.629C175.204 28.1463 174.911 31.241 174.911 36.4247C174.911 41.7001 175.204 44.8504 180.629 44.8504H196.638V55.2233H179.845Z" fill="#081E37"/>
<path d="M218.739 55.2233C204.323 55.2233 199.014 50.3112 199.014 36.5229C199.014 22.7041 204.323 17.7734 218.739 17.7734H219.774C234.191 17.7734 239.5 22.6856 239.5 36.4738C239.5 50.2927 234.191 55.2233 219.774 55.2233H218.739ZM219.229 28.1463C211.187 28.1463 210.567 28.6366 210.567 36.4247C210.567 44.3026 211.188 44.8504 219.229 44.8504C227.325 44.8504 227.946 44.3592 227.946 36.5711C227.946 28.6932 227.325 28.1463 219.283 28.1463H219.229Z" fill="#081E37"/>
<path d="M136.773 55.2233V42.234L120.889 17.7734H134.525L142.864 31.2012L151.162 17.7734H164.277L148.227 42.1895V55.2233H136.773Z" fill="#081E37"/>
<path d="M162.078 46.4023H153.213V55.2238H162.078V46.4023Z" fill="#081E37"/>
<path d="M0.5 18.3799V54.624L16.4944 63.8133V9.19141L0.5 18.3799Z" fill="#F15E22"/>
<path d="M64.0311 18.1221L32.4866 0L16.4922 9.18846L64.0311 36.499V18.1221Z" fill="#F15E22"/>
<path d="M32.4866 72.9999L64.0311 54.8779V36.5L16.4922 63.8114L32.4866 72.9999Z" fill="#F15E22"/>
<path d="M40.2621 22.8477L16.4922 36.5034L40.2621 50.1591V22.8477Z" fill="#F15E22"/>
</svg>
