<svg width="356" height="45" viewBox="0 0 356 45" fill="none" xmlns="http://www.w3.org/2000/svg">
    <path d="M24.6612 16.8047H13.623V27.9877H24.6612V16.8047Z" fill="#68BC45"/>
    <path d="M19.142 0L0 11.1974V33.5905L19.142 44.7871L38.2849 33.5905V11.1974L19.142 0ZM30.2885 16.8025V33.6858H13.6238V27.9846L7.99647 33.6858V11.1013H30.2885L24.6611 16.8025H30.2885Z" fill="#68BC45"/>
    <path d="M308.991 15.3541H302.366V31.6756H297.429V15.3541H290.775V10.7109H308.991V15.3541Z" fill="#081E37"/>
    <path d="M356 10.7109V31.6756H351.595L341.243 19.2367V31.6756H336.365V10.7109H340.77L351.122 23.1804V10.7109H356Z" fill="#081E37"/>
    <path d="M266.521 22.5022C267.236 23.4266 267.602 24.5786 267.555 25.7519C267.573 26.8259 267.296 27.8837 266.757 28.8084C266.215 29.715 265.429 30.4467 264.492 30.9182C263.422 31.449 262.24 31.7111 261.049 31.6824H248.998V10.7168H260.372C262.042 10.6245 263.683 11.1879 264.954 12.29C265.513 12.8174 265.954 13.4611 266.245 14.1771C266.536 14.893 266.67 15.6642 266.64 16.4378C266.661 17.4204 266.388 18.3865 265.856 19.2084C265.323 20.0057 264.535 20.5926 263.624 20.8706C264.752 21.0451 265.78 21.6241 266.521 22.5022ZM253.933 14.8844V19.0196H259.307C259.6 19.0402 259.895 19.0019 260.174 18.9068C260.453 18.8118 260.711 18.6619 260.932 18.4659C261.128 18.2569 261.278 18.0095 261.375 17.739C261.471 17.4685 261.512 17.1807 261.494 16.8936C261.511 16.6202 261.469 16.3463 261.372 16.0906C261.275 15.8349 261.125 15.6032 260.932 15.4112C260.476 15.0333 259.895 14.8459 259.307 14.8871L253.933 14.8844ZM261.805 26.9385C262.015 26.7197 262.177 26.4587 262.281 26.1725C262.386 25.8862 262.43 25.5809 262.411 25.2764C262.431 24.9739 262.387 24.6706 262.282 24.3865C262.178 24.1024 262.015 23.8441 261.805 23.6286C261.311 23.2189 260.682 23.0156 260.046 23.0604H253.933V27.5229H260.046C260.686 27.5671 261.317 27.3561 261.806 26.9349L261.805 26.9385Z" fill="#081E37"/>
    <path d="M321.211 32.0563C314.829 31.7992 310.863 27.6316 310.863 21.1789C310.863 14.7477 314.829 10.5927 321.213 10.3347C321.213 10.3347 321.592 10.3203 322.017 10.3203C322.442 10.3203 322.727 10.3347 322.727 10.3347C329.115 10.5927 333.076 14.7477 333.076 21.1789C333.076 27.6289 329.111 31.7965 322.727 32.0563C322.727 32.0563 322.129 32.068 321.969 32.068C321.809 32.068 321.211 32.0563 321.211 32.0563ZM321.971 15.0327C318.312 15.0327 316.215 17.2971 316.215 21.2436C316.215 25.1316 318.312 27.361 321.971 27.361C325.629 27.361 327.727 25.1316 327.727 21.2436C327.727 17.2971 325.629 15.0327 321.971 15.0327Z" fill="#081E37"/>
    <path d="M89.6979 27.0343V31.6765H73.0625V10.7109H89.4618V15.3541H77.9986V18.7683H88.1681L85.7058 23.38H77.9986V27.0343H89.6979Z" fill="#081E37"/>
    <path d="M233.666 27.0343V31.6765H217.029V10.7109H233.429V15.3541H221.966V18.7683H232.135L229.674 23.38H221.966V27.0343H233.666Z" fill="#081E37"/>
    <path d="M69.6091 15.3541H62.9836V31.6765H58.0474V15.3541H51.3926V10.7109H69.6091V15.3541Z" fill="#081E37"/>
    <path d="M156.611 10.7109V31.6765H152.206L141.854 19.2376V31.6765H136.977V10.7109H141.381L151.734 23.1804V10.7109H156.611Z" fill="#081E37"/>
    <path d="M132.822 10.7109V31.6765H127.914V23.38H118.492V31.6765H113.555V10.7109H118.492V18.7683H127.914V10.7109H132.822Z" fill="#081E37"/>
    <path d="M165.646 10.7109H160.709V31.6756H165.646V10.7109Z" fill="#081E37"/>
    <path d="M194.605 22.1214V10.7109H199.574V22.152C199.574 26.4274 202.478 27.2428 203.916 27.2428C205.354 27.2428 208.317 26.4472 208.317 22.152V10.7109H213.254V22.1214C213.254 31.2629 207.227 32.0657 203.916 32.0657C200.642 32.0657 194.605 31.2827 194.605 22.1214Z" fill="#081E37"/>
    <path d="M102.584 27.0312C101.812 27.0569 101.041 26.9249 100.32 26.6429C99.5983 26.361 98.9401 25.935 98.3844 25.3901C97.8287 24.8453 97.3868 24.1928 97.085 23.4714C96.7832 22.75 96.6277 21.9746 96.6277 21.1911C96.6277 20.4076 96.7832 19.6321 97.085 18.9108C97.3868 18.1894 97.8287 17.5369 98.3844 16.9921C98.9401 16.4472 99.5983 16.0212 100.32 15.7392C101.041 15.4573 101.812 15.3253 102.584 15.351H109.608V10.7088H102.584C100.637 10.6756 98.7111 11.1171 96.9678 11.9961C95.3522 12.8174 94.0031 14.0909 93.0804 15.6656C92.159 17.3577 91.6758 19.2586 91.6758 21.1911C91.6758 23.1235 92.159 25.0245 93.0804 26.7166C94.0028 28.2915 95.352 29.5651 96.9678 30.3861C98.7112 31.2648 100.637 31.7063 102.584 31.6734H109.608V27.0312H102.584Z" fill="#081E37"/>
    <path d="M191.229 21.1798C191.229 14.7477 187.263 10.5927 180.879 10.3347C180.879 10.3347 180.591 10.3203 180.169 10.3203C179.747 10.3203 179.364 10.3347 179.364 10.3347C172.981 10.5927 169.016 14.7477 169.016 21.1798C169.016 27.6298 172.981 31.7965 179.363 32.0571C179.363 32.0571 179.962 32.0688 180.123 32.0688C180.284 32.0688 180.881 32.0571 180.881 32.0571C181.749 32.0228 182.612 31.9042 183.458 31.703L185.379 34.4655H190.818L187.546 29.7585C189.897 27.8662 191.229 24.9077 191.229 21.1798ZM180.122 27.3583C176.464 27.3583 174.365 25.1289 174.365 21.2454C174.365 17.2989 176.464 15.0354 180.122 15.0354C183.781 15.0354 185.878 17.2989 185.878 21.2454C185.953 22.7741 185.497 24.2811 184.588 25.5038L182.658 22.7268H177.218L180.432 27.3502C180.329 27.3502 180.229 27.3583 180.122 27.3583Z" fill="#081E37"/>
    <path d="M244.895 18.6953H236.684V23.3636H243.253L244.895 18.6953Z" fill="#081E37"/>
    <path d="M288.005 27.0421V31.6834H271.369V10.7188H287.768V15.3619H276.306V18.7752H286.476L284.013 23.3878H276.306V27.0421H288.005Z" fill="#081E37"/>
</svg>
