<svg width="109" height="24" viewBox="0 0 109 24" fill="none" xmlns="http://www.w3.org/2000/svg">
    <path d="M46.4626 14.8007V17.2457H38.1562V6.20312H46.3443V8.64868H40.6213V10.447H45.6983L44.4694 12.876H40.6213V14.8007H46.4626Z" fill="white"/>
    <path d="M88.0758 8.64868H84.7677V17.2457H82.3032V8.64868H78.9805V6.20312H88.0758V8.64868Z" fill="white"/>
    <path d="M108.023 14.8007L106.793 17.2457H99.7344V6.20312H102.199V14.8007H108.023Z" fill="white"/>
    <path d="M53.1825 14.8016C52.7966 14.8151 52.4121 14.7456 52.0518 14.5971C51.6916 14.4486 51.3629 14.2242 51.0854 13.9372C50.808 13.6502 50.5873 13.3066 50.4366 12.9266C50.286 12.5467 50.2083 12.1382 50.2083 11.7256C50.2083 11.3129 50.286 10.9045 50.4366 10.5245C50.5873 10.1446 50.808 9.80089 51.0854 9.51392C51.3629 9.22695 51.6916 9.00255 52.0518 8.85407C52.4121 8.70558 52.7966 8.63603 53.1825 8.64957H56.6895V6.20402H53.1825C52.2103 6.18675 51.2485 6.41945 50.3781 6.88252C49.5717 7.3152 48.8982 7.98577 48.4372 8.81482C47.9774 9.7062 47.7363 10.7075 47.7363 11.7253C47.7363 12.7432 47.9774 13.7445 48.4372 14.6358C48.8978 15.4652 49.5714 16.1359 50.3781 16.5681C51.2485 17.0312 52.2103 17.2639 53.1825 17.2466H56.6895V14.8016H53.1825Z" fill="white"/>
    <path d="M62.7427 17.4484C59.5561 17.313 57.5762 15.1179 57.5762 11.7192C57.5762 8.3319 59.556 6.14346 62.7432 6.00757C62.7432 6.00757 62.9328 6 63.145 6C63.3572 6 63.4994 6.00757 63.4994 6.00757C66.6892 6.14346 68.6669 8.3319 68.6669 11.7192C68.6669 15.1165 66.687 17.3116 63.4999 17.4484C63.4999 17.4484 63.2013 17.4545 63.1215 17.4545C63.0418 17.4545 62.7427 17.4484 62.7427 17.4484ZM63.122 8.48247C61.2954 8.48247 60.2476 9.6747 60.2476 11.7533C60.2476 13.8011 61.2954 14.9754 63.122 14.9754C64.9486 14.9754 65.9959 13.8011 65.9959 11.7533C65.9959 9.67281 64.9486 8.48058 63.122 8.48058V8.48247Z" fill="white"/>
    <path d="M96.0887 17.2457H98.6716L94.5226 6.20312H91.6429L87.4785 17.2457H90.0759L90.7936 15.2367H95.3653L96.0887 17.2457ZM91.6691 12.7917L93.0762 8.85369L94.4898 12.7917H91.6691Z" fill="white"/>
    <path d="M33.9223 13.6605C36.0222 13.1709 36.1658 10.8599 36.1658 10.0502C36.1658 9.33523 35.7347 6.20312 32.4608 6.20312H26.3594V17.2453H28.8244V8.6501H32.3872C32.7165 8.67904 33.0236 8.8393 33.2474 9.09903C33.4713 9.35876 33.5955 9.69896 33.5955 10.0521C33.5955 10.4052 33.4713 10.7454 33.2474 11.0052C33.0236 11.2649 32.7165 11.4251 32.3872 11.4541H29.9324L33.5975 17.2472H36.5051L33.9223 13.6605Z" fill="white"/>
    <path d="M76.2631 10.9673C75.6269 10.7326 74.9753 10.5481 74.3138 10.4152C73.8227 10.3328 73.3422 10.1898 72.8819 9.98911C72.7708 9.94385 72.6748 9.86406 72.6064 9.76001C72.5381 9.65597 72.5004 9.53243 72.4983 9.4053C72.4983 8.62263 73.3724 8.65862 73.8845 8.65862H77.6945V6.20312H74.2788C70.3244 6.20312 69.7949 8.23296 69.7949 9.58949C69.7949 11.9882 72.1288 12.5365 73.2408 12.8205C73.7131 12.9365 75.6252 13.169 75.6252 14.0275C75.6252 14.821 74.8166 14.8144 74.3541 14.8144H70.1454V17.2438H74.2655C78.3064 17.2438 78.3555 14.7216 78.3555 13.9853C78.347 13.3113 78.1404 12.6572 77.7649 12.1156C77.3894 11.574 76.864 11.1723 76.2631 10.9673V10.9673Z" fill="white"/>
    <path d="M9.56201 0L0 6.00024V18.0002L9.56201 24L13.3205 21.6415L9.49022 19.2382V12.3647L12.7904 10.2933L9.56112 8.26671L6.26267 10.3366V17.2093L3.41989 15.4255V8.55044L9.56112 4.69672L15.7028 8.55044V12.0366L9.70295 15.8012L16.1651 19.8568L19.1236 18.0002V6.00024L9.56201 0Z" fill="#3760F4"/>
</svg>
