<svg width="155" height="95" viewBox="0 0 155 95" fill="none" xmlns="http://www.w3.org/2000/svg">
<g clip-path="url(#clip0_888_5395)">
<path d="M97.6396 60.8264H104.231L106.337 56.9662H97.6396V54.1088H107.443V50.2227H93.418V67.7704H107.645V63.8855H97.6396V60.8264Z" fill="#081E37"/>
<path d="M115.499 50.2227H111.277V67.7704H123.368L125.473 63.8855H115.499V50.2227Z" fill="#081E37"/>
<path d="M131.332 50.2227H127.109V67.7704H139.2L141.305 63.8855H131.332V50.2227Z" fill="#081E37"/>
<path d="M57.3275 57.3593L66.1811 67.7704H69.948V50.2227H65.7768V60.6597L56.9232 50.2227H53.1562V67.7704H57.3275V57.3593Z" fill="#081E37"/>
<path d="M147.097 50.2227H142.875V67.7704H147.097V50.2227Z" fill="#081E37"/>
<path d="M37.9462 64.5783H45.7775L47.0122 67.7686H51.4366L44.3296 50.2227H39.3995L32.2676 67.7686H36.7174L37.9462 64.5783ZM44.2737 60.6934H39.442L41.8521 54.4332L44.2737 60.6934Z" fill="#081E37"/>
<path d="M86.1133 66.692C87.4946 66.0049 88.6484 64.9395 89.4376 63.6221C90.2253 62.2057 90.6384 60.6145 90.6384 58.997C90.6384 57.3796 90.2253 55.7884 89.4376 54.372C88.6482 53.0547 87.4945 51.9894 86.1133 51.3021C84.6222 50.5665 82.9747 50.1968 81.3095 50.2241H73.5273V67.7676H81.3076C82.9733 67.7959 84.6214 67.427 86.1133 66.692ZM77.7508 54.1078H81.3095C81.9728 54.0825 82.6345 54.1902 83.2549 54.4245C83.8753 54.6587 84.4416 55.0148 84.92 55.4712C85.3983 55.9276 85.7789 56.475 86.0388 57.0807C86.2987 57.6864 86.4327 58.3379 86.4327 58.9961C86.4327 59.6544 86.2987 60.3059 86.0388 60.9116C85.7789 61.5172 85.3983 62.0647 84.92 62.5211C84.4416 62.9775 83.8753 63.3335 83.2549 63.5678C82.6345 63.8021 81.9728 63.9098 81.3095 63.8845H77.7508V54.1078Z" fill="#081E37"/>
<path d="M12.6561 55.6883L17.1976 67.7704H21.7987L26.3402 55.6883V67.7704H30.4865V50.2227H24.3684L19.4985 62.8243L14.6279 50.2227H8.50977V67.7704H12.6561V55.6883Z" fill="#081E37"/>
<path d="M100.97 83.567C100.97 82.4306 100.233 77.4531 94.6346 77.4531H84.1992V95.0009H88.4145V81.3368H94.5085C96.3025 81.3368 96.5783 82.947 96.5783 83.564C96.5783 84.181 96.3025 85.7912 94.5085 85.7912H90.3109L96.5783 94.9967H101.548L97.131 89.3005C100.724 88.5264 100.97 84.854 100.97 83.567Z" fill="#081E37"/>
<path d="M53.6977 88.0569H60.2784L62.3803 84.1967H53.6977V81.3392H63.4846V77.4531H49.4824V95.0009H63.6864V91.116H53.6977V88.0569Z" fill="#081E37"/>
<path d="M66.0273 81.3392H71.7093V95.0009H75.9239V81.3392H81.5804V77.4531H66.0273V81.3392Z" fill="#081E37"/>
<path d="M110.157 77.4531L103.037 95.0009H107.479L108.706 91.8106H116.525L117.758 95.0009H122.175L115.08 77.4531H110.157ZM110.2 87.9233L112.606 81.6631L115.023 87.9233H110.2Z" fill="#081E37"/>
<path d="M43.2702 85.0276C42.1822 84.6547 41.068 84.3614 39.9368 84.15C39.0973 84.0192 38.2758 83.7921 37.4889 83.4734C37.2987 83.4016 37.1346 83.2748 37.0176 83.1095C36.9006 82.9442 36.8362 82.7479 36.8325 82.5458C36.8325 81.3016 38.3277 81.3588 39.2029 81.3588H45.7236V77.457H39.8823C33.1203 77.457 32.2148 80.6828 32.2148 82.8384C32.2148 86.6499 36.2058 87.5215 38.1071 87.9729C38.915 88.1571 42.1848 88.5267 42.1848 89.8907C42.1848 91.1512 40.8017 91.1416 40.0114 91.1416H32.8143V95.0018H39.8599C46.7691 95.0018 46.854 90.9935 46.854 89.8251C46.854 86.6246 44.2121 85.3617 43.2702 85.0276Z" fill="#081E37"/>
<path d="M77.4992 28.2943C82.9245 28.2943 87.3226 23.8895 87.3226 18.4558C87.3226 13.0221 82.9245 8.61719 77.4992 8.61719C72.0739 8.61719 67.6758 13.0221 67.6758 18.4558C67.6758 23.8895 72.0739 28.2943 77.4992 28.2943Z" fill="#EC1C24"/>
<path d="M90.0301 18.4547C90.0302 20.201 89.6639 21.928 88.9551 23.5235L93.6076 26.2152V10.6953L88.9551 13.387C89.6639 14.9822 90.0301 16.7087 90.0301 18.4547Z" fill="#081E37"/>
<path d="M64.97 18.4559C64.9698 16.7095 65.3361 14.9826 66.0451 13.387L61.3926 10.6953V26.2152L66.0451 23.5235C65.3364 21.9283 64.9701 20.2018 64.97 18.4559Z" fill="#081E37"/>
<path d="M67.3987 25.8477L62.7402 28.543L76.156 36.3035V30.932C74.4233 30.7419 72.7494 30.1914 71.2414 29.3159C69.7333 28.4404 68.4245 27.2591 67.3987 25.8477Z" fill="#081E37"/>
<path d="M76.1565 5.97936V0.605469L62.7383 8.36423L67.3967 11.0596C68.4233 9.64873 69.7328 8.46813 71.2412 7.59334C72.7496 6.71854 74.4237 6.16882 76.1565 5.97936Z" fill="#081E37"/>
<path d="M87.6011 11.0596L92.2595 8.36483L78.8438 0.605469V5.97936C80.5761 6.16914 82.2498 6.71901 83.7577 7.5938C85.2657 8.46858 86.5747 9.64901 87.6011 11.0596Z" fill="#081E37"/>
<path d="M78.8438 30.9318V36.3056L92.2619 28.5469L87.6035 25.8516C86.577 27.2625 85.2676 28.4432 83.7592 29.318C82.2507 30.1928 80.5765 30.7424 78.8438 30.9318Z" fill="#081E37"/>
</g>
<defs>
<clipPath id="clip0_888_5395">
<rect width="155" height="95" fill="white"/>
</clipPath>
</defs>
</svg>
