<svg width="155" height="95" viewBox="0 0 155 95" fill="none" xmlns="http://www.w3.org/2000/svg">
<path d="M60.0781 28.1371V9.37883L76.186 0L92.2938 9.37883V28.1371L76.186 37.5159L60.0781 28.1371Z" fill="#EC1C24"/>
<path d="M85.591 21.9609C85.2386 21.9607 84.8942 22.0659 84.6011 22.2631C84.308 22.4603 84.0795 22.7408 83.9445 23.069C83.8095 23.3973 83.7741 23.7585 83.8427 24.107C83.9113 24.4556 84.0808 24.7758 84.3299 25.0271C84.5789 25.2785 84.8963 25.4497 85.2419 25.5191C85.5874 25.5885 85.9456 25.553 86.2711 25.4171C86.5967 25.2811 86.8749 25.0509 87.0707 24.7554C87.2665 24.46 87.371 24.1126 87.371 23.7573C87.3703 23.2813 87.1826 22.8249 86.849 22.4882C86.5154 22.1515 86.063 21.9619 85.591 21.9609Z" fill="white"/>
<path d="M67.3197 20.5391C66.6897 20.5391 66.074 20.7274 65.5502 21.0804C65.0265 21.4333 64.6183 21.935 64.3772 22.5219C64.1361 23.1088 64.0731 23.7546 64.196 24.3777C64.3189 25.0008 64.6222 25.5731 65.0676 26.0223C65.513 26.4715 66.0805 26.7774 66.6983 26.9014C67.3161 27.0253 67.9565 26.9617 68.5385 26.7186C69.1204 26.4755 69.6178 26.0638 69.9678 25.5356C70.3178 25.0074 70.5046 24.3864 70.5046 23.7511C70.5038 22.8994 70.168 22.0829 69.5708 21.4807C68.9737 20.8785 68.1641 20.5399 67.3197 20.5391Z" fill="white"/>
<path d="M67.3197 10.5469C66.6897 10.5469 66.074 10.7353 65.5502 11.0882C65.0265 11.4411 64.6183 11.9428 64.3772 12.5297C64.1361 13.1166 64.0731 13.7625 64.196 14.3855C64.3189 15.0086 64.6222 15.5809 65.0676 16.0301C65.513 16.4793 66.0805 16.7853 66.6983 16.9092C67.3161 17.0331 67.9565 16.9695 68.5385 16.7264C69.1204 16.4833 69.6178 16.0716 69.9678 15.5434C70.3178 15.0152 70.5046 14.3942 70.5046 13.7589C70.5038 12.9073 70.168 12.0907 69.5708 11.4885C68.9737 10.8863 68.1641 10.5477 67.3197 10.5469Z" fill="white"/>
<path d="M85.5898 11.9648C85.2376 11.9647 84.8933 12.0699 84.6004 12.2672C84.3075 12.4644 84.0792 12.7449 83.9443 13.073C83.8094 13.4011 83.7741 13.7622 83.8427 14.1106C83.9114 14.459 84.0809 14.779 84.3299 15.0302C84.5789 15.2814 84.8962 15.4525 85.2416 15.5218C85.587 15.5912 85.9451 15.5556 86.2705 15.4197C86.5959 15.2838 86.874 15.0537 87.0697 14.7583C87.2654 14.463 87.3698 14.1158 87.3698 13.7606C87.369 13.2847 87.1813 12.8285 86.8476 12.4919C86.514 12.1553 86.0617 11.9658 85.5898 11.9648Z" fill="white"/>
<path d="M76.6653 26.5078C76.1455 26.5078 75.6374 26.6633 75.2052 26.9545C74.773 27.2458 74.4361 27.6597 74.2372 28.1441C74.0382 28.6284 73.9862 29.1613 74.0876 29.6755C74.189 30.1897 74.4393 30.6619 74.8069 31.0326C75.1744 31.4033 75.6428 31.6558 76.1526 31.758C76.6624 31.8603 77.1908 31.8078 77.6711 31.6072C78.1513 31.4066 78.5618 31.0669 78.8506 30.631C79.1394 30.1951 79.2935 29.6826 79.2935 29.1584C79.2935 28.4554 79.0166 27.7812 78.5237 27.2841C78.0308 26.7871 77.3623 26.5078 76.6653 26.5078Z" fill="white"/>
<path d="M76.6653 16.1094C76.1455 16.1094 75.6374 16.2648 75.2052 16.5561C74.773 16.8473 74.4361 17.2613 74.2372 17.7456C74.0382 18.23 73.9862 18.7629 74.0876 19.2771C74.189 19.7912 74.4393 20.2635 74.8069 20.6342C75.1744 21.0049 75.6428 21.2573 76.1526 21.3596C76.6624 21.4619 77.1908 21.4094 77.6711 21.2088C78.1513 21.0081 78.5618 20.6684 78.8506 20.2325C79.1394 19.7966 79.2935 19.2842 79.2935 18.76C79.2935 18.057 79.0166 17.3828 78.5237 16.8857C78.0308 16.3886 77.3623 16.1094 76.6653 16.1094Z" fill="white"/>
<path d="M76.6653 5.70703C76.1455 5.70703 75.6374 5.86248 75.2052 6.15373C74.773 6.44498 74.4361 6.85895 74.2372 7.34328C74.0382 7.82761 73.9862 8.36055 74.0876 8.87471C74.189 9.38887 74.4393 9.86116 74.8069 10.2319C75.1744 10.6025 75.6428 10.855 76.1526 10.9573C76.6624 11.0595 77.1908 11.007 77.6711 10.8064C78.1513 10.6058 78.5618 10.2661 78.8506 9.83019C79.1394 9.39431 79.2935 8.88184 79.2935 8.35761C79.2935 7.65463 79.0166 6.98045 78.5237 6.48337C78.0308 5.98629 77.3623 5.70703 76.6653 5.70703Z" fill="white"/>
<path d="M113.409 62.9671V66.8419H99.1641V49.3398H113.207V53.2158H103.392V56.0658H112.1L109.991 59.916H103.392V62.9671H113.409Z" fill="#081E37"/>
<path d="M96.6317 53.2158H90.9587V66.8419H86.7317V53.2158H81.0332V49.3398H96.6317V53.2158Z" fill="#081E37"/>
<path d="M32.3407 62.9646C31.6841 62.994 31.0282 62.8918 30.4126 62.6639C29.7971 62.4361 29.2347 62.0874 28.7593 61.639C27.8861 60.6574 27.4045 59.3954 27.4045 58.0887C27.4045 56.782 27.8861 55.52 28.7593 54.5384C29.2348 54.0901 29.7973 53.7417 30.4128 53.5139C31.0283 53.2862 31.6841 53.184 32.3407 53.2133H38.3584V49.3373H32.3407C30.6736 49.3101 29.0242 49.6789 27.5315 50.4126C26.1481 51.0976 24.9929 52.1603 24.2029 53.4745C23.4139 54.8871 23 56.4741 23 58.0875C23 59.7008 23.4139 61.2878 24.2029 62.7004C24.9929 64.0147 26.1481 65.0774 27.5315 65.7623C29.0243 66.4958 30.6736 66.8644 32.3407 66.837H38.3584V62.9622L32.3407 62.9646Z" fill="#081E37"/>
<path d="M125.179 62.9646C124.514 62.9898 123.852 62.8824 123.231 62.6487C122.61 62.4151 122.043 62.06 121.564 61.6048C121.085 61.1495 120.704 60.6035 120.443 59.9994C120.183 59.3953 120.049 58.7455 120.049 58.089C120.049 57.4324 120.183 56.7827 120.443 56.1786C120.704 55.5744 121.085 55.0284 121.564 54.5732C122.043 54.118 122.61 53.7629 123.231 53.5292C123.852 53.2956 124.514 53.1881 125.179 53.2134H131.196V49.3373H125.179C123.511 49.3101 121.862 49.6789 120.369 50.4126C118.986 51.0978 117.831 52.1605 117.04 53.4745C116.252 54.8872 115.838 56.4742 115.838 58.0875C115.838 59.7007 116.252 61.2877 117.04 62.7004C117.831 64.0145 118.986 65.0771 120.369 65.7623C121.862 66.4959 123.512 66.8645 125.179 66.837H131.196V62.9622L125.179 62.9646Z" fill="#081E37"/>
<path d="M49.0904 67.155C43.6259 66.94 40.2305 63.4615 40.2305 58.0767C40.2305 52.7082 43.6259 49.2387 49.0922 49.0243C49.0922 49.0243 49.4174 49.0117 49.7809 49.0117C50.1444 49.0117 50.3887 49.0243 50.3887 49.0243C55.8551 49.2387 59.2511 52.7082 59.2511 58.0767C59.2511 63.4615 55.8551 66.94 50.3894 67.155C50.3894 67.155 49.8769 67.1646 49.7402 67.1646C49.6034 67.1646 49.0904 67.155 49.0904 67.155ZM49.7414 52.9436C46.6086 52.9436 44.8118 54.8335 44.8118 58.1284C44.8118 61.374 46.6086 63.2351 49.7414 63.2351C52.8742 63.2351 54.6704 61.374 54.6704 58.1284C54.6692 54.8335 52.8736 52.9436 49.7414 52.9436Z" fill="#081E37"/>
<path d="M78.6137 49.3359V66.838H74.8427L65.9779 56.4534V66.838H61.8008V49.3359H65.5724L74.4372 59.7452V49.3359H78.6137Z" fill="#081E37"/>
</svg>
