<svg width="337" height="43" viewBox="0 0 337 43" fill="none" xmlns="http://www.w3.org/2000/svg">
    <path d="M157.921 23.4335H165.655L168.126 18.8632H157.921V15.4795H169.424V10.8789H152.967V31.6557H169.661V27.0551H157.921V23.4335Z" fill="#081E37"/>
    <path d="M178.876 10.8789H173.922V31.6557H188.108L190.579 27.0551H178.876V10.8789Z" fill="#081E37"/>
    <path d="M197.454 10.8789H192.5V31.6557H206.687L209.157 27.0551H197.454V10.8789Z" fill="#081E37"/>
    <path d="M110.619 19.3282L121.007 31.6557H125.427V10.8789H120.533V23.2358L110.145 10.8789H105.725V31.6557H110.619V19.3282Z" fill="#081E37"/>
    <path d="M215.95 10.8789H210.996V31.6557H215.95V10.8789Z" fill="#081E37"/>
    <path d="M228.111 18.8008H219.871V23.4281H226.464L228.111 18.8008Z" fill="#081E37"/>
    <path d="M87.8821 27.8756H97.0692L98.5187 31.6557H103.711L95.3721 10.8789H89.5846L81.2148 31.6557H86.4361L87.8821 27.8756ZM95.3054 23.2759H89.637L92.4641 15.8653L95.3054 23.2759Z" fill="#081E37"/>
    <path d="M144.403 30.3816C146.024 29.5674 147.378 28.3053 148.304 26.7449C149.228 25.0679 149.712 23.184 149.712 21.269C149.712 19.3539 149.228 17.4701 148.304 15.793C147.378 14.2328 146.024 12.9708 144.403 12.1563C142.653 11.2858 140.721 10.8483 138.767 10.8806H129.637V31.6574H138.767C140.721 31.6896 142.653 31.2521 144.403 30.3816ZM134.591 15.4812H138.767C139.541 15.4576 140.313 15.59 141.035 15.8702C141.758 16.1505 142.416 16.5731 142.972 17.1129C143.529 17.6527 143.971 18.2988 144.273 19.0128C144.575 19.7268 144.73 20.4941 144.73 21.2694C144.73 22.0447 144.575 22.8121 144.273 23.5261C143.971 24.2401 143.529 24.8861 142.972 25.4259C142.416 25.9657 141.758 26.3883 141.035 26.6686C140.313 26.9489 139.541 27.0812 138.767 27.0576H134.591V15.4812Z" fill="#081E37"/>
    <path d="M58.2049 17.3495L63.5339 31.6557H68.9325L74.2615 17.3495V31.6557H79.1265V10.8789H71.9482L66.2337 25.7989L60.5191 10.8789H53.3398V31.6557H58.2049V17.3495Z" fill="#081E37"/>
    <path d="M312.078 18.1175C312.078 16.7722 311.212 10.8789 304.632 10.8789H292.369V31.6557H297.323V15.4795H304.484C305.147 15.5327 305.765 15.8337 306.216 16.3227C306.667 16.8116 306.918 17.4526 306.918 18.118C306.918 18.7834 306.667 19.4243 306.216 19.9132C305.765 20.4022 305.147 20.7032 304.484 20.7564H299.549L306.916 31.6557H312.76L307.568 24.9116C311.789 23.9895 312.078 19.6418 312.078 18.1175Z" fill="#081E37"/>
    <path d="M256.521 23.4344H264.254L266.724 18.8641H256.521V15.4804H268.023V10.8789H251.566V31.6566H268.26V27.056H256.521V23.4344Z" fill="#081E37"/>
    <path d="M271.01 15.4804H277.688V31.6566H282.642V15.4804H289.29V10.8789H271.01V15.4804Z" fill="#081E37"/>
    <path d="M322.877 10.8789L314.508 31.6557H319.728L321.171 27.8756H330.359L331.808 31.6557H336.999L328.661 10.8789H322.877ZM322.927 23.2759L325.755 15.8653L328.596 23.2759H322.927Z" fill="#081E37"/>
    <path d="M244.265 19.8483C242.986 19.4071 241.676 19.0599 240.347 18.8095C239.36 18.6544 238.394 18.3853 237.469 18.0077C237.246 17.9228 237.053 17.7729 236.916 17.5772C236.778 17.3816 236.702 17.1492 236.698 16.9101C236.698 15.4366 238.455 15.5043 239.483 15.5043H247.146V10.8867H240.28C232.334 10.8867 231.27 14.7069 231.27 17.2593C231.27 21.7718 235.959 22.8043 238.194 23.338C239.144 23.5563 242.987 23.9946 242.987 25.6089C242.987 27.1021 241.361 27.0896 240.433 27.0896H231.974V31.6608H240.254C248.376 31.6608 248.475 26.915 248.475 25.5296C248.458 24.2604 248.042 23.0286 247.286 22.0089C246.531 20.9892 245.474 20.2333 244.265 19.8483Z" fill="#081E37"/>
    <path d="M19.208 33.0036C25.6785 33.0036 30.9238 27.7553 30.9238 21.2811C30.9238 14.807 25.6785 9.55859 19.208 9.55859C12.7376 9.55859 7.49219 14.807 7.49219 21.2811C7.49219 27.7553 12.7376 33.0036 19.208 33.0036Z" fill="#EC1C24"/>
    <path d="M34.152 21.2653C34.1514 23.3463 33.7136 25.4039 32.8672 27.3048L38.4162 30.512V12.0195L32.8672 15.2268C33.7135 17.1273 34.1512 19.1847 34.152 21.2653Z" fill="#081E37"/>
    <path d="M4.26404 21.2671C4.26461 19.1858 4.70234 17.1279 5.54887 15.2268L0 12.0195V30.5103L5.54887 27.303C4.7029 25.4033 4.26518 23.3469 4.26404 21.2671Z" fill="#081E37"/>
    <path d="M7.16227 30.0781L1.60352 33.2854L17.6074 42.5303V36.1274C15.5416 35.9016 13.5456 35.247 11.7471 34.2053C9.94849 33.1637 8.38695 31.758 7.16227 30.0781Z" fill="#081E37"/>
    <path d="M17.6074 6.40294V0L1.60352 9.24493L7.16227 12.4566C8.3864 10.7758 9.94768 9.36918 11.7463 8.32676C13.5449 7.28434 15.5412 6.6291 17.6074 6.40294Z" fill="#081E37"/>
    <path d="M31.2569 12.4566L36.8155 9.24493L20.8125 0V6.40294C22.8786 6.62922 24.8747 7.28453 26.6732 8.32695C28.4717 9.36936 30.0329 10.7759 31.2569 12.4566Z" fill="#081E37"/>
    <path d="M20.8125 36.1313V42.5342L36.8155 33.2893L31.2569 30.082C30.0323 31.7618 28.4708 33.1674 26.6724 34.209C24.874 35.2507 22.8782 35.9054 20.8125 36.1313Z" fill="#081E37"/>
</svg>
