<svg width="155" height="95" viewBox="0 0 155 95" fill="none" xmlns="http://www.w3.org/2000/svg">
<g clip-path="url(#clip0_888_5431)">
<path d="M81.5363 14.0742H72.248V23.4416H81.5363V14.0742Z" fill="#68BC45"/>
<path d="M76.893 0L60.7852 9.37883V28.1371L76.893 37.5159L93.0008 28.1371V9.37883L76.893 0ZM86.2709 14.0746V28.2172H72.2489V23.442L67.5139 28.2172V9.30172H86.2697L81.5347 14.077L86.2709 14.0746Z" fill="#68BC45"/>
<path d="M32.5727 63.4435V67.2827H18.4258V49.9414H32.3717V53.7818H22.6235V56.6056H31.2713L29.1779 60.4204H22.6235V63.4435H32.5727Z" fill="#081E37"/>
<path d="M155 63.4435V67.2827H140.854V49.9414H154.799V53.7818H145.051V56.6056H153.699L151.606 60.4204H145.051V63.4435H155Z" fill="#081E37"/>
<path d="M15.4907 53.7818H9.85687V67.2827H5.65854V53.7818H0V49.9414H15.4907V53.7818Z" fill="#081E37"/>
<path d="M89.476 49.9414V67.2827H85.7304L76.9269 56.994V67.2827H72.7793V49.9414H76.5249L85.3284 60.255V49.9414H89.476Z" fill="#081E37"/>
<path d="M69.246 49.9414V67.2827H65.073V60.4204H57.0597V67.2827H52.8613V49.9414H57.0597V56.6056H65.073V49.9414H69.246Z" fill="#081E37"/>
<path d="M97.1573 49.9414H92.959V67.2827H97.1573V49.9414Z" fill="#081E37"/>
<path d="M121.783 59.38V49.9414H126.009V59.408C126.009 62.945 128.478 63.6195 129.701 63.6195C130.925 63.6195 133.444 62.961 133.444 59.408V49.9414H137.642V59.38C137.642 66.9412 132.517 67.6051 129.701 67.6051C126.917 67.6051 121.783 66.9573 121.783 59.38Z" fill="#081E37"/>
<path d="M43.5325 63.441C42.8729 63.466 42.2149 63.3596 41.5981 63.1281C40.9812 62.8966 40.418 62.5447 39.9424 62.0937C39.4668 61.6426 39.0884 61.1016 38.8299 60.5031C38.5715 59.9045 38.4382 59.2607 38.4382 58.6102C38.4382 57.9597 38.5715 57.3159 38.8299 56.7173C39.0884 56.1188 39.4668 55.5778 39.9424 55.1267C40.418 54.6757 40.9812 54.3239 41.5981 54.0923C42.2149 53.8608 42.8729 53.7544 43.5325 53.7794H49.5055V49.939H43.5325C41.876 49.9112 40.2371 50.2766 38.7541 51.0044C37.3803 51.6833 36.2329 52.7362 35.4479 54.0381C34.6647 55.4378 34.2539 57.0101 34.2539 58.6084C34.2539 60.2068 34.6647 61.7791 35.4479 63.1787C36.2326 64.481 37.3801 65.5339 38.7541 66.2125C40.2364 66.9398 41.8744 67.3052 43.5301 67.2779H49.5031V63.4387L43.5325 63.441Z" fill="#081E37"/>
<path d="M118.917 58.5989C118.917 53.2791 115.545 49.842 110.116 49.6291C110.116 49.6291 109.872 49.6172 109.513 49.6172C109.154 49.6172 108.829 49.6291 108.829 49.6291C103.397 49.842 100.023 53.2803 100.023 58.5989C100.023 63.9342 103.395 67.3808 108.823 67.5938C108.823 67.5938 109.332 67.6033 109.469 67.6033C109.605 67.6033 110.113 67.5938 110.113 67.5938C110.852 67.565 111.586 67.467 112.305 67.3011L113.935 69.5853H118.56L115.779 65.6926C117.783 64.1305 118.917 61.6833 118.917 58.5989ZM109.472 63.7099C106.361 63.7099 104.577 61.8659 104.577 58.6501C104.577 55.3855 106.361 53.5129 109.472 53.5129C112.583 53.5129 114.367 55.3855 114.367 58.6501C114.431 59.9144 114.043 61.1608 113.27 62.1722L111.628 59.8749H107.003L109.736 63.6998C109.646 63.7028 109.561 63.7099 109.47 63.7099H109.472Z" fill="#081E37"/>
<path d="M82.3837 80.4464H76.7761V94.073H72.5978V80.4464H66.9648V76.5703H82.3837V80.4464Z" fill="#081E37"/>
<path d="M122.176 76.5703V94.073H118.448L109.686 83.688V94.073H105.557V76.5703H109.285L118.048 86.9799V76.5703H122.176Z" fill="#081E37"/>
<path d="M46.4399 86.4094C47.0447 87.1813 47.355 88.143 47.3153 89.1225C47.3297 90.0186 47.096 90.9013 46.64 91.673C46.1819 92.4297 45.518 93.0409 44.7257 93.4351C43.8191 93.8787 42.8189 94.0977 41.8098 94.0734H31.6074V76.5707H41.2348C42.6485 76.4934 44.0377 76.9637 45.1132 77.8838C45.5868 78.3241 45.9594 78.8616 46.2056 79.4594C46.4518 80.0571 46.5658 80.701 46.5396 81.3468C46.5585 82.1668 46.328 82.9732 45.8787 83.6596C45.4267 84.3249 44.7596 84.8148 43.989 85.0471C44.9428 85.1934 45.8124 85.6768 46.4399 86.4094ZM35.7863 80.0452V83.4956H40.3341C40.5827 83.5129 40.8323 83.4809 41.0685 83.4016C41.3047 83.3222 41.5229 83.1971 41.7106 83.0333C41.8758 82.8588 42.0032 82.6521 42.0849 82.4262C42.1667 82.2003 42.2011 81.96 42.1859 81.7203C42.1998 81.4921 42.1646 81.2635 42.0826 81.0501C42.0006 80.8366 41.8738 80.6432 41.7106 80.4829C41.3242 80.1673 40.832 80.0108 40.3341 80.0452H35.7863ZM42.4485 90.109C42.6263 89.9263 42.7639 89.7083 42.8522 89.4693C42.9406 89.2302 42.9779 88.9752 42.9616 88.7209C42.9786 88.4684 42.9416 88.2153 42.8531 87.9782C42.7647 87.7412 42.6267 87.5256 42.4485 87.346C42.0309 87.0038 41.4983 86.8339 40.9596 86.8711H35.7863V90.5965H40.9596C41.5003 90.6344 42.0346 90.4599 42.4485 90.1102V90.109Z" fill="#081E37"/>
<path d="M92.7273 94.3861C87.3257 94.1711 83.9688 90.6924 83.9688 85.3075C83.9688 79.9382 87.3257 76.4691 92.7285 76.2542C92.7285 76.2542 93.0499 76.2422 93.4098 76.2422C93.7697 76.2422 94.0107 76.2542 94.0107 76.2542C99.4147 76.4691 102.771 79.9382 102.771 85.3075C102.771 90.6924 99.4147 94.1711 94.0113 94.3861C94.0113 94.3861 93.5054 94.3951 93.3696 94.3951C93.2338 94.3951 92.7273 94.3861 92.7273 94.3861ZM93.3702 80.1742C90.274 80.1742 88.4979 82.0642 88.4979 85.3591C88.4979 88.6043 90.274 90.4661 93.3702 90.4661C96.4663 90.4661 98.243 88.6049 98.243 85.3591C98.243 82.0642 96.4669 80.1772 93.3702 80.1772V80.1742Z" fill="#081E37"/>
<path d="M64.6283 90.1974V94.073H50.5469V76.5703H64.4276V80.4464H54.7252V83.2965H63.3329L61.2491 87.1468H54.7252V90.1974H64.6283Z" fill="#081E37"/>
</g>
<defs>
<clipPath id="clip0_888_5431">
<rect width="155" height="95" fill="white"/>
</clipPath>
</defs>
</svg>
